<?xml version="1.0" encoding="UTF-8" standalone="no"?>
<svg
   version="1.1"
   x="0px"
   y="0px"
   viewBox="0 0 100 125"
   enable-background="new 0 0 100 100"
   xml:space="preserve"
   id="svg19"
   sodipodi:docname="noun_Man_1293172-1.svg"
   inkscape:version="1.1 (c4e8f9e, 2021-05-24)"
   xmlns:inkscape="http://www.inkscape.org/namespaces/inkscape"
   xmlns:sodipodi="http://sodipodi.sourceforge.net/DTD/sodipodi-0.dtd"
   xmlns="http://www.w3.org/2000/svg"
   xmlns:svg="http://www.w3.org/2000/svg"><defs
     id="defs23" /><sodipodi:namedview
     id="namedview21"
     pagecolor="#ffffff"
     bordercolor="#666666"
     borderopacity="1.0"
     inkscape:pageshadow="2"
     inkscape:pageopacity="0.0"
     inkscape:pagecheckerboard="0"
     showgrid="false"
     inkscape:zoom="5.688"
     inkscape:cx="50.017581"
     inkscape:cy="62.5"
     inkscape:window-width="1312"
     inkscape:window-height="907"
     inkscape:window-x="0"
     inkscape:window-y="25"
     inkscape:window-maximized="0"
     inkscape:current-layer="svg19" /><path
     fill="#000000"
     d="M45.034,9.838l1.309-0.153l0.584,0.126c0.013,0.003,0.027,0.005,0.04,0.005c0.042,0,0.083-0.015,0.116-0.041  c0.011-0.009,0.015-0.025,0.024-0.037c0.017-0.02,0.035-0.036,0.042-0.062l0.053-0.188c0,0,0,0,0,0c0,0,0,0,0-0.001  c0.007-0.025-0.006-0.048-0.009-0.072c-0.003-0.024,0.003-0.05-0.009-0.071c-0.015-0.026-0.044-0.038-0.07-0.055  c-0.016-0.01-0.024-0.029-0.042-0.034c-0.001,0-0.001,0-0.001,0c-0.001,0-0.001,0-0.001,0l-0.881-0.24  c-0.013-0.004-0.025,0.005-0.038,0.005c-0.013-0.001-0.023-0.011-0.036-0.01L45.1,9.144c-0.016,0.002-0.024,0.016-0.038,0.021  c-0.014,0.005-0.029,0-0.043,0.009l-0.881,0.587c-0.015,0.01-0.017,0.029-0.028,0.042c-0.017,0.02-0.032,0.035-0.039,0.059  c-0.008,0.023-0.005,0.044-0.003,0.069c0.001,0.018-0.009,0.035-0.003,0.052c0.003,0.009,0.012,0.014,0.018,0.022  c0.003,0.006,0,0.013,0.004,0.019c0.003,0.007,0.013,0.004,0.018,0.01c0.036,0.043,0.083,0.075,0.14,0.075  c0.021,0,0.042-0.004,0.064-0.011L45.034,9.838z"
     id="path9" /><path
     fill="#000000"
     d="M46.486,10.022h-0.134H45.15c-0.008,0-0.013,0.008-0.022,0.009c-0.024,0.002-0.041,0.015-0.063,0.026  c-0.022,0.012-0.042,0.021-0.058,0.042c-0.005,0.006-0.015,0.006-0.019,0.013c-0.009,0.016-0.003,0.034-0.008,0.051  c-0.005,0.018-0.021,0.03-0.021,0.049c0,0.008,0.008,0.014,0.008,0.021c0.004,0.024,0.015,0.042,0.027,0.063  c0.012,0.022,0.021,0.042,0.042,0.059c0.006,0.005,0.006,0.014,0.013,0.018l0.348,0.215c0.012,0.008,0.025,0.007,0.038,0.011  c0.006,0.003,0.009,0.011,0.017,0.013l0.748,0.186c0.017,0.003,0.031,0.005,0.046,0.005c0.042,0,0.083-0.014,0.115-0.039  c0.011-0.008,0.013-0.022,0.022-0.032c0.019-0.021,0.039-0.041,0.046-0.07V10.66c0.001,0,0.001,0,0.001,0v0l0.069-0.262  c0.097-0.008,0.175-0.085,0.175-0.184C46.676,10.107,46.591,10.022,46.486,10.022z"
     id="path11" /><path
     fill="#000000"
     d="M79.465,41.529c-0.005-0.019,0-0.038-0.011-0.055l-0.337-0.495l0.137-0.274  c0.004-0.01-0.002-0.02,0.002-0.03c0.008-0.024,0.006-0.044,0.004-0.069s-0.004-0.045-0.016-0.068  c-0.006-0.009-0.002-0.02-0.007-0.029l-0.294-0.4c-0.012-0.017-0.031-0.018-0.048-0.029c-0.014-0.011-0.021-0.03-0.038-0.037  l-1.416-0.535c-0.006-0.002-0.012,0.002-0.018,0s-0.009-0.008-0.016-0.01l-1.604-0.294c-0.006-0.001-0.01,0.004-0.018,0.004  c-0.006,0-0.01-0.007-0.016-0.007H75.41l0.183-0.097c0.009-0.005,0.011-0.016,0.019-0.023c0.008-0.005,0.02-0.003,0.026-0.011  l0.48-0.479c0.012-0.012,0.011-0.029,0.019-0.042c0.013-0.022,0.023-0.04,0.027-0.065c0.003-0.025-0.002-0.044-0.007-0.069  c-0.004-0.016,0.003-0.032-0.005-0.047l-0.213-0.401c-0.005-0.009-0.016-0.01-0.023-0.018c-0.016-0.021-0.031-0.032-0.055-0.045  c-0.021-0.012-0.038-0.022-0.062-0.026c-0.01-0.002-0.017-0.012-0.027-0.012h-0.295c-0.018,0-0.027,0.014-0.043,0.018  s-0.029-0.003-0.045,0.004l-0.861,0.444l-3.23,0.807l-3.02-1.249l-3.958-2.895l-2.902-2.637c-0.007-0.005-0.016-0.003-0.022-0.008  c-0.007-0.005-0.007-0.014-0.015-0.019l-2.258-1.221l-1.778-1.341l0.188-0.221c0.009-0.009,0.006-0.021,0.012-0.031  c0.014-0.021,0.018-0.042,0.021-0.067c0.004-0.025,0.004-0.045-0.002-0.07c-0.003-0.011,0.004-0.022-0.001-0.033l-1.87-4.194  c-0.004-0.007-0.012-0.008-0.016-0.015c-0.004-0.006-0.002-0.014-0.005-0.021l-3.849-5.183c-0.008-0.01-0.02-0.01-0.029-0.018  c-0.008-0.008-0.01-0.022-0.02-0.029l-2.618-1.685c-0.01-0.007-0.023-0.002-0.034-0.007c-0.011-0.004-0.017-0.017-0.03-0.02  l-4.398-0.931l-0.012-0.233l0.889-0.089c0.002,0,0.003-0.003,0.006-0.003c0.012-0.001,0.024-0.002,0.036-0.006l1.016-0.347  c0.006-0.002,0.007-0.009,0.013-0.012c0.036-0.016,0.066-0.04,0.086-0.075c0.003-0.005,0.007-0.007,0.01-0.012  c0.001-0.001,0.002-0.002,0.002-0.003l0.268-0.588c0.005-0.014-0.002-0.027,0.001-0.041c0.002-0.014,0.016-0.023,0.016-0.038v-0.441  l0.542-0.424c0.002-0.001,0.002-0.004,0.004-0.005c0.028-0.023,0.041-0.058,0.052-0.093c0.004-0.011,0.014-0.019,0.015-0.03  c0-0.001,0.002-0.001,0.002-0.002l0.146-1.429l0.74-0.254c0.01-0.003,0.013-0.014,0.021-0.018c0.026-0.014,0.044-0.032,0.062-0.055  c0.011-0.016,0.021-0.027,0.028-0.044c0.003-0.009,0.011-0.013,0.013-0.022l0.08-0.374c0.005-0.022-0.008-0.04-0.011-0.06  c-0.002-0.02,0.007-0.04-0.002-0.059l-0.868-1.896l-0.096-0.854l0.512-0.632c0.01-0.012,0.006-0.027,0.012-0.041  c0.009-0.018,0.025-0.031,0.028-0.051l0.133-0.909c0.001-0.005-0.003-0.009-0.002-0.014c0-0.005,0.005-0.008,0.005-0.014V7.796  l0.138-0.104c0.004-0.003,0.003-0.009,0.007-0.012c0.019-0.016,0.025-0.039,0.036-0.062c0.011-0.022,0.026-0.041,0.027-0.065  c0.001-0.005,0.005-0.008,0.005-0.013V6.633c0-0.022-0.017-0.037-0.023-0.057c-0.007-0.02-0.002-0.041-0.015-0.058L47.869,5.53  c-0.006-0.007-0.017-0.007-0.023-0.014C47.839,5.51,47.841,5.5,47.833,5.494l-2.379-1.845c-0.012-0.009-0.027-0.004-0.04-0.01  c-0.012-0.006-0.018-0.02-0.03-0.023l-2.672-0.668c-0.017-0.004-0.031,0.006-0.046,0.006c-0.016,0-0.029-0.011-0.045-0.007  l-2.859,0.696c-0.018,0.004-0.025,0.021-0.039,0.028c-0.015,0.008-0.032,0.005-0.044,0.016l-1.871,1.709  c-0.01,0.009-0.009,0.024-0.017,0.035s-0.022,0.014-0.028,0.027l-0.989,2.192c-0.004,0.01,0.001,0.02,0,0.031  c-0.004,0.011-0.015,0.018-0.016,0.03l-0.24,2.565c-0.001,0.013,0.009,0.022,0.011,0.035c0.001,0.013-0.007,0.024-0.004,0.037  l0.802,2.698c0.004,0.014,0.017,0.021,0.023,0.034c0.004,0.008,0,0.019,0.006,0.026l0.989,1.31c0.004,0.003,0.009,0.002,0.012,0.005  c0.034,0.042,0.083,0.07,0.14,0.07h0.13v0.733l-0.479,1.137l-1.239,1.394l-3.683,1.906c-0.006,0.003-0.007,0.012-0.013,0.016  c-0.006,0.004-0.015,0.001-0.02,0.006l-3.232,2.646c-0.013,0.011-0.012,0.028-0.022,0.041c-0.009,0.013-0.026,0.018-0.033,0.034  l-0.881,2.137c-0.004,0.008,0.002,0.017,0,0.026c-0.003,0.009-0.012,0.012-0.013,0.021l-0.585,4.419l-1.732,5.865  c-0.007,0.024,0.005,0.046,0.007,0.07c0.002,0.023-0.006,0.046,0.004,0.068l0.33,0.662l-0.381,0.715c-0.001,0.001,0,0.002,0,0.003  c-0.001,0-0.001,0-0.002,0.001l-0.108,0.213c-0.001,0.003,0.001,0.006-0.001,0.009c0,0.003-0.004,0.003-0.005,0.006l-0.64,1.604  c-0.003,0.006,0.002,0.013,0,0.019c-0.002,0.007-0.009,0.01-0.011,0.018l-0.599,3.334L24.4,42.123l-1.251,0.261  c-0.012,0.002-0.017,0.015-0.028,0.019c-0.01,0.004-0.022-0.001-0.032,0.005l-0.829,0.506c-0.006,0.004-0.007,0.014-0.014,0.019  c-0.02,0.016-0.029,0.035-0.041,0.058c-0.013,0.021-0.024,0.04-0.027,0.064c-0.001,0.008-0.009,0.013-0.009,0.022v0.4  c0,0.005,0.004,0.008,0.004,0.012c0.002,0.025,0.017,0.043,0.028,0.066c0.011,0.022,0.017,0.045,0.036,0.061  c0.003,0.003,0.002,0.009,0.006,0.012l0.347,0.267c0.034,0.026,0.075,0.04,0.116,0.04h0.106l-0.541,0.284  c-0.01,0.005-0.012,0.018-0.021,0.025c-0.009,0.007-0.022,0.005-0.03,0.014l-0.668,0.722c-0.017,0.019-0.015,0.042-0.023,0.063  c-0.01,0.022-0.028,0.041-0.028,0.067v0.48c0,0.007,0.007,0.011,0.008,0.019c0.002,0.026,0.015,0.042,0.026,0.065  c0.013,0.022,0.021,0.042,0.041,0.058c0.005,0.005,0.005,0.013,0.012,0.018l0.452,0.29c0,0.001,0,0.001,0,0.001l0.003,0.002  c0.016,0.009,0.032,0.009,0.049,0.015l-0.204,0.562c-0.001,0,0,0.002,0,0.002c-0.008,0.023,0.002,0.047,0.003,0.071  c0.001,0.025-0.005,0.051,0.004,0.073c0.001,0,0,0.002,0,0.002l0.188,0.375c0.006,0.013,0.019,0.021,0.027,0.031  s0.015,0.018,0.025,0.027c0.033,0.028,0.073,0.048,0.118,0.048h0.615c0.056,0,0.103-0.025,0.137-0.063  c0.002-0.002,0.005-0.002,0.007-0.004l0.562-0.664l0.614-0.297L23.95,46.9l-0.74,1.292c-0.004,0.007,0,0.017-0.003,0.024  c-0.003,0.009-0.014,0.013-0.016,0.022l-0.134,0.508c-0.006,0.024,0.007,0.046,0.009,0.071c0.004,0.024-0.002,0.048,0.009,0.068  c0.013,0.022,0.038,0.032,0.059,0.048c0.018,0.013,0.028,0.035,0.051,0.042l0.347,0.107c0.019,0.006,0.038,0.008,0.057,0.008  c0.053,0,0.097-0.027,0.132-0.065c0.005-0.004,0.014-0.002,0.019-0.008l1.355-1.748l1.179-0.435  c0.021-0.008,0.029-0.029,0.045-0.042c0.012-0.009,0.029-0.006,0.038-0.019l0.881-1.122c0.008-0.01,0.004-0.024,0.01-0.036  c0.009-0.016,0.023-0.026,0.027-0.044l0.175-0.899l2.355-2.068c0.01-0.008,0.008-0.022,0.016-0.032  c0.005-0.007,0.017-0.004,0.021-0.012l1.308-2.138c0.005-0.009,0.002-0.02,0.005-0.029c0.005-0.013,0.017-0.02,0.02-0.034  l0.455-2.352c0.001-0.007-0.004-0.012-0.003-0.018c0-0.007,0.007-0.011,0.007-0.018v-1.149l1.124-0.186  c0.056-0.009,0.098-0.044,0.126-0.088c0.002-0.003,0.005-0.002,0.007-0.004l0.394-0.688v3.292c0,0.006,0.006,0.01,0.007,0.017  c0,0.006-0.005,0.011-0.004,0.017l0.767,4.231l-1.03,3.591c-0.002,0.005,0.003,0.009,0.002,0.014  c-0.001,0.005-0.007,0.007-0.008,0.011l-0.534,3.715c-0.002,0.015,0.009,0.026,0.011,0.041c0.002,0.025,0.005,0.044,0.017,0.067  c0.011,0.023,0.025,0.038,0.044,0.055c0.011,0.009,0.013,0.024,0.027,0.032l0.291,0.155l-0.391,4.846  c-0.001,0.011,0.008,0.02,0.01,0.031c0.001,0.011-0.007,0.02-0.004,0.031l0.979,3.733l-1.011,8.89c0,0.004,0.004,0.006,0.004,0.01  c0,0.005-0.005,0.007-0.005,0.01v4.188l-1.014,11.052c0,0.012,0.009,0.02,0.009,0.031c0.002,0.013-0.007,0.021-0.003,0.033  l0.664,2.604l0.479,5.434c0.003,0.037,0.025,0.067,0.047,0.096c0.006,0.008,0.004,0.02,0.012,0.026l0.339,0.317l-0.415,1.248  c-0.002,0.008,0.003,0.015,0.001,0.021c-0.001,0.009-0.009,0.014-0.01,0.023l-0.187,2.217c-0.002,0.016,0.011,0.027,0.013,0.041  c0.002,0.015-0.006,0.029-0.001,0.044l0.561,1.444c0.018,0.044,0.051,0.074,0.09,0.094c0.005,0.002,0.006,0.008,0.009,0.01  l2.032,0.909c0.025,0.011,0.051,0.016,0.077,0.017c0,0,0,0,0.001,0l0,0l0,0l0,0c0.009,0,0.018-0.002,0.026-0.002l2.538-0.349  c0.055-0.008,0.099-0.038,0.127-0.08c0.001-0.002,0.003-0.001,0.004-0.003l1.069-1.604c0.015-0.021,0.009-0.045,0.014-0.068  c0.004-0.021,0.019-0.041,0.016-0.063l-0.429-2.913c-0.001-0.01-0.009-0.014-0.012-0.022c-0.001-0.007,0.003-0.015,0-0.022  l-0.368-0.889l0.237-0.057c0.01-0.002,0.015-0.014,0.024-0.018c0.028-0.012,0.05-0.027,0.069-0.05  c0.012-0.015,0.02-0.025,0.027-0.041c0.006-0.011,0.016-0.017,0.019-0.028l0.501-1.869l0.654-1.071  c0.011-0.019,0.004-0.039,0.009-0.06c0.004-0.02,0.02-0.036,0.018-0.057l-0.932-9.565l0.928-4.298  c0.003-0.013-0.006-0.021-0.005-0.033c0-0.013,0.009-0.021,0.007-0.034l-0.447-3.056l2.463-7.844l2.468-3.688l3.421,10.369v1.652  c0,0.01,0.008,0.016,0.01,0.023c0.001,0.008-0.005,0.016-0.004,0.024l0.958,3.675l0.48,4.342c0,0.006,0.007,0.009,0.008,0.015  c0.001,0.005-0.004,0.011-0.002,0.017l1.775,6.252l-0.385,1.283c-0.006,0.021,0.005,0.041,0.006,0.061  c0.001,0.023-0.009,0.045,0,0.067l0.467,1.111v0.21l-0.751,1.372c-0.011,0.021-0.004,0.044-0.007,0.067  c-0.003,0.021-0.017,0.041-0.011,0.063l0.321,1.495c0.002,0.008,0.009,0.012,0.01,0.018c0.006,0.018,0.017,0.029,0.028,0.044  c0.017,0.024,0.034,0.044,0.059,0.058c0.007,0.006,0.009,0.015,0.018,0.019l2.243,0.909c0.023,0.01,0.048,0.013,0.071,0.013h2.153  l2.322,0.317l2.923,0.93c0.018,0.006,0.039,0.01,0.057,0.01h3.1c0.029,0,0.059-0.007,0.087-0.021l1.229-0.642  c0.01-0.005,0.012-0.017,0.02-0.022c0.021-0.015,0.033-0.032,0.046-0.054c0.013-0.022,0.022-0.04,0.026-0.065  c0.002-0.009,0.012-0.016,0.012-0.027v-1.256c0-0.021-0.016-0.034-0.021-0.053c-0.006-0.018,0-0.038-0.012-0.055l-0.615-0.908  c-0.012-0.016-0.033-0.02-0.049-0.031c-0.016-0.013-0.023-0.032-0.042-0.039l-0.716-0.266l0,0l-3.611-1.448l0.125-0.093l0,0  c0.001,0,0.001,0,0.002,0c0.025-0.02,0.031-0.049,0.044-0.075c0.009-0.018,0.026-0.03,0.029-0.05  c0.005-0.03-0.011-0.059-0.021-0.088c-0.008-0.018-0.002-0.036-0.014-0.053h-0.001c0,0,0-0.001,0-0.002l-1.886-2.515v-1.163  l0.285-0.935c0.01-0.03-0.002-0.057-0.008-0.085c-0.004-0.021,0.004-0.041-0.006-0.061l0,0l0,0l-2.014-3.788l-1.011-8.462  c-0.002-0.008-0.009-0.01-0.011-0.018s0.004-0.014,0.002-0.021l-0.742-2.198l-0.504-4.898l0.399-3.939  c0.001-0.007-0.005-0.012-0.005-0.02c0-0.005,0.005-0.009,0.005-0.016l-0.48-5.851c0-0.006-0.005-0.007-0.007-0.013  c0-0.006,0.004-0.01,0.004-0.016l-1.189-5.035l0.096-0.028c0.021-0.007,0.029-0.026,0.047-0.039c0.02-0.014,0.041-0.022,0.055-0.044  c0.014-0.021,0.013-0.043,0.018-0.069c0.004-0.02,0.018-0.037,0.015-0.058l-0.882-5.927L51.184,31.5l0.502,0.146l0.629,0.932  c0.004,0.005,0.011,0.003,0.015,0.008c0.035,0.044,0.083,0.076,0.144,0.076h1.122c0.04,0,0.079-0.012,0.114-0.039l0.09-0.067  l1.019,0.9l1.353,1.723c0.008,0.009,0.02,0.006,0.027,0.013c0.011,0.01,0.012,0.025,0.024,0.032l3.607,2.166  c0.003,0.002,0.007,0.001,0.011,0.003c0.003,0.001,0.003,0.005,0.006,0.006l9.449,4.418l0.535,0.611  c0.011,0.012,0.027,0.009,0.039,0.019c0.016,0.011,0.021,0.029,0.041,0.036l1.977,0.695c0.021,0.007,0.041,0.011,0.062,0.011h1.656  c0.02,0,0.037-0.003,0.057-0.009l0.832-0.252l1.393,0.334c0.014,0.003,0.029,0.005,0.044,0.005h0.829  c0.057,0,0.104-0.028,0.139-0.068c0.002-0.002,0.008-0.001,0.01-0.004l0.295-0.373c0.016-0.02,0.012-0.044,0.02-0.067  c0.002-0.012,0.011-0.022,0.012-0.035l0.626,0.265C77.885,42.994,77.91,43,77.935,43c0.028,0,0.058-0.006,0.085-0.02l0.428-0.212  c0.01-0.005,0.012-0.017,0.02-0.024c0.021-0.015,0.033-0.031,0.047-0.053c0.013-0.021,0.021-0.039,0.027-0.063  c0.001-0.011,0.012-0.018,0.012-0.03v-0.322c0-0.012-0.011-0.019-0.012-0.03c-0.006-0.025-0.015-0.042-0.027-0.064  c-0.014-0.021-0.026-0.038-0.047-0.052c-0.009-0.007-0.01-0.019-0.02-0.024l-0.404-0.198l0.762,0.28  c0.021,0.008,0.043,0.012,0.064,0.012c0.046,0,0.087-0.021,0.121-0.05c0.004-0.003,0.01-0.002,0.014-0.006l0.428-0.427  c0.014-0.014,0.012-0.035,0.021-0.051c0.013-0.023,0.026-0.041,0.028-0.066S79.473,41.553,79.465,41.529z M78.821,41.788  l-0.901-0.331c-0.006-0.002-0.012,0.002-0.018,0s-0.009-0.009-0.016-0.01l-1.229-0.213c-0.016-0.002-0.029,0.009-0.045,0.01  c-0.027,0.002-0.048,0.005-0.072,0.017c-0.021,0.011-0.033,0.025-0.049,0.043c-0.01,0.013-0.029,0.017-0.037,0.033  c-0.005,0.009,0,0.019-0.002,0.028c-0.003,0.009-0.014,0.014-0.016,0.023c-0.002,0.018,0.009,0.03,0.011,0.046  c0.002,0.026,0.004,0.046,0.016,0.068c0.011,0.023,0.027,0.036,0.046,0.052c0.013,0.011,0.017,0.029,0.031,0.037l1.631,0.801v0.085  l-0.244,0.122l-0.801-0.339c0,0-0.002,0-0.004,0c0,0-0.001-0.002-0.002-0.002l-0.909-0.347c-0.007-0.002-0.013,0.002-0.019,0  c-0.007-0.002-0.008-0.008-0.016-0.01l-0.882-0.161c-0.101-0.016-0.202,0.05-0.221,0.153c-0.019,0.103,0.05,0.202,0.154,0.221  l0.862,0.157l0.482,0.184c0.003,0.017,0.016,0.03,0.022,0.045c0.011,0.025,0.015,0.052,0.034,0.07c0,0.001,0,0.003,0.001,0.004  l0.163,0.148l-0.127,0.162h-0.716l-1.419-0.34c-0.02-0.005-0.033,0.007-0.051,0.007s-0.032-0.01-0.049-0.005l-0.855,0.259h-1.597  l-1.898-0.667l-0.528-0.604c-0.01-0.011-0.024-0.009-0.035-0.018c-0.012-0.008-0.014-0.023-0.027-0.029l-9.478-4.432l-3.567-2.142  l-1.342-1.709c-0.004-0.005-0.011-0.004-0.016-0.009c-0.004-0.004-0.002-0.012-0.008-0.016l-0.956-0.844l1.999-1.228  c0.008-0.006,0.009-0.017,0.018-0.024c0.006-0.005,0.016-0.004,0.023-0.011l0.926-1.02l1.811,1.365  c0.006,0.004,0.012,0.002,0.018,0.005c0.004,0.002,0.004,0.008,0.008,0.01l2.251,1.218l2.896,2.63  c0.002,0.002,0.006,0.001,0.01,0.003c0.002,0.002,0.002,0.007,0.005,0.009l3.981,2.912c0.008,0.006,0.018,0.004,0.025,0.008  c0.007,0.003,0.008,0.011,0.014,0.014l2.82,1.165l-0.523,0.466c-0.077,0.07-0.084,0.19-0.016,0.269  c0.039,0.042,0.09,0.063,0.143,0.063c0.045,0,0.091-0.016,0.126-0.048l0.714-0.637l3.268-0.816c0.004-0.001,0.006-0.006,0.011-0.008  c0.011-0.003,0.021-0.002,0.03-0.007l0.84-0.433h0.135l0.094,0.176l-0.359,0.359l-0.831,0.443l-0.69,0.344  c-0.012,0.005-0.012,0.017-0.021,0.023c-0.02,0.015-0.032,0.032-0.045,0.053c-0.014,0.021-0.022,0.039-0.027,0.064  c-0.002,0.011-0.012,0.018-0.012,0.029v0.409l-0.777,0.852l-1.249,0.57c-0.096,0.044-0.138,0.157-0.095,0.252  c0.033,0.07,0.102,0.111,0.174,0.111c0.027,0,0.053-0.005,0.078-0.017l1.283-0.586c0.014-0.006,0.018-0.022,0.029-0.03  c0.01-0.008,0.023-0.005,0.032-0.015l0.849-0.929v0l0.006-0.006c0.015-0.017,0.014-0.039,0.021-0.059  c0.01-0.023,0.029-0.042,0.029-0.069v-0.365l0.549-0.274h1.061l1.57,0.288l1.346,0.508l0.191,0.261l-0.055,0.11l-0.77-0.33  c-0.009-0.004-0.018,0.002-0.024,0c-0.009-0.002-0.013-0.011-0.021-0.013l-1.818-0.294c-0.107-0.02-0.201,0.053-0.217,0.157  c-0.018,0.104,0.053,0.201,0.157,0.218l1.794,0.29l0.863,0.37l0.28,0.411L78.821,41.788z M43.903,19.391l-1.5,0.839h-2.052  l-2.22-0.877l-0.912-1.062v-0.31l1.234-1.39c0.005-0.006,0.002-0.015,0.007-0.021c0.008-0.011,0.02-0.018,0.025-0.031l0.508-1.202  c0.005-0.013-0.002-0.025,0-0.038c0.003-0.014,0.015-0.022,0.015-0.036v-0.889l0.939-1.041c0.007-0.008,0.004-0.02,0.01-0.028  c0.01-0.015,0.025-0.025,0.03-0.042l0.267-0.856c0.002-0.009-0.003-0.016-0.002-0.025c0.004-0.025-0.001-0.045-0.007-0.07  c-0.005-0.025-0.009-0.045-0.024-0.065c-0.004-0.007-0.002-0.017-0.008-0.024l-0.566-0.617l-0.444-1.036l0.13-0.602l0.464-0.242  l0.692,0.23l0.967,0.794l0.251,0.955c0.002,0.006,0.008,0.009,0.01,0.016c0.002,0.005-0.002,0.01,0,0.015  c0.009,0.02,0.027,0.031,0.041,0.047c0.009,0.009,0.015,0.021,0.025,0.028c0.032,0.022,0.068,0.036,0.107,0.036  c0.016,0,0.033-0.002,0.048-0.006c0.003-0.001,0.004-0.005,0.007-0.006c0.007-0.002,0.016-0.002,0.023-0.005l0.587-0.267  c0.017-0.008,0.021-0.026,0.035-0.037c0.019-0.016,0.035-0.028,0.046-0.05c0.013-0.023,0.015-0.044,0.017-0.07  c0.002-0.017,0.014-0.029,0.011-0.047l-0.121-0.744l1.006-1.251L45.7,8.743l1.94-0.319c0.013-0.002,0.021-0.016,0.033-0.021  c0.02-0.007,0.041-0.007,0.058-0.021l0.323-0.269l-0.116,0.791l-0.529,0.653c0,0,0,0,0,0.001c-0.014,0.017-0.012,0.042-0.019,0.062  c-0.009,0.026-0.025,0.05-0.023,0.077v0l0.107,0.963c0.002,0.011,0.012,0.019,0.016,0.029c0.002,0.01-0.004,0.02,0.001,0.029  l0.855,1.866l-0.044,0.208l-0.753,0.259c-0.013,0.004-0.017,0.018-0.028,0.024c-0.019,0.011-0.031,0.024-0.046,0.041  c-0.018,0.021-0.029,0.04-0.037,0.067c-0.003,0.01-0.015,0.017-0.017,0.028l-0.15,1.469l-0.552,0.431  c-0.004,0.002-0.003,0.008-0.006,0.011c-0.019,0.017-0.024,0.04-0.036,0.063c-0.01,0.022-0.025,0.04-0.027,0.064  c0,0.004-0.004,0.007-0.004,0.012v0.493l-0.216,0.476l-0.917,0.313l-1.046,0.105c-0.026,0.003-0.042,0.022-0.063,0.033  c-0.021,0.012-0.045,0.016-0.062,0.033c-0.017,0.02-0.017,0.046-0.025,0.07c-0.006,0.021-0.023,0.038-0.021,0.062v0.01l0,0l0,0  l0.028,0.55c0,0.002,0.002,0.003,0.002,0.005c0,0.001-0.002,0.003-0.002,0.005l0.054,0.508c0,0.009,0.009,0.014,0.011,0.022  c0.002,0.008-0.003,0.015-0.002,0.022l0.204,0.567L43.903,19.391z M37.682,12.905l-0.781-2.631l0.234-2.498l0.958-2.126l1.805-1.649  l2.768-0.673l2.586,0.646l2.328,1.805l0.694,0.917v0.749L48.136,7.55c-0.001,0.001-0.001,0.003-0.002,0.004  c-0.002,0.001-0.003,0-0.004,0.001l-0.602,0.501l-1.9,0.313c-0.003,0-0.005,0.005-0.009,0.006c-0.004,0.001-0.007-0.003-0.012-0.001  l-2.217,0.641c-0.02,0.005-0.028,0.024-0.044,0.035c-0.017,0.011-0.038,0.012-0.052,0.028l-1.097,1.363  c-0.001,0.001,0,0.004-0.001,0.005c-0.015,0.019-0.013,0.044-0.02,0.067c-0.007,0.025-0.02,0.047-0.018,0.072  c0.001,0.001-0.001,0.003-0.001,0.005l0.111,0.684l-0.25,0.114l-0.21-0.797c-0.005-0.021-0.024-0.03-0.035-0.046  c-0.01-0.018-0.011-0.039-0.028-0.052l-1.042-0.855c-0.009-0.008-0.023-0.004-0.033-0.01c-0.011-0.006-0.015-0.019-0.027-0.023  l-0.802-0.267c-0.001,0-0.002,0-0.003,0c-0.022-0.007-0.047,0.004-0.072,0.006c-0.024,0.002-0.05-0.005-0.071,0.006  c-0.001,0-0.001,0-0.002,0l-0.614,0.321c-0.001,0.001-0.001,0.004-0.004,0.005c-0.024,0.014-0.037,0.04-0.053,0.064  c-0.012,0.018-0.03,0.031-0.035,0.052c-0.002,0.003-0.004,0.004-0.005,0.007l-0.162,0.748c-0.004,0.021,0.008,0.038,0.01,0.057  c0.002,0.02-0.007,0.039,0.001,0.058l0.481,1.123c0.006,0.013,0.018,0.02,0.026,0.031c0.005,0.007,0.003,0.016,0.008,0.023  l0.513,0.559l-0.222,0.713l-0.904,1.001h-0.141L37.682,12.905z M26.837,39.259l0.385,0.792l0.079,2.23  c0,0.015,0.013,0.024,0.017,0.038c0.003,0.014-0.004,0.027,0.002,0.04l0.087,0.175v0.751l-0.421,0.62c0,0.001,0,0.003,0,0.005  c-0.013,0.02-0.009,0.044-0.015,0.068c-0.004,0.026-0.017,0.049-0.011,0.074c0,0.001-0.002,0.003-0.001,0.004l0.123,0.523  l-0.17,0.876l-0.819,1.044l-1.18,0.436c-0.018,0.005-0.023,0.024-0.038,0.034c-0.015,0.01-0.034,0.012-0.046,0.027l-1.308,1.687  l-0.048-0.015l0.082-0.309l0.735-1.286c0.003-0.005,0-0.01,0.001-0.014c0.004-0.007,0.011-0.01,0.013-0.017l0.348-0.989  c0.003-0.011-0.004-0.021-0.002-0.033c0.002-0.012,0.013-0.02,0.013-0.03c0-0.017-0.013-0.026-0.017-0.041  c-0.005-0.024-0.012-0.042-0.026-0.063c-0.015-0.021-0.032-0.034-0.053-0.048c-0.013-0.007-0.017-0.022-0.032-0.028  c-0.011-0.004-0.021,0.004-0.032,0.002c-0.011-0.002-0.019-0.013-0.031-0.013H24.23c-0.016,0-0.026,0.013-0.04,0.017  c-0.015,0.004-0.029-0.003-0.042,0.003l-0.775,0.375c-0.013,0.006-0.016,0.021-0.026,0.029c-0.012,0.009-0.027,0.008-0.037,0.019  l-0.53,0.626h-0.409l-0.098-0.196l0.17-0.468l0.901-0.876l0.975-0.335c0.099-0.034,0.152-0.142,0.117-0.241  c-0.034-0.099-0.143-0.153-0.241-0.118l-1.015,0.349c-0.005,0.002-0.006,0.007-0.011,0.009c-0.005,0.003-0.011-0.001-0.016,0.002  l-0.224,0.117c-0.022-0.048-0.06-0.088-0.115-0.104c-0.099-0.031-0.206,0.027-0.235,0.127L22.5,45.398c0,0,0,0-0.001,0.001v0.002  c0,0.003,0.002,0.005,0.001,0.006c-0.001,0.003-0.003,0.004-0.004,0.007l-0.032,0.142l-0.296,0.114l-0.286-0.185v-0.302l0.595-0.644  l1.612-0.844h0.435c0.105,0,0.19-0.085,0.19-0.19c0-0.104-0.085-0.19-0.19-0.19h-0.481h-0.534c-0.021,0-0.036,0.016-0.055,0.022  c-0.02,0.007-0.042,0.002-0.059,0.016l-0.27,0.201h-0.354l-0.222-0.171v-0.201l0.709-0.433l1.251-0.261  c0.007-0.001,0.009-0.009,0.017-0.011c0.014-0.004,0.029-0.003,0.042-0.012l0.973-0.579l0.786-0.287  c0.014-0.005,0.019-0.021,0.03-0.028c0.022-0.014,0.037-0.026,0.052-0.047c0.015-0.021,0.021-0.04,0.026-0.064  c0.004-0.015,0.017-0.024,0.017-0.039v-0.775c0-0.01-0.009-0.017-0.011-0.026c-0.001-0.01,0.005-0.018,0.003-0.027l-0.247-0.836  l0.26-0.497H26.837z M25.928,40.185l0.143,0.488v0.616l-0.365,0.134L25.928,40.185z M30.81,40.256l-1.275,2.083l-2.147,1.883  l-0.041-0.174l0.406-0.599c0.011-0.017,0.006-0.036,0.011-0.054c0.006-0.019,0.022-0.032,0.022-0.052V42.49  c0-0.016-0.013-0.026-0.017-0.041c-0.003-0.015,0.004-0.03-0.003-0.043l-0.088-0.179L27.6,39.997c0-0.015-0.013-0.026-0.017-0.041  c-0.002-0.012,0.004-0.024-0.001-0.036l-0.455-0.935c-0.005-0.01-0.017-0.012-0.024-0.021c-0.015-0.021-0.03-0.034-0.053-0.047  c-0.021-0.013-0.038-0.022-0.062-0.026c-0.011-0.002-0.02-0.013-0.032-0.013h-0.614c-0.011,0-0.018,0.01-0.028,0.012  c-0.024,0.003-0.041,0.013-0.062,0.026c-0.023,0.014-0.041,0.025-0.057,0.046c-0.005,0.008-0.017,0.009-0.022,0.019l-0.044,0.086  l0.13-0.72l0.584-1.465h0.596l2.974,1.764c0.03,0.018,0.063,0.027,0.097,0.027c0.065,0,0.128-0.033,0.163-0.093  c0.054-0.09,0.024-0.207-0.066-0.26l-3.019-1.791c-0.015-0.009-0.032-0.002-0.048-0.007c-0.017-0.005-0.03-0.02-0.048-0.02h-0.464  l0.325-0.609l1.125,0.234l1.958,0.846c0.024,0.01,0.049,0.015,0.074,0.016c0,0,0,0,0.001,0l0,0l0,0l0,0  c0.009,0,0.018-0.001,0.027-0.002l0.718-0.103v1.074L30.81,40.256z M33.742,30.95c0.064,0,0.111-0.036,0.146-0.084  c0.004-0.006,0.015-0.004,0.019-0.01l0.193-0.33l-0.189,0.575c0,0,0,0.001,0,0.001c-0.007,0.023,0.004,0.048,0.006,0.073  s-0.006,0.05,0.005,0.072c0,0,0,0.001,0,0.001l0.263,0.501l-0.251,1.219v-0.953c0-0.018-0.015-0.029-0.019-0.045  s0.003-0.032-0.005-0.046l-0.539-0.974H33.742z M33.51,92.891c0.036,0.031,0.081,0.047,0.125,0.047h2.484  c0.014,0,0.028-0.002,0.043-0.005l1.606-0.364l0.375,0.902l-0.23,2.748l-0.634,0.678l-0.567-0.285c-0.015-0.008-0.03,0-0.044-0.004  c-0.015-0.003-0.025-0.018-0.041-0.018h-1.497c-0.014,0-0.022,0.014-0.035,0.016c-0.013,0.004-0.026-0.005-0.039,0.001l-0.72,0.304  l-1.03-0.867l-0.253-1.979l0.274-1.334L33.51,92.891z M37.586,97.781l-2.4,0.328l-1.911-0.854l-0.516-1.33l0.06-0.697l0.119,0.929  c0,0.001,0,0.001,0,0.001l0.001,0.008c0.006,0.048,0.031,0.088,0.065,0.118c0.001,0.001,0.001,0.002,0.001,0.002l1.176,0.989  c0.003,0.004,0.007,0.002,0.011,0.004c0.032,0.024,0.07,0.041,0.111,0.041c0.024,0,0.05-0.006,0.074-0.016l0.791-0.334h1.416  l0.653,0.328c0.028,0.016,0.057,0.021,0.085,0.021c0.046,0,0.087-0.023,0.122-0.053c0.005-0.006,0.011-0.004,0.017-0.008  l0.775-0.829c0.012-0.013,0.009-0.031,0.018-0.047c0.012-0.021,0.031-0.04,0.033-0.065l0.102-1.22l0.178,1.212L37.586,97.781z   M52.207,91.543c0.007,0.012,0.023,0.008,0.032,0.018c0.018,0.018,0.028,0.043,0.053,0.053l0.548,0.224H52.15l-0.852-0.878v-0.768  L52.207,91.543z M54.773,92.654c0.025,0.011,0.051,0.016,0.076,0.016c0.017,0,0.035-0.002,0.051-0.006l1.174-0.325l2.146,1.37  c0.014,0.01,0.031,0.01,0.048,0.014c0.007,0.003,0.011,0.012,0.019,0.012l3.874,0.75c0.013,0.002,0.024,0.004,0.036,0.004  c0.02,0,0.04-0.004,0.061-0.012l1.363-0.454c0.008-0.004,0.01-0.013,0.018-0.016c0.028-0.015,0.05-0.034,0.068-0.06  c0.01-0.012,0.019-0.021,0.023-0.034c0.004-0.007,0.01-0.009,0.012-0.017l0.293-0.987c0.008-0.022-0.004-0.044-0.006-0.067  c-0.002-0.024,0.006-0.049-0.007-0.074l-0.284-0.555l0.206,0.076l0.548,0.81v1.083l-1.086,0.566h-3.024l-2.909-0.926  c-0.006-0.002-0.012,0.004-0.018,0.002s-0.009-0.008-0.014-0.01l-2.352-0.32c-0.006,0-0.01,0.004-0.013,0.004  c-0.006,0-0.009-0.006-0.013-0.006h-2.129l-2.116-0.857l-0.285-1.326l0.384-0.704v0.433c0,0.027,0.019,0.049,0.031,0.073  c0.008,0.02,0.007,0.042,0.023,0.059l0.002,0.001l0,0l0.96,0.988c0.001,0.002,0.001,0,0.001,0.002  c0.035,0.035,0.082,0.057,0.136,0.057h1.696L54.773,92.654z M57.434,91.996c0.01-0.002,0.014-0.013,0.023-0.017  c0.016-0.005,0.031-0.005,0.045-0.015l1.945-1.459l3.762,1.51l0.44,0.858l-0.243,0.819l-1.221,0.408l-3.791-0.732l-1.816-1.16  L57.434,91.996z M54.098,61.776l-0.399,3.94c-0.001,0.007,0.006,0.012,0.006,0.02c0,0.007-0.006,0.012-0.006,0.018l0.509,4.943  c0.002,0.01,0.01,0.014,0.011,0.021s-0.003,0.015-0.001,0.021l0.74,2.198l1.013,8.477c0.001,0.014,0.014,0.021,0.019,0.033  c0.004,0.012-0.003,0.023,0.002,0.034l1.994,3.751l-0.271,0.888c-0.003,0.009,0.003,0.019,0.003,0.028  c-0.002,0.011-0.012,0.016-0.012,0.027v1.254c0,0.021,0.018,0.035,0.023,0.057c0.006,0.018,0.002,0.04,0.015,0.057l1.81,2.413  l-0.246,0.181c0,0,0,0-0.001,0c0,0,0,0-0.001,0l-2.001,1.502l-1.239,0.31c0,0,0,0-0.002,0l-0.004,0.001c0,0,0,0-0.002,0h-0.002  l-1.191,0.329l-0.979-0.427c-0.001,0-0.001,0.001-0.003,0c0,0,0,0,0-0.001l-1.391-0.567l-1.213-1.807l-0.448-1.068l0.382-1.27  c0.005-0.019-0.006-0.035-0.006-0.054s0.012-0.034,0.006-0.054l-1.786-6.29l-0.479-4.339c-0.001-0.005-0.007-0.008-0.008-0.012  c0-0.006,0.004-0.01,0.002-0.016l-0.955-3.664v-1.659c0-0.011-0.01-0.018-0.012-0.028c-0.001-0.011,0.006-0.02,0.002-0.031  l-3.523-10.678l0.988-1.445c0.059-0.088,0.037-0.205-0.049-0.264c-0.087-0.06-0.206-0.038-0.265,0.049l-1.041,1.522c0,0,0,0,0,0.001  c-0.001,0.001-0.001,0-0.001,0.001l-2.7,4.034c-0.006,0.007-0.002,0.018-0.006,0.025c-0.003,0.01-0.015,0.014-0.019,0.022  l-2.484,7.909c-0.004,0.016,0.005,0.028,0.004,0.045c-0.001,0.014-0.012,0.025-0.009,0.04l0.449,3.066l-0.928,4.294  c-0.002,0.011,0.006,0.018,0.006,0.029c-0.001,0.01-0.01,0.019-0.009,0.029l0.929,9.529l-0.635,1.041  c-0.005,0.008-0.001,0.018-0.005,0.026c-0.003,0.009-0.014,0.013-0.017,0.022l-0.479,1.787l-0.343,0.082c-0.001,0-0.001,0-0.002,0  L36.1,92.557h-2.394l-0.371-0.324l-0.373-0.35l-0.474-5.377c0-0.006-0.007-0.01-0.008-0.015c0-0.006,0.004-0.011,0.002-0.016  l-0.66-2.587l1.012-11.029c0-0.004-0.002-0.006-0.002-0.009s0.003-0.005,0.003-0.009v-4.186l1.014-8.912  c0.001-0.013-0.009-0.021-0.01-0.033c-0.001-0.013,0.008-0.023,0.004-0.035l-0.979-3.736l0.375-4.648l1.08,0.584  c0.014,0.008,0.03,0.008,0.044,0.012c0.006,0.002,0.008,0.008,0.014,0.01l6.974,1.174c0.01,0.002,0.021,0.004,0.032,0.004l0,0l0,0  l0,0l0,0c0.007,0,0.015-0.001,0.022-0.002l8.55-0.99c0.003,0,0.005-0.004,0.009-0.006c0.015-0.002,0.031-0.002,0.045-0.01  l2.435-1.082l1.176,4.976L54.098,61.776z"
     id="path13" /></svg>
