<?xml version="1.0" encoding="UTF-8" standalone="no"?>
<svg
   version="1.1"
   x="0px"
   y="0px"
   viewBox="0 0 57.981239 95.547874"
   enable-background="new 0 0 100 100"
   xml:space="preserve"
   id="svg19"
   sodipodi:docname="noun-man.svg"
   inkscape:version="1.1 (c4e8f9e, 2021-05-24)"
   width="57.981239"
   height="95.547874"
   xmlns:inkscape="http://www.inkscape.org/namespaces/inkscape"
   xmlns:sodipodi="http://sodipodi.sourceforge.net/DTD/sodipodi-0.dtd"
   xmlns="http://www.w3.org/2000/svg"
   xmlns:svg="http://www.w3.org/2000/svg"><defs
     id="defs23" /><sodipodi:namedview
     id="namedview21"
     pagecolor="#ffffff"
     bordercolor="#666666"
     borderopacity="1.0"
     inkscape:pageshadow="2"
     inkscape:pageopacity="0.0"
     inkscape:pagecheckerboard="true"
     showgrid="false"
     inkscape:zoom="5.688"
     inkscape:cx="28.568917"
     inkscape:cy="59.511252"
     inkscape:window-width="1312"
     inkscape:window-height="907"
     inkscape:window-x="0"
     inkscape:window-y="112"
     inkscape:window-maximized="0"
     inkscape:current-layer="svg19"
     fit-margin-top="0"
     fit-margin-left="0"
     fit-margin-right="0"
     fit-margin-bottom="0" /><path
     fill="#000000"
     d="m 23.533,6.8918757 1.309,-0.153 0.584,0.126 c 0.013,0.003 0.027,0.005 0.04,0.005 0.042,0 0.083,-0.015 0.116,-0.041 0.011,-0.009 0.015,-0.025 0.024,-0.037 0.017,-0.02 0.035,-0.036 0.042,-0.062 l 0.053,-0.188 c 0,0 0,0 0,0 0,0 0,0 0,-0.001 0.007,-0.025 -0.006,-0.048 -0.009,-0.072 -0.003,-0.024 0.003,-0.05 -0.009,-0.071 -0.015,-0.026 -0.044,-0.038 -0.07,-0.055 -0.016,-0.01 -0.024,-0.029 -0.042,-0.034 -0.001,0 -0.001,0 -0.001,0 -0.001,0 -0.001,0 -0.001,0 l -0.881,-0.24 c -0.013,-0.004 -0.025,0.005 -0.038,0.005 -0.013,-0.001 -0.023,-0.011 -0.036,-0.01 l -1.015,0.134 c -0.016,0.002 -0.024,0.016 -0.038,0.021 -0.014,0.005 -0.029,0 -0.043,0.009 l -0.881,0.587 c -0.015,0.01 -0.017,0.029 -0.028,0.042 -0.017,0.02 -0.032,0.035 -0.039,0.059 -0.008,0.023 -0.005,0.044 -0.003,0.069 0.001,0.018 -0.009,0.035 -0.003,0.052 0.003,0.009 0.012,0.014 0.018,0.022 0.003,0.006 0,0.013 0.004,0.019 0.003,0.007 0.013,0.004 0.018,0.01 0.036,0.043 0.083,0.075 0.14,0.075 0.021,0 0.042,-0.004 0.064,-0.011 z"
     id="path9" /><path
     fill="#000000"
     d="m 24.985,7.0758757 h -0.134 -1.202 c -0.008,0 -0.013,0.008 -0.022,0.009 -0.024,0.002 -0.041,0.015 -0.063,0.026 -0.022,0.012 -0.042,0.021 -0.058,0.042 -0.005,0.006 -0.015,0.006 -0.019,0.013 -0.009,0.016 -0.003,0.034 -0.008,0.051 -0.005,0.018 -0.021,0.03 -0.021,0.049 0,0.008 0.008,0.014 0.008,0.021 0.004,0.024 0.015,0.042 0.027,0.063 0.012,0.022 0.021,0.042 0.042,0.059 0.006,0.005 0.006,0.014 0.013,0.018 l 0.348,0.215 c 0.012,0.008 0.025,0.007 0.038,0.011 0.006,0.003 0.009,0.011 0.017,0.013 l 0.748,0.186 c 0.017,0.003 0.031,0.005 0.046,0.005 0.042,0 0.083,-0.014 0.115,-0.039 0.011,-0.008 0.013,-0.022 0.022,-0.032 0.019,-0.021 0.039,-0.041 0.046,-0.07 v -0.002 c 10e-4,0 10e-4,0 10e-4,0 v 0 l 0.069,-0.262 c 0.097,-0.008 0.175,-0.085 0.175,-0.184 0.002,-0.107 -0.083,-0.192 -0.188,-0.192 z"
     id="path11" /><path
     fill="#000000"
     d="m 57.964,38.582876 c -0.005,-0.019 0,-0.038 -0.011,-0.055 l -0.337,-0.495 0.137,-0.274 c 0.004,-0.01 -0.002,-0.02 0.002,-0.03 0.008,-0.024 0.006,-0.044 0.004,-0.069 -0.002,-0.025 -0.004,-0.045 -0.016,-0.068 -0.006,-0.009 -0.002,-0.02 -0.007,-0.029 l -0.294,-0.4 c -0.012,-0.017 -0.031,-0.018 -0.048,-0.029 -0.014,-0.011 -0.021,-0.03 -0.038,-0.037 l -1.416,-0.535 c -0.006,-0.002 -0.012,0.002 -0.018,0 -0.006,-0.002 -0.009,-0.008 -0.016,-0.01 l -1.604,-0.294 c -0.006,-0.001 -0.01,0.004 -0.018,0.004 -0.006,0 -0.01,-0.007 -0.016,-0.007 h -0.359 l 0.183,-0.097 c 0.009,-0.005 0.011,-0.016 0.019,-0.023 0.008,-0.005 0.02,-0.003 0.026,-0.011 l 0.48,-0.479 c 0.012,-0.012 0.011,-0.029 0.019,-0.042 0.013,-0.022 0.023,-0.04 0.027,-0.065 0.003,-0.025 -0.002,-0.044 -0.007,-0.069 -0.004,-0.016 0.003,-0.032 -0.005,-0.047 l -0.213,-0.401 c -0.005,-0.009 -0.016,-0.01 -0.023,-0.018 -0.016,-0.021 -0.031,-0.032 -0.055,-0.045 -0.021,-0.012 -0.038,-0.022 -0.062,-0.026 -0.01,-0.002 -0.017,-0.012 -0.027,-0.012 h -0.295 c -0.018,0 -0.027,0.014 -0.043,0.018 -0.016,0.004 -0.029,-0.003 -0.045,0.004 l -0.861,0.444 -3.23,0.807 -3.02,-1.249 -3.958,-2.895 -2.902,-2.637 c -0.007,-0.005 -0.016,-0.003 -0.022,-0.008 -0.007,-0.005 -0.007,-0.014 -0.015,-0.019 l -2.258,-1.221 -1.778,-1.341 0.188,-0.221 c 0.009,-0.009 0.006,-0.021 0.012,-0.031 0.014,-0.021 0.018,-0.042 0.021,-0.067 0.004,-0.025 0.004,-0.045 -0.002,-0.07 -0.003,-0.011 0.004,-0.022 -0.001,-0.033 l -1.87,-4.194 c -0.004,-0.007 -0.012,-0.008 -0.016,-0.015 -0.004,-0.006 -0.002,-0.014 -0.005,-0.021 l -3.849,-5.183 c -0.008,-0.01 -0.02,-0.01 -0.029,-0.018 -0.008,-0.008 -0.01,-0.022 -0.02,-0.029 l -2.618,-1.685 c -0.01,-0.007 -0.023,-0.002 -0.034,-0.007 -0.011,-0.004 -0.017,-0.017 -0.03,-0.02 l -4.398,-0.931 -0.012,-0.233 0.889,-0.089 c 0.002,0 0.003,-0.003 0.006,-0.003 0.012,-10e-4 0.024,-0.002 0.036,-0.006 l 1.016,-0.347 c 0.006,-0.002 0.007,-0.009 0.013,-0.012 0.036,-0.016 0.066,-0.04 0.086,-0.075 0.003,-0.005 0.007,-0.007 0.01,-0.012 0.001,-10e-4 0.002,-0.002 0.002,-0.003 l 0.268,-0.588 c 0.005,-0.014 -0.002,-0.027 10e-4,-0.041 0.002,-0.014 0.016,-0.023 0.016,-0.038 v -0.441 l 0.542,-0.424 c 0.002,-10e-4 0.002,-0.004 0.004,-0.005 0.028,-0.023 0.041,-0.058 0.052,-0.093 0.004,-0.011 0.014,-0.019 0.015,-0.03 0,-10e-4 0.002,-10e-4 0.002,-0.002 l 0.146,-1.429 0.74,-0.254 c 0.01,-0.003 0.013,-0.014 0.021,-0.018 0.026,-0.014 0.044,-0.032 0.062,-0.055 0.011,-0.016 0.021,-0.027 0.028,-0.044 0.003,-0.009 0.011,-0.013 0.013,-0.022 l 0.08,-0.3740003 c 0.005,-0.022 -0.008,-0.04 -0.011,-0.06 -0.002,-0.02 0.007,-0.04 -0.002,-0.059 l -0.868,-1.896 -0.096,-0.854 0.512,-0.632 c 0.01,-0.012 0.006,-0.027 0.012,-0.041 0.009,-0.018 0.025,-0.031 0.028,-0.051 l 0.133,-0.909 c 10e-4,-0.005 -0.003,-0.009 -0.002,-0.014 0,-0.005 0.005,-0.008 0.005,-0.014 v -0.28 l 0.138,-0.104 c 0.004,-0.003 0.003,-0.009 0.007,-0.012 0.019,-0.016 0.025,-0.039 0.036,-0.062 0.011,-0.022 0.026,-0.041 0.027,-0.065 0.001,-0.005 0.005,-0.008 0.005,-0.013 v -0.907 c 0,-0.022 -0.017,-0.037 -0.023,-0.057 -0.007,-0.02 -0.002,-0.041 -0.015,-0.058 l -0.747,-0.988 c -0.006,-0.007 -0.017,-0.007 -0.023,-0.014 -0.007,-0.006 -0.005,-0.016 -0.013,-0.022 L 23.953,0.70287574 c -0.012,-0.009 -0.027,-0.004 -0.04,-0.01 -0.012,-0.006 -0.018,-0.02 -0.03,-0.023 l -2.672,-0.668 c -0.017,-0.004 -0.031,0.006 -0.046,0.006 -0.016,0 -0.029,-0.011 -0.045,-0.007 L 18.261,0.69687574 c -0.018,0.004 -0.025,0.021 -0.039,0.028 -0.015,0.008 -0.032,0.005 -0.044,0.016 L 16.307,2.4498757 c -0.01,0.009 -0.009,0.024 -0.017,0.035 -0.008,0.011 -0.022,0.014 -0.028,0.027 l -0.989,2.192 c -0.004,0.01 10e-4,0.02 0,0.031 -0.004,0.011 -0.015,0.018 -0.016,0.03 l -0.24,2.565 c -10e-4,0.013 0.009,0.022 0.011,0.035 10e-4,0.013 -0.007,0.024 -0.004,0.037 l 0.802,2.6980003 c 0.004,0.014 0.017,0.021 0.023,0.034 0.004,0.008 0,0.019 0.006,0.026 l 0.989,1.31 c 0.004,0.003 0.009,0.002 0.012,0.005 0.034,0.042 0.083,0.07 0.14,0.07 h 0.13 v 0.733 l -0.479,1.137 -1.239,1.394 -3.683,1.906 c -0.006,0.003 -0.007,0.012 -0.013,0.016 -0.006,0.004 -0.015,0.001 -0.02,0.006 l -3.232,2.646 c -0.013,0.011 -0.012,0.028 -0.022,0.041 -0.009,0.013 -0.026,0.018 -0.033,0.034 l -0.881,2.137 c -0.004,0.008 0.002,0.017 0,0.026 -0.003,0.009 -0.012,0.012 -0.013,0.021 l -0.585,4.419 -1.732,5.865 c -0.007,0.024 0.005,0.046 0.007,0.07 0.002,0.023 -0.006,0.046 0.004,0.068 l 0.33,0.662 -0.381,0.715 c -0.001,10e-4 0,0.002 0,0.003 -0.001,0 -0.001,0 -0.002,10e-4 l -0.108,0.213 c -10e-4,0.003 0.001,0.006 -10e-4,0.009 0,0.003 -0.004,0.003 -0.005,0.006 l -0.64,1.604 c -0.003,0.006 0.002,0.013 0,0.019 -0.002,0.007 -0.009,0.01 -0.011,0.018 l -0.599,3.334 -0.889,0.529 -1.251,0.261 c -0.012,0.002 -0.017,0.015 -0.028,0.019 -0.01,0.004 -0.022,-10e-4 -0.032,0.005 l -0.829,0.506 c -0.006,0.004 -0.007,0.014 -0.014,0.019 -0.02,0.016 -0.029,0.035 -0.041,0.058 -0.013,0.021 -0.024,0.04 -0.027,0.064 -0.001,0.008 -0.009,0.013 -0.009,0.022 v 0.4 c 0,0.005 0.004,0.008 0.004,0.012 0.002,0.025 0.017,0.043 0.028,0.066 0.011,0.022 0.017,0.045 0.036,0.061 0.003,0.003 0.002,0.009 0.006,0.012 l 0.347,0.267 c 0.034,0.026 0.075,0.04 0.116,0.04 h 0.106 l -0.541,0.284 c -0.01,0.005 -0.012,0.018 -0.021,0.025 -0.009,0.007 -0.022,0.005 -0.03,0.014 l -0.668,0.722 c -0.017,0.019 -0.015,0.042 -0.023,0.063 -0.01,0.022 -0.028,0.041 -0.028,0.067 v 0.48 c 0,0.007 0.007,0.011 0.008,0.019 0.002,0.026 0.015,0.042 0.026,0.065 0.013,0.022 0.021,0.042 0.041,0.058 0.005,0.005 0.005,0.013 0.012,0.018 l 0.452,0.29 c 0,10e-4 0,10e-4 0,10e-4 l 0.003,0.002 c 0.016,0.009 0.032,0.009 0.049,0.015 l -0.204,0.562 c -0.001,0 0,0.002 0,0.002 -0.008,0.023 0.002,0.047 0.003,0.071 0.001,0.025 -0.005,0.051 0.004,0.073 0.001,0 0,0.002 0,0.002 l 0.188,0.375 c 0.006,0.013 0.019,0.021 0.027,0.031 0.008,0.01 0.015,0.018 0.025,0.027 0.033,0.028 0.073,0.048 0.118,0.048 h 0.615 c 0.056,0 0.103,-0.025 0.137,-0.063 0.002,-0.002 0.005,-0.002 0.007,-0.004 l 0.562,-0.664 0.614,-0.297 -0.238,0.679 -0.74,1.292 c -0.004,0.007 0,0.017 -0.003,0.024 -0.003,0.009 -0.014,0.013 -0.016,0.022 l -0.134,0.508 c -0.006,0.024 0.007,0.046 0.009,0.071 0.004,0.024 -0.002,0.048 0.009,0.068 0.013,0.022 0.038,0.032 0.059,0.048 0.018,0.013 0.028,0.035 0.051,0.042 l 0.347,0.107 c 0.019,0.006 0.038,0.008 0.057,0.008 0.053,0 0.097,-0.027 0.132,-0.065 0.005,-0.004 0.014,-0.002 0.019,-0.008 l 1.355,-1.748 1.179,-0.435 c 0.021,-0.008 0.029,-0.029 0.045,-0.042 0.012,-0.009 0.029,-0.006 0.038,-0.019 l 0.881,-1.122 c 0.008,-0.01 0.004,-0.024 0.01,-0.036 0.009,-0.016 0.023,-0.026 0.027,-0.044 l 0.175,-0.899 2.355,-2.068 c 0.01,-0.008 0.008,-0.022 0.016,-0.032 0.005,-0.007 0.017,-0.004 0.021,-0.012 l 1.308,-2.138 c 0.005,-0.009 0.002,-0.02 0.005,-0.029 0.005,-0.013 0.017,-0.02 0.02,-0.034 l 0.455,-2.352 c 0.001,-0.007 -0.004,-0.012 -0.003,-0.018 0,-0.007 0.007,-0.011 0.007,-0.018 v -1.149 l 1.124,-0.186 c 0.056,-0.009 0.098,-0.044 0.126,-0.088 0.002,-0.003 0.005,-0.002 0.007,-0.004 l 0.394,-0.688 v 3.292 c 0,0.006 0.006,0.01 0.007,0.017 0,0.006 -0.005,0.011 -0.004,0.017 l 0.767,4.231 -1.03,3.591 c -0.002,0.005 0.003,0.009 0.002,0.014 -10e-4,0.005 -0.007,0.007 -0.008,0.011 l -0.534,3.715 c -0.002,0.015 0.009,0.026 0.011,0.041 0.002,0.025 0.005,0.044 0.017,0.067 0.011,0.023 0.025,0.038 0.044,0.055 0.011,0.009 0.013,0.024 0.027,0.032 l 0.291,0.155 -0.391,4.846 c -0.001,0.011 0.008,0.02 0.01,0.031 10e-4,0.011 -0.007,0.02 -0.004,0.031 l 0.979,3.733 -1.011,8.89 c 0,0.004 0.004,0.006 0.004,0.01 0,0.005 -0.005,0.007 -0.005,0.01 v 4.188 l -1.014,11.052 c 0,0.012 0.009,0.02 0.009,0.031 0.002,0.013 -0.007,0.021 -0.003,0.033 l 0.664,2.604 0.479,5.434 c 0.003,0.037 0.025,0.067 0.047,0.096 0.006,0.008 0.004,0.02 0.012,0.026 l 0.339,0.317 -0.415,1.248 c -0.002,0.008 0.003,0.015 10e-4,0.021 -10e-4,0.009 -0.009,0.014 -0.01,0.023 l -0.187,2.217 c -0.002,0.016 0.011,0.027 0.013,0.041 0.002,0.015 -0.006,0.029 -10e-4,0.044 l 0.561,1.444 c 0.018,0.044 0.051,0.074 0.09,0.094 0.005,0.002 0.006,0.008 0.009,0.01 l 2.032,0.909 c 0.025,0.011 0.051,0.016 0.077,0.017 0,0 0,0 10e-4,0 v 0 0 0 c 0.009,0 0.018,-0.002 0.026,-0.002 l 2.538,-0.349 c 0.055,-0.008 0.099,-0.038 0.127,-0.08 0.001,-0.002 0.003,-0.001 0.004,-0.003 l 1.069,-1.604 c 0.015,-0.021 0.009,-0.045 0.014,-0.068 0.004,-0.021 0.019,-0.041 0.016,-0.063 l -0.429,-2.913 c -10e-4,-0.01 -0.009,-0.014 -0.012,-0.022 -0.001,-0.007 0.003,-0.015 0,-0.022 l -0.368,-0.889 0.237,-0.057 c 0.01,-0.002 0.015,-0.014 0.024,-0.018 0.028,-0.012 0.05,-0.027 0.069,-0.05 0.012,-0.015 0.02,-0.025 0.027,-0.041 0.006,-0.011 0.016,-0.017 0.019,-0.028 l 0.501,-1.869 0.654,-1.071 c 0.011,-0.019 0.004,-0.039 0.009,-0.06 0.004,-0.02 0.02,-0.036 0.018,-0.057 l -0.932,-9.565 0.928,-4.298 c 0.003,-0.013 -0.006,-0.021 -0.005,-0.033 0,-0.013 0.009,-0.021 0.007,-0.034 l -0.447,-3.056 2.463,-7.844 2.468,-3.688 3.421,10.369 v 1.652 c 0,0.01 0.008,0.016 0.01,0.023 0.001,0.008 -0.005,0.016 -0.004,0.024 l 0.958,3.675 0.48,4.342 c 0,0.006 0.007,0.009 0.008,0.015 0.001,0.005 -0.004,0.011 -0.002,0.017 l 1.775,6.252 -0.385,1.283 c -0.006,0.021 0.005,0.041 0.006,0.061 10e-4,0.023 -0.009,0.045 0,0.067 l 0.467,1.111 v 0.21 l -0.751,1.372 c -0.011,0.021 -0.004,0.044 -0.007,0.067 -0.003,0.021 -0.017,0.041 -0.011,0.063 l 0.321,1.495 c 0.002,0.008 0.009,0.012 0.01,0.018 0.006,0.018 0.017,0.029 0.028,0.044 0.017,0.024 0.034,0.044 0.059,0.058 0.007,0.006 0.009,0.015 0.018,0.019 l 2.243,0.909 c 0.023,0.01 0.048,0.013 0.071,0.013 h 2.153 l 2.322,0.317 2.923,0.93 c 0.018,0.006 0.039,0.01 0.057,0.01 h 3.1 c 0.029,0 0.059,-0.007 0.087,-0.021 l 1.229,-0.642 c 0.01,-0.005 0.012,-0.017 0.02,-0.022 0.021,-0.015 0.033,-0.032 0.046,-0.054 0.013,-0.022 0.022,-0.04 0.026,-0.065 0.002,-0.009 0.012,-0.016 0.012,-0.027 v -1.256 c 0,-0.021 -0.016,-0.034 -0.021,-0.053 -0.006,-0.018 0,-0.038 -0.012,-0.055 l -0.615,-0.908 c -0.012,-0.016 -0.033,-0.02 -0.049,-0.031 -0.016,-0.013 -0.023,-0.032 -0.042,-0.039 l -0.716,-0.266 v 0 l -3.611,-1.448 0.125,-0.093 v 0 c 0.001,0 0.001,0 0.002,0 0.025,-0.02 0.031,-0.049 0.044,-0.075 0.009,-0.018 0.026,-0.03 0.029,-0.05 0.005,-0.03 -0.011,-0.059 -0.021,-0.088 -0.008,-0.018 -0.002,-0.036 -0.014,-0.053 h -10e-4 c 0,0 0,-0.001 0,-0.002 l -1.886,-2.515 v -1.163 l 0.285,-0.935 c 0.01,-0.03 -0.002,-0.057 -0.008,-0.085 -0.004,-0.021 0.004,-0.041 -0.006,-0.061 v 0 0 l -2.014,-3.788 -1.011,-8.462 c -0.002,-0.008 -0.009,-0.01 -0.011,-0.018 -0.002,-0.008 0.004,-0.014 0.002,-0.021 l -0.742,-2.198 -0.504,-4.898 0.399,-3.939 c 0.001,-0.007 -0.005,-0.012 -0.005,-0.02 0,-0.005 0.005,-0.009 0.005,-0.016 l -0.48,-5.851 c 0,-0.006 -0.005,-0.007 -0.007,-0.013 0,-0.006 0.004,-0.01 0.004,-0.016 l -1.189,-5.035 0.096,-0.028 c 0.021,-0.007 0.029,-0.026 0.047,-0.039 0.02,-0.014 0.041,-0.022 0.055,-0.044 0.014,-0.021 0.013,-0.043 0.018,-0.069 0.004,-0.02 0.018,-0.037 0.015,-0.058 l -0.882,-5.927 -0.971,-13.179 0.502,0.146 0.629,0.932 c 0.004,0.005 0.011,0.003 0.015,0.008 0.035,0.044 0.083,0.076 0.144,0.076 h 1.122 c 0.04,0 0.079,-0.012 0.114,-0.039 l 0.09,-0.067 1.019,0.9 1.353,1.723 c 0.008,0.009 0.02,0.006 0.027,0.013 0.011,0.01 0.012,0.025 0.024,0.032 l 3.607,2.166 c 0.003,0.002 0.007,10e-4 0.011,0.003 0.003,10e-4 0.003,0.005 0.006,0.006 l 9.449,4.418 0.535,0.611 c 0.011,0.012 0.027,0.009 0.039,0.019 0.016,0.011 0.021,0.029 0.041,0.036 l 1.977,0.695 c 0.021,0.007 0.041,0.011 0.062,0.011 h 1.656 c 0.02,0 0.037,-0.003 0.057,-0.009 l 0.832,-0.252 1.393,0.334 c 0.014,0.003 0.029,0.005 0.044,0.005 h 0.829 c 0.057,0 0.104,-0.028 0.139,-0.068 0.002,-0.002 0.008,-10e-4 0.01,-0.004 l 0.295,-0.373 c 0.016,-0.02 0.012,-0.044 0.02,-0.067 0.002,-0.012 0.011,-0.022 0.012,-0.035 l 0.626,0.265 c 0.022,0.009 0.047,0.015 0.072,0.015 0.028,0 0.058,-0.006 0.085,-0.02 l 0.428,-0.212 c 0.01,-0.005 0.012,-0.017 0.02,-0.024 0.021,-0.015 0.033,-0.031 0.047,-0.053 0.013,-0.021 0.021,-0.039 0.027,-0.063 0.001,-0.011 0.012,-0.018 0.012,-0.03 v -0.322 c 0,-0.012 -0.011,-0.019 -0.012,-0.03 -0.006,-0.025 -0.015,-0.042 -0.027,-0.064 -0.014,-0.021 -0.026,-0.038 -0.047,-0.052 -0.009,-0.007 -0.01,-0.019 -0.02,-0.024 l -0.404,-0.198 0.762,0.28 c 0.021,0.008 0.043,0.012 0.064,0.012 0.046,0 0.087,-0.021 0.121,-0.05 0.004,-0.003 0.01,-0.002 0.014,-0.006 l 0.428,-0.427 c 0.014,-0.014 0.012,-0.035 0.021,-0.051 0.013,-0.023 0.026,-0.041 0.028,-0.066 0.002,-0.025 -0.009,-0.047 -0.017,-0.071 z m -0.644,0.259 -0.901,-0.331 c -0.006,-0.002 -0.012,0.002 -0.018,0 -0.006,-0.002 -0.009,-0.009 -0.016,-0.01 l -1.229,-0.213 c -0.016,-0.002 -0.029,0.009 -0.045,0.01 -0.027,0.002 -0.048,0.005 -0.072,0.017 -0.021,0.011 -0.033,0.025 -0.049,0.043 -0.01,0.013 -0.029,0.017 -0.037,0.033 -0.005,0.009 0,0.019 -0.002,0.028 -0.003,0.009 -0.014,0.014 -0.016,0.023 -0.002,0.018 0.009,0.03 0.011,0.046 0.002,0.026 0.004,0.046 0.016,0.068 0.011,0.023 0.027,0.036 0.046,0.052 0.013,0.011 0.017,0.029 0.031,0.037 l 1.631,0.801 v 0.085 l -0.244,0.122 -0.801,-0.339 c 0,0 -0.002,0 -0.004,0 0,0 -0.001,-0.002 -0.002,-0.002 l -0.909,-0.347 c -0.007,-0.002 -0.013,0.002 -0.019,0 -0.007,-0.002 -0.008,-0.008 -0.016,-0.01 l -0.882,-0.161 c -0.101,-0.016 -0.202,0.05 -0.221,0.153 -0.019,0.103 0.05,0.202 0.154,0.221 l 0.862,0.157 0.482,0.184 c 0.003,0.017 0.016,0.03 0.022,0.045 0.011,0.025 0.015,0.052 0.034,0.07 0,10e-4 0,0.003 0.001,0.004 l 0.163,0.148 -0.127,0.162 h -0.716 l -1.419,-0.34 c -0.02,-0.005 -0.033,0.007 -0.051,0.007 -0.018,0 -0.032,-0.01 -0.049,-0.005 l -0.855,0.259 h -1.597 l -1.898,-0.667 -0.528,-0.604 c -0.01,-0.011 -0.024,-0.009 -0.035,-0.018 -0.012,-0.008 -0.014,-0.023 -0.027,-0.029 l -9.478,-4.432 -3.567,-2.142 -1.342,-1.709 c -0.004,-0.005 -0.011,-0.004 -0.016,-0.009 -0.004,-0.004 -0.002,-0.012 -0.008,-0.016 l -0.956,-0.844 1.999,-1.228 c 0.008,-0.006 0.009,-0.017 0.018,-0.024 0.006,-0.005 0.016,-0.004 0.023,-0.011 l 0.926,-1.02 1.811,1.365 c 0.006,0.004 0.012,0.002 0.018,0.005 0.004,0.002 0.004,0.008 0.008,0.01 l 2.251,1.218 2.896,2.63 c 0.002,0.002 0.006,0.001 0.01,0.003 0.002,0.002 0.002,0.007 0.005,0.009 l 3.981,2.912 c 0.008,0.006 0.018,0.004 0.025,0.008 0.007,0.003 0.008,0.011 0.014,0.014 l 2.82,1.165 -0.523,0.466 c -0.077,0.07 -0.084,0.19 -0.016,0.269 0.039,0.042 0.09,0.063 0.143,0.063 0.045,0 0.091,-0.016 0.126,-0.048 l 0.714,-0.637 3.268,-0.816 c 0.004,-10e-4 0.006,-0.006 0.011,-0.008 0.011,-0.003 0.021,-0.002 0.03,-0.007 l 0.84,-0.433 h 0.135 l 0.094,0.176 -0.359,0.359 -0.831,0.443 -0.69,0.344 c -0.012,0.005 -0.012,0.017 -0.021,0.023 -0.02,0.015 -0.032,0.032 -0.045,0.053 -0.014,0.021 -0.022,0.039 -0.027,0.064 -0.002,0.011 -0.012,0.018 -0.012,0.029 v 0.409 l -0.777,0.852 -1.249,0.57 c -0.096,0.044 -0.138,0.157 -0.095,0.252 0.033,0.07 0.102,0.111 0.174,0.111 0.027,0 0.053,-0.005 0.078,-0.017 l 1.283,-0.586 c 0.014,-0.006 0.018,-0.022 0.029,-0.03 0.01,-0.008 0.023,-0.005 0.032,-0.015 l 0.849,-0.929 v 0 l 0.006,-0.006 c 0.015,-0.017 0.014,-0.039 0.021,-0.059 0.01,-0.023 0.029,-0.042 0.029,-0.069 v -0.365 l 0.549,-0.274 h 1.061 l 1.57,0.288 1.346,0.508 0.191,0.261 -0.055,0.11 -0.77,-0.33 c -0.009,-0.004 -0.018,0.002 -0.024,0 -0.009,-0.002 -0.013,-0.011 -0.021,-0.013 l -1.818,-0.294 c -0.107,-0.02 -0.201,0.053 -0.217,0.157 -0.018,0.104 0.053,0.201 0.157,0.218 l 1.794,0.29 0.863,0.37 0.28,0.411 z m -34.918,-22.397 -1.5,0.839 H 18.85 l -2.22,-0.877 -0.912,-1.062 v -0.31 l 1.234,-1.39 c 0.005,-0.006 0.002,-0.015 0.007,-0.021 0.008,-0.011 0.02,-0.018 0.025,-0.031 l 0.508,-1.202 c 0.005,-0.013 -0.002,-0.025 0,-0.038 0.003,-0.014 0.015,-0.022 0.015,-0.036 v -0.889 l 0.939,-1.041 c 0.007,-0.008 0.004,-0.02 0.01,-0.028 0.01,-0.015 0.025,-0.025 0.03,-0.042 l 0.267,-0.8560003 c 0.002,-0.009 -0.003,-0.016 -0.002,-0.025 0.004,-0.025 -0.001,-0.045 -0.007,-0.07 -0.005,-0.025 -0.009,-0.045 -0.024,-0.065 -0.004,-0.007 -0.002,-0.017 -0.008,-0.024 l -0.566,-0.617 -0.444,-1.036 0.13,-0.602 0.464,-0.242 0.692,0.23 0.967,0.794 0.251,0.955 c 0.002,0.006 0.008,0.009 0.01,0.016 0.002,0.005 -0.002,0.01 0,0.015 0.009,0.02 0.027,0.031 0.041,0.047 0.009,0.009 0.015,0.021 0.025,0.028 0.032,0.022 0.068,0.036 0.107,0.036 0.016,0 0.033,-0.002 0.048,-0.006 0.003,-10e-4 0.004,-0.005 0.007,-0.006 0.007,-0.002 0.016,-0.002 0.023,-0.005 l 0.587,-0.267 c 0.017,-0.008 0.021,-0.026 0.035,-0.037 0.019,-0.016 0.035,-0.028 0.046,-0.05 0.013,-0.023 0.015,-0.044 0.017,-0.07 0.002,-0.017 0.014,-0.029 0.011,-0.047 l -0.121,-0.744 1.006,-1.251 2.151,-0.621 1.94,-0.319 c 0.013,-0.002 0.021,-0.016 0.033,-0.021 0.02,-0.007 0.041,-0.007 0.058,-0.021 l 0.323,-0.269 -0.116,0.791 -0.529,0.653 c 0,0 0,0 0,10e-4 -0.014,0.017 -0.012,0.042 -0.019,0.062 -0.009,0.026 -0.025,0.05 -0.023,0.077 v 0 l 0.107,0.963 c 0.002,0.011 0.012,0.019 0.016,0.029 0.002,0.01 -0.004,0.02 10e-4,0.029 l 0.855,1.866 -0.044,0.208 -0.753,0.2590003 c -0.013,0.004 -0.017,0.018 -0.028,0.024 -0.019,0.011 -0.031,0.024 -0.046,0.041 -0.018,0.021 -0.029,0.04 -0.037,0.067 -0.003,0.01 -0.015,0.017 -0.017,0.028 l -0.15,1.469 -0.552,0.431 c -0.004,0.002 -0.003,0.008 -0.006,0.011 -0.019,0.017 -0.024,0.04 -0.036,0.063 -0.01,0.022 -0.025,0.04 -0.027,0.064 0,0.004 -0.004,0.007 -0.004,0.012 v 0.493 l -0.216,0.476 -0.917,0.313 -1.046,0.105 c -0.026,0.003 -0.042,0.022 -0.063,0.033 -0.021,0.012 -0.045,0.016 -0.062,0.033 -0.017,0.02 -0.017,0.046 -0.025,0.07 -0.006,0.021 -0.023,0.038 -0.021,0.062 v 0.01 0 0 l 0.028,0.55 c 0,0.002 0.002,0.003 0.002,0.005 0,10e-4 -0.002,0.003 -0.002,0.005 l 0.054,0.508 c 0,0.009 0.009,0.014 0.011,0.022 0.002,0.008 -0.003,0.015 -0.002,0.022 l 0.204,0.567 z m -6.221,-6.4860003 -0.781,-2.631 0.234,-2.498 0.958,-2.126 1.805,-1.649 2.768,-0.67299996 2.586,0.64599996 2.328,1.805 0.694,0.917 v 0.749 l -0.138,0.105 c -0.001,0.001 -0.001,0.003 -0.002,0.004 -0.002,10e-4 -0.003,0 -0.004,10e-4 l -0.602,0.501 -1.9,0.313 c -0.003,0 -0.005,0.005 -0.009,0.006 -0.004,0.001 -0.007,-0.003 -0.012,-10e-4 l -2.217,0.641 c -0.02,0.005 -0.028,0.024 -0.044,0.035 -0.017,0.011 -0.038,0.012 -0.052,0.028 l -1.097,1.363 c -0.001,0.001 0,0.004 -0.001,0.005 -0.015,0.019 -0.013,0.044 -0.02,0.067 -0.007,0.025 -0.02,0.047 -0.018,0.072 0.001,0.001 -0.001,0.003 -0.001,0.005 l 0.111,0.684 -0.25,0.114 -0.21,-0.797 c -0.005,-0.021 -0.024,-0.03 -0.035,-0.046 -0.01,-0.018 -0.011,-0.039 -0.028,-0.052 l -1.042,-0.855 c -0.009,-0.008 -0.023,-0.004 -0.033,-0.01 -0.011,-0.006 -0.015,-0.019 -0.027,-0.023 l -0.802,-0.267 c -0.001,0 -0.002,0 -0.003,0 -0.022,-0.007 -0.047,0.004 -0.072,0.006 -0.024,0.002 -0.05,-0.005 -0.071,0.006 -10e-4,0 -10e-4,0 -0.002,0 l -0.614,0.321 c -10e-4,10e-4 -10e-4,0.004 -0.004,0.005 -0.024,0.014 -0.037,0.04 -0.053,0.064 -0.012,0.018 -0.03,0.031 -0.035,0.052 -0.002,0.003 -0.004,0.004 -0.005,0.007 l -0.162,0.748 c -0.004,0.021 0.008,0.038 0.01,0.057 0.002,0.02 -0.007,0.039 10e-4,0.058 l 0.481,1.123 c 0.006,0.013 0.018,0.02 0.026,0.031 0.005,0.007 0.003,0.016 0.008,0.023 l 0.513,0.559 -0.222,0.7130003 -0.904,1.001 H 17.091 Z M 5.336,36.312876 l 0.385,0.792 0.079,2.23 c 0,0.015 0.013,0.024 0.017,0.038 0.003,0.014 -0.004,0.027 0.002,0.04 l 0.087,0.175 v 0.751 l -0.421,0.62 c 0,0.001 0,0.003 0,0.005 -0.013,0.02 -0.009,0.044 -0.015,0.068 -0.004,0.026 -0.017,0.049 -0.011,0.074 0,10e-4 -0.002,0.003 -10e-4,0.004 l 0.123,0.523 -0.17,0.876 -0.819,1.044 -1.18,0.436 c -0.018,0.005 -0.023,0.024 -0.038,0.034 -0.015,0.01 -0.034,0.012 -0.046,0.027 l -1.308,1.687 -0.048,-0.015 0.082,-0.309 0.735,-1.286 c 0.003,-0.005 0,-0.01 10e-4,-0.014 0.004,-0.007 0.011,-0.01 0.013,-0.017 l 0.348,-0.989 c 0.003,-0.011 -0.004,-0.021 -0.002,-0.033 0.002,-0.012 0.013,-0.02 0.013,-0.03 0,-0.017 -0.013,-0.026 -0.017,-0.041 -0.005,-0.024 -0.012,-0.042 -0.026,-0.063 -0.015,-0.021 -0.032,-0.034 -0.053,-0.048 -0.013,-0.007 -0.017,-0.022 -0.032,-0.028 -0.011,-0.004 -0.021,0.004 -0.032,0.002 -0.011,-0.002 -0.019,-0.013 -0.031,-0.013 H 2.729 c -0.016,0 -0.026,0.013 -0.04,0.017 -0.015,0.004 -0.029,-0.003 -0.042,0.003 l -0.775,0.375 c -0.013,0.006 -0.016,0.021 -0.026,0.029 -0.012,0.009 -0.027,0.008 -0.037,0.019 l -0.53,0.626 H 0.87 l -0.098,-0.196 0.17,-0.468 0.901,-0.876 0.975,-0.335 c 0.099,-0.034 0.152,-0.142 0.117,-0.241 -0.034,-0.099 -0.143,-0.153 -0.241,-0.118 l -1.015,0.349 c -0.005,0.002 -0.006,0.007 -0.011,0.009 -0.005,0.003 -0.011,-10e-4 -0.016,0.002 l -0.224,0.117 c -0.022,-0.048 -0.06,-0.088 -0.115,-0.104 -0.099,-0.031 -0.206,0.027 -0.235,0.127 l -0.079,0.264 c 0,0 0,0 -0.001,0.001 v 0.002 c 0,0.003 0.002,0.005 0.001,0.006 -0.001,0.003 -0.003,0.004 -0.004,0.007 l -0.032,0.142 -0.296,0.114 -0.286,-0.185 v -0.302 l 0.595,-0.644 1.612,-0.844 h 0.435 c 0.105,0 0.19,-0.085 0.19,-0.19 0,-0.104 -0.085,-0.19 -0.19,-0.19 H 2.542 2.008 c -0.021,0 -0.036,0.016 -0.055,0.022 -0.02,0.007 -0.042,0.002 -0.059,0.016 l -0.27,0.201 H 1.27 l -0.222,-0.171 v -0.201 l 0.709,-0.433 1.251,-0.261 c 0.007,-0.001 0.009,-0.009 0.017,-0.011 0.014,-0.004 0.029,-0.003 0.042,-0.012 l 0.973,-0.579 0.786,-0.287 c 0.014,-0.005 0.019,-0.021 0.03,-0.028 0.022,-0.014 0.037,-0.026 0.052,-0.047 0.015,-0.021 0.021,-0.04 0.026,-0.064 0.004,-0.015 0.017,-0.024 0.017,-0.039 v -0.775 c 0,-0.01 -0.009,-0.017 -0.011,-0.026 -0.001,-0.01 0.005,-0.018 0.003,-0.027 l -0.247,-0.836 0.26,-0.497 h 0.38 z m -0.909,0.926 0.143,0.488 v 0.616 l -0.365,0.134 z m 4.882,0.071 -1.275,2.083 -2.147,1.883 -0.041,-0.174 0.406,-0.599 c 0.011,-0.017 0.006,-0.036 0.011,-0.054 0.006,-0.019 0.022,-0.032 0.022,-0.052 v -0.853 c 0,-0.016 -0.013,-0.026 -0.017,-0.041 -0.003,-0.015 0.004,-0.03 -0.003,-0.043 l -0.088,-0.179 -0.078,-2.23 c 0,-0.015 -0.013,-0.026 -0.017,-0.041 -0.002,-0.012 0.004,-0.024 -10e-4,-0.036 l -0.455,-0.935 c -0.005,-0.01 -0.017,-0.012 -0.024,-0.021 -0.015,-0.021 -0.03,-0.034 -0.053,-0.047 -0.021,-0.013 -0.038,-0.022 -0.062,-0.026 -0.011,-0.002 -0.02,-0.013 -0.032,-0.013 H 4.841 c -0.011,0 -0.018,0.01 -0.028,0.012 -0.024,0.003 -0.041,0.013 -0.062,0.026 -0.023,0.014 -0.041,0.025 -0.057,0.046 -0.005,0.008 -0.017,0.009 -0.022,0.019 l -0.044,0.086 0.13,-0.72 0.584,-1.465 h 0.596 l 2.974,1.764 c 0.03,0.018 0.063,0.027 0.097,0.027 0.065,0 0.128,-0.033 0.163,-0.093 0.054,-0.09 0.024,-0.207 -0.066,-0.26 l -3.019,-1.791 c -0.015,-0.009 -0.032,-0.002 -0.048,-0.007 -0.017,-0.005 -0.03,-0.02 -0.048,-0.02 H 5.527 l 0.325,-0.609 1.125,0.234 1.958,0.846 c 0.024,0.01 0.049,0.015 0.074,0.016 0,0 0,0 10e-4,0 v 0 0 0 c 0.009,0 0.018,-10e-4 0.027,-0.002 l 0.718,-0.103 v 1.074 z m 2.932,-9.306 c 0.064,0 0.111,-0.036 0.146,-0.084 0.004,-0.006 0.015,-0.004 0.019,-0.01 l 0.193,-0.33 -0.189,0.575 c 0,0 0,10e-4 0,10e-4 -0.007,0.023 0.004,0.048 0.006,0.073 0.002,0.025 -0.006,0.05 0.005,0.072 0,0 0,0.001 0,0.001 l 0.263,0.501 -0.251,1.219 v -0.953 c 0,-0.018 -0.015,-0.029 -0.019,-0.045 -0.004,-0.016 0.003,-0.032 -0.005,-0.046 l -0.539,-0.974 z m -0.232,61.941 c 0.036,0.031 0.081,0.047 0.125,0.047 h 2.484 c 0.014,0 0.028,-0.002 0.043,-0.005 l 1.606,-0.364 0.375,0.902 -0.23,2.748 -0.634,0.678 -0.567,-0.285 c -0.015,-0.008 -0.03,0 -0.044,-0.004 -0.015,-0.003 -0.025,-0.018 -0.041,-0.018 h -1.497 c -0.014,0 -0.022,0.014 -0.035,0.016 -0.013,0.004 -0.026,-0.005 -0.039,0.001 l -0.72,0.304 -1.03,-0.867 -0.253,-1.979 0.274,-1.334 z m 4.076,4.89 -2.4,0.328 -1.911,-0.854 -0.516,-1.33 0.06,-0.697 0.119,0.929 c 0,0.001 0,0.001 0,0.001 l 0.001,0.008 c 0.006,0.048 0.031,0.088 0.065,0.118 10e-4,0.001 10e-4,0.002 10e-4,0.002 l 1.176,0.989 c 0.003,0.004 0.007,0.002 0.011,0.004 0.032,0.024 0.07,0.041 0.111,0.041 0.024,0 0.05,-0.006 0.074,-0.016 l 0.791,-0.334 h 1.416 l 0.653,0.328 c 0.028,0.016 0.057,0.021 0.085,0.021 0.046,0 0.087,-0.023 0.122,-0.053 0.005,-0.006 0.011,-0.004 0.017,-0.008 l 0.775,-0.829 c 0.012,-0.013 0.009,-0.031 0.018,-0.047 0.012,-0.021 0.031,-0.04 0.033,-0.065 l 0.102,-1.22 0.178,1.212 z m 14.621,-6.238 c 0.007,0.012 0.023,0.008 0.032,0.018 0.018,0.018 0.028,0.043 0.053,0.053 l 0.548,0.224 h -0.69 l -0.852,-0.878 v -0.768 z m 2.566,1.111 c 0.025,0.011 0.051,0.016 0.076,0.016 0.017,0 0.035,-0.002 0.051,-0.006 l 1.174,-0.325 2.146,1.37 c 0.014,0.01 0.031,0.01 0.048,0.014 0.007,0.003 0.011,0.012 0.019,0.012 l 3.874,0.75 c 0.013,0.002 0.024,0.004 0.036,0.004 0.02,0 0.04,-0.004 0.061,-0.012 l 1.363,-0.454 c 0.008,-0.004 0.01,-0.013 0.018,-0.016 0.028,-0.015 0.05,-0.034 0.068,-0.06 0.01,-0.012 0.019,-0.021 0.023,-0.034 0.004,-0.007 0.01,-0.009 0.012,-0.017 l 0.293,-0.987 c 0.008,-0.022 -0.004,-0.044 -0.006,-0.067 -0.002,-0.024 0.006,-0.049 -0.007,-0.074 l -0.284,-0.555 0.206,0.076 0.548,0.81 v 1.083 l -1.086,0.566 h -3.024 l -2.909,-0.926 c -0.006,-0.002 -0.012,0.004 -0.018,0.002 -0.006,-0.002 -0.009,-0.008 -0.014,-0.01 l -2.352,-0.32 c -0.006,0 -0.01,0.004 -0.013,0.004 -0.006,0 -0.009,-0.006 -0.013,-0.006 h -2.129 l -2.116,-0.857 -0.285,-1.326 0.384,-0.704 v 0.433 c 0,0.027 0.019,0.049 0.031,0.073 0.008,0.02 0.007,0.042 0.023,0.059 l 0.002,10e-4 v 0 l 0.96,0.988 c 0.001,0.002 0.001,0 0.001,0.002 0.035,0.035 0.082,0.057 0.136,0.057 h 1.696 z m 2.661,-0.658 c 0.01,-0.002 0.014,-0.013 0.023,-0.017 0.016,-0.005 0.031,-0.005 0.045,-0.015 l 1.945,-1.459 3.762,1.51 0.44,0.858 -0.243,0.819 -1.221,0.408 -3.791,-0.732 -1.816,-1.16 z m -3.336,-30.22 -0.399,3.94 c -10e-4,0.007 0.006,0.012 0.006,0.02 0,0.007 -0.006,0.012 -0.006,0.018 l 0.509,4.943 c 0.002,0.01 0.01,0.014 0.011,0.021 10e-4,0.007 -0.003,0.015 -0.001,0.021 l 0.74,2.198 1.013,8.477 c 10e-4,0.014 0.014,0.021 0.019,0.033 0.004,0.012 -0.003,0.023 0.002,0.034 l 1.994,3.751 -0.271,0.888 c -0.003,0.009 0.003,0.019 0.003,0.028 -0.002,0.011 -0.012,0.016 -0.012,0.027 v 1.254 c 0,0.021 0.018,0.035 0.023,0.057 0.006,0.018 0.002,0.04 0.015,0.057 l 1.81,2.413 -0.246,0.181 c 0,0 0,0 -0.001,0 0,0 0,0 -10e-4,0 l -2.001,1.502 -1.239,0.31 c 0,0 0,0 -0.002,0 l -0.004,0.001 c 0,0 0,0 -0.002,0 h -0.002 l -1.191,0.329 -0.979,-0.427 c -10e-4,0 -10e-4,10e-4 -0.003,0 0,0 0,0 0,-0.001 l -1.391,-0.567 -1.213,-1.807 -0.448,-1.068 0.382,-1.27 c 0.005,-0.019 -0.006,-0.035 -0.006,-0.054 0,-0.019 0.012,-0.034 0.006,-0.054 l -1.786,-6.29 -0.479,-4.339 c -10e-4,-0.005 -0.007,-0.008 -0.008,-0.012 0,-0.006 0.004,-0.01 0.002,-0.016 l -0.955,-3.664 v -1.659 c 0,-0.011 -0.01,-0.018 -0.012,-0.028 -0.001,-0.011 0.006,-0.02 0.002,-0.031 l -3.523,-10.678 0.988,-1.445 c 0.059,-0.088 0.037,-0.205 -0.049,-0.264 -0.087,-0.06 -0.206,-0.038 -0.265,0.049 l -1.041,1.522 c 0,0 0,0 0,0.001 -10e-4,10e-4 -10e-4,0 -10e-4,10e-4 l -2.7,4.034 c -0.006,0.007 -0.002,0.018 -0.006,0.025 -0.003,0.01 -0.015,0.014 -0.019,0.022 l -2.484,7.909 c -0.004,0.016 0.005,0.028 0.004,0.045 -10e-4,0.014 -0.012,0.025 -0.009,0.04 l 0.449,3.066 -0.928,4.294 c -0.002,0.011 0.006,0.018 0.006,0.029 -0.001,0.01 -0.01,0.019 -0.009,0.029 l 0.929,9.529 -0.635,1.041 c -0.005,0.008 -0.001,0.018 -0.005,0.026 -0.003,0.009 -0.014,0.013 -0.017,0.022 l -0.479,1.787 -0.343,0.082 c -10e-4,0 -10e-4,0 -0.002,0 l -1.738,0.399 h -2.394 l -0.371,-0.324 -0.373,-0.35 -0.474,-5.377 c 0,-0.006 -0.007,-0.01 -0.008,-0.015 0,-0.006 0.004,-0.011 0.002,-0.016 l -0.66,-2.587 1.012,-11.029 c 0,-0.004 -0.002,-0.006 -0.002,-0.009 0,-0.003 0.003,-0.005 0.003,-0.009 v -4.186 l 1.014,-8.912 c 10e-4,-0.013 -0.009,-0.021 -0.01,-0.033 -10e-4,-0.013 0.008,-0.023 0.004,-0.035 l -0.979,-3.736 0.375,-4.648 1.08,0.584 c 0.014,0.008 0.03,0.008 0.044,0.012 0.006,0.002 0.008,0.008 0.014,0.01 l 6.974,1.174 c 0.01,0.002 0.021,0.004 0.032,0.004 v 0 0 0 0 c 0.007,0 0.015,-10e-4 0.022,-0.002 l 8.55,-0.99 c 0.003,0 0.005,-0.004 0.009,-0.006 0.015,-0.002 0.031,-0.002 0.045,-0.01 l 2.435,-1.082 1.176,4.976 z"
     id="path13" /><path
     style="fill:#ffffff;stroke:#000000;stroke-width:0"
     d="M 16.66771,10.416667 C 15.974118,9.4895738 15.462893,7.4199395 15.592894,6.0654008 c 0.224583,-2.3400444 1.849028,-4.644329 3.593459,-5.09734375 0.422365,-0.10968483 1.021855,-0.26621515 1.3322,-0.34784517 0.399571,-0.1050991 0.960141,-0.047004 1.920602,0.19904311 1.139312,0.29186481 1.55128,0.50729631 2.574675,1.34638161 1.430631,1.1729794 1.886443,1.8212201 1.599954,2.2753991 -0.2275,0.3606628 -0.789493,0.560776 -3.102894,1.1048722 -1.613491,0.3794819 -1.754766,0.4492626 -2.329466,1.1506083 -0.336492,0.4106443 -0.616819,0.8915394 -0.622948,1.0686556 -0.0096,0.276398 -0.03253,0.2690566 -0.162105,-0.051811 -0.167604,-0.415054 -0.939988,-1.0177497 -1.650477,-1.2878773 -1.178388,-0.4480222 -1.858973,0.7409829 -1.1828,2.066391 0.200404,0.3928245 0.441135,0.7616691 0.534957,0.8196545 0.09382,0.057985 0.114731,0.2464365 0.04646,0.4187806 -0.140142,0.3537984 -0.832718,1.2577354 -0.963648,1.2577354 -0.04713,0 -0.278049,-0.25712 -0.513157,-0.571378 z"
     id="path251" /><path
     style="fill:#ffffff;stroke:#000000;stroke-width:0"
     d="m 49.578059,39.462316 c -0.531821,-0.193315 -1.085619,-0.499041 -1.230661,-0.679391 -0.145042,-0.18035 -2.360232,-1.304664 -4.922644,-2.498475 -6.112852,-2.847938 -8.096685,-4.026957 -9.29778,-5.525797 -0.500192,-0.624186 -0.986233,-1.134884 -1.080091,-1.134884 -0.375907,0 -0.12787,-0.289587 0.664753,-0.776111 0.459128,-0.281818 1.088509,-0.748959 1.398626,-1.038089 l 0.563848,-0.525692 0.930526,0.706146 c 0.511789,0.388381 1.405209,0.957761 1.985378,1.26529 0.580169,0.307528 1.569093,1.035053 2.197609,1.616721 1.947979,1.802783 5.611648,4.431515 6.944445,4.982735 1.495578,0.618543 1.417894,0.557733 1.140098,0.892456 -0.171606,0.206773 -0.17843,0.325555 -0.02738,0.476604 0.151049,0.151049 0.300358,0.108716 0.599089,-0.169856 0.22934,-0.213864 1.030945,-0.527419 1.892272,-0.740179 0.821906,-0.203023 1.682604,-0.449359 1.912664,-0.547413 0.780587,-0.332696 0.595898,-0.0077 -0.221222,0.3893 -0.467289,0.227027 -0.812398,0.515207 -0.812398,0.678386 0,0.349132 -0.771607,1.089817 -1.538326,1.476678 -0.314259,0.158564 -0.571379,0.404938 -0.571379,0.547497 0,0.319693 -0.01532,0.320078 0.813622,-0.02048 0.761392,-0.31281 1.823509,-1.247402 1.823509,-1.604568 0,-0.471381 0.77388,-0.626581 2.050575,-0.411239 1.375206,0.231959 2.227788,0.617105 0.938173,0.423811 -1.205232,-0.180647 -1.318565,-0.170883 -1.318565,0.113589 0,0.164177 0.199072,0.28347 0.527426,0.316056 1.003761,0.09962 2.373418,0.569595 2.373418,0.814406 0,0.204219 -0.126718,0.203459 -0.819081,-0.0049 -1.051575,-0.316479 -1.642241,-0.31556 -1.642241,0.0026 0,0.136984 0.09889,0.288196 0.219761,0.336027 0.120868,0.04783 -0.206275,0.04214 -0.726987,-0.01265 -0.750791,-0.079 -0.930259,-0.05015 -0.867085,0.13937 0.04382,0.131442 0.35118,0.308148 0.683034,0.392681 1.020268,0.259892 1.075268,0.541729 0.07595,0.389175 -0.955235,-0.145824 -1.070958,-0.146264 -2.637131,-0.01002 -0.792581,0.06894 -1.295267,0.0044 -2.0218,-0.259722 z"
     id="path290" /><path
     style="fill:#ffffff;stroke:#000000;stroke-width:0"
     d="m 11.949933,89.254181 c -0.35618,-0.288418 -0.419831,-0.589418 -0.638322,-3.018574 -0.133479,-1.484016 -0.391445,-3.278884 -0.573256,-3.988596 l -0.330566,-1.290387 0.5074,-5.492376 c 0.27907,-3.020807 0.509258,-6.481301 0.511528,-7.689986 0.0024,-1.270995 0.220563,-4.066943 0.517438,-6.631022 l 0.51331,-4.433413 -0.512344,-1.893999 c -0.50315,-1.860016 -0.508915,-1.931884 -0.321284,-4.005406 0.105083,-1.161274 0.212786,-2.134576 0.239341,-2.162894 0.02656,-0.02832 0.315198,0.06739 0.641427,0.212682 0.32623,0.145292 2.120378,0.512334 3.986996,0.815648 l 3.393851,0.551479 4.253828,-0.482831 c 3.670346,-0.416602 4.418793,-0.553395 5.456483,-0.997277 0.661459,-0.282946 1.229543,-0.487559 1.262407,-0.454695 0.03286,0.03286 0.304086,1.082144 0.602718,2.331733 0.763978,3.196776 1.128054,7.441523 0.86026,10.029741 -0.261099,2.523517 0.03682,6.232152 0.663776,8.26301 0.280526,0.908689 0.609039,2.873627 0.928207,5.551881 l 0.494007,4.145412 0.995754,1.856385 c 0.869481,1.620976 0.973063,1.916066 0.816825,2.327004 -0.382795,1.006829 -0.22548,1.660493 0.700114,2.909051 0.483474,0.652171 0.879044,1.225918 0.879044,1.274995 0,0.04908 -0.440311,0.421666 -0.978467,0.82798 -0.645107,0.48706 -1.392813,0.85357 -2.194634,1.075766 l -1.216166,0.337019 -1.163884,-0.477972 c -0.89924,-0.369291 -1.27421,-0.639077 -1.6491,-1.186501 -0.837988,-1.22366 -1.203892,-2.082931 -1.050362,-2.466617 0.273233,-0.682838 0.156495,-1.427956 -0.701578,-4.478017 -0.567145,-2.015944 -0.937291,-3.750589 -1.070261,-5.015654 -0.111796,-1.063643 -0.433677,-2.858858 -0.715287,-3.989366 -0.281611,-1.130506 -0.512019,-2.43737 -0.512019,-2.904138 0,-0.605937 -0.497019,-2.337866 -1.737725,-6.055332 l -1.737726,-5.20666 0.522522,-0.803271 c 0.533197,-0.819683 0.539477,-1.400022 0.0104,-0.960926 -0.150753,0.125114 -1.067743,1.414151 -2.037755,2.864528 l -1.763658,2.637048 -1.271162,4.019285 -1.271162,4.019283 0.23799,1.583888 c 0.226784,1.509302 0.217761,1.6735 -0.191606,3.48697 -0.522306,2.313789 -0.522336,2.548504 -9.85e-4,7.718012 l 0.415897,4.123806 -0.411272,0.798838 c -0.226199,0.43936 -0.463118,1.087741 -0.526486,1.440846 -0.11115,0.619358 -0.154684,0.651925 -1.233826,0.922996 -1.543778,0.387784 -3.09405,0.370831 -3.600634,-0.03938 z"
     id="path329" /><path
     style="fill:#ffffff;stroke:#000000;stroke-width:0"
     d="m 6.245615,38.713445 c -0.1443471,-2.227143 -0.4012821,-2.93637 -1.0637725,-2.93637 -0.2392539,0 -0.4350071,-0.033 -0.4350071,-0.07333 0,-0.326968 0.7389394,-1.684687 0.916748,-1.684423 0.1243048,1.85e-4 0.8834618,0.395755 1.6870154,0.879044 1.4829276,0.891892 1.9691399,1.054945 1.9649234,0.658947 -0.00224,-0.210475 -3.0107815,-2.065753 -3.3498477,-2.065753 -0.090193,0 -0.1639867,-0.07911 -0.1639867,-0.175809 0,-0.310355 0.7594198,-0.179827 1.9777667,0.339936 0.6526452,0.278428 1.344892,0.464845 1.5383263,0.414261 0.301059,-0.07873 0.3508096,-0.0067 0.3455228,0.499912 -0.020503,1.96489 -1.0820179,4.264776 -2.5252076,5.471133 L 6.3731018,40.68045 Z"
     id="path368" /><path
     style="fill:#ffffff;stroke:#000000;stroke-width:0"
     d="m 2.8958973,44.127989 c 0.078419,-0.19339 0.1799272,-0.569181 0.225574,-0.835092 0.072766,-0.423891 0.027122,-0.483474 -0.3703644,-0.483474 -0.2573152,0 -0.7246414,0.23819 -1.0807112,0.550823 -0.345044,0.302953 -0.67873299,0.499443 -0.74153107,0.436645 -0.21568007,-0.21568 0.58307357,-1.075653 1.32117937,-1.42244 0.7879101,-0.370185 1.0534022,-0.928388 0.3431346,-0.721447 -0.2175633,0.06339 -0.6505329,0.161731 -0.9621547,0.218539 -0.3385637,0.06172 -0.608659,0.235851 -0.67113,0.43268 -0.12261695,0.386331 -0.43246774,0.442531 -0.43246774,0.07844 0,-0.427869 1.13519634,-1.141363 2.50527424,-1.574616 0.1692159,-0.05351 0.3076653,-0.189877 0.3076653,-0.303036 0,-0.144887 -0.3120143,-0.177452 -1.0548523,-0.110094 -0.5801688,0.05261 -1.0548524,0.05254 -1.0548524,-1.52e-4 0,-0.194934 0.6265775,-0.563085 0.9675596,-0.568498 0.193726,-0.0031 0.9255298,-0.28371 1.6262307,-0.623632 1.3540162,-0.656858 1.4929956,-0.892776 1.1136753,-1.890463 -0.097502,-0.25645 -0.096193,-0.519277 0.00334,-0.670728 0.1377689,-0.209631 0.2007279,-0.200698 0.3978749,0.05645 0.2896561,0.377809 0.5083036,3.411646 0.2770216,3.8438 -0.091461,0.170897 -0.1662931,0.608347 -0.1662931,0.972112 0,0.840663 -0.7171855,1.908035 -1.4548173,2.165175 -0.2992831,0.104331 -0.7011526,0.327153 -0.8930433,0.495161 -0.334713,0.293054 -0.3430977,0.291178 -0.2063124,-0.04615 z"
     id="path407" /><path
     style="fill:#ffffff;stroke:#000000;stroke-width:0"
     d="m 6.2500308,38.802781 c -0.151812,-2.266328 -0.4165165,-3.025706 -1.0547026,-3.025706 -0.246671,0 -0.4484928,-0.033 -0.4484928,-0.07333 0,-0.328877 0.739098,-1.683892 0.916748,-1.680707 0.1243048,0.0022 0.8978391,0.397798 1.7189649,0.879044 1.4896449,0.873051 1.9353139,1.033558 1.9353139,0.696999 0,-0.20016 -1.4197646,-1.142624 -2.676255,-1.776544 -1.545338,-0.779648 -0.7895088,-0.957168 0.9656133,-0.226791 0.6024212,0.250691 1.3128744,0.453767 1.5787851,0.45128 0.4283866,-0.004 0.4827702,0.05924 0.477298,0.555097 -0.021339,1.933515 -1.0924567,4.241239 -2.5239261,5.437799 l -0.7637129,0.638385 z"
     id="path446" /><path
     style="fill:#ffffff;stroke:#000000;stroke-width:0"
     d="m 12.225677,93.266526 c -0.403864,-0.428909 -0.55792,-1.297819 -0.475352,-2.681083 l 0.02886,-0.483474 1.450422,-0.0042 c 0.797732,-0.0023 1.766878,-0.07898 2.153657,-0.170377 1.031412,-0.243734 1.202824,0.05555 1.056554,1.844754 -0.06338,0.77521 -0.218923,1.513288 -0.346568,1.644465 -0.157316,0.161669 -0.748257,0.246243 -1.84265,0.263713 -1.507389,0.02406 -1.637697,-0.0026 -2.024922,-0.413804 z"
     id="path485" /><path
     style="fill:#ffffff;stroke:#000000;stroke-width:0"
     d="m 38.478097,90.647837 c -1.049255,-0.209043 -1.782562,-0.475261 -2.373417,-0.861642 -0.610532,-0.399247 -0.754485,-0.561064 -0.503414,-0.565886 0.193389,-0.0037 0.80894,-0.352152 1.367889,-0.774308 l 1.016272,-0.767555 1.831863,0.728288 c 1.90255,0.75639 2.341064,1.152759 2.103481,1.901317 -0.228067,0.718577 -1.106313,0.805258 -3.442674,0.339786 z"
     id="path524" /><path
     style="fill:#ffffff;stroke:#000000;stroke-width:0"
     d="m 34.810127,90.620421 c -0.435127,-0.07742 -1.357676,-0.146636 -2.050109,-0.153803 -2.264756,-0.02344 -3.57577,-0.754538 -3.57577,-1.994052 0,-0.337545 0.06719,-0.310952 0.659282,0.260919 0.695548,0.671799 1.212281,0.78966 3.911744,0.892224 0.694587,0.02639 1.20217,0.175007 1.80204,0.527623 0.4593,0.269987 0.835091,0.527107 0.835091,0.571379 0,0.107912 -0.618988,0.06711 -1.582278,-0.10429 z"
     id="path563" /><path
     style="fill:#ffffff;stroke:#000000;stroke-width:0"
     d="m 17.607603,16.714964 c -0.525938,-0.221372 -1.133719,-0.642995 -1.379374,-0.956885 l -0.439157,-0.561139 0.50033,-0.62448 c 0.880418,-1.09888 1.28561,-1.897775 1.288578,-2.540623 0.0021,-0.463624 0.139374,-0.757148 0.528129,-1.129599 0.705017,-0.675449 0.870094,-1.5618572 0.386928,-2.0776809 -0.779995,-0.8327155 -0.800553,-1.8801127 -0.0369,-1.8801127 0.455931,0 1.58606,1.1035148 1.58606,1.5487096 0,0.4986412 0.238907,0.6048114 0.792933,0.3523799 0.376664,-0.1716193 0.449984,-0.3014848 0.376802,-0.6673948 -0.118107,-0.5905341 0.810732,-1.7024995 1.5553,-1.8619372 l 0.527426,-0.1129401 -0.395569,0.292656 c -0.546456,0.4042868 -0.530096,0.8720261 0.02562,0.7325497 0.279557,-0.070164 0.453647,-0.021135 0.517707,0.1458025 0.05308,0.1383333 0.390867,0.3327894 0.750629,0.4321246 0.549473,0.1517167 0.69086,0.1323742 0.883812,-0.1209094 0.126334,-0.1658354 0.197843,-0.3926158 0.158909,-0.5039564 -0.03893,-0.1113405 0.08196,-0.2423833 0.268664,-0.2912061 0.272226,-0.071189 0.339792,0.00372 0.341169,0.3782461 9.5e-4,0.2568582 0.19873,0.8902186 0.439522,1.4074679 0.240793,0.5172492 0.437804,0.9741124 0.437804,1.0152515 0,0.041139 -0.187947,0.1462561 -0.41766,0.233593 -0.32319,0.1228768 -0.444438,0.3373558 -0.536043,0.9482208 -0.06511,0.434185 -0.233175,0.884697 -0.373479,1.001138 -0.140303,0.116441 -0.255096,0.360252 -0.255096,0.541802 0,0.561628 -0.630222,1.011529 -1.59651,1.139712 l -0.907238,0.120349 0.11149,0.948608 c 0.136491,1.161321 -0.0261,1.494564 -1.01074,2.071601 -1.010394,0.592131 -2.748917,0.599982 -4.130046,0.01865 z"
     id="path617" /><path
     style="fill:#ffffff;stroke:#000000;stroke-width:0"
     d="m 13.036484,94.793438 -0.412883,-0.23925 0.535685,-0.221888 c 0.47701,-0.197584 1.041753,-0.192501 2.707451,0.02437 0.319541,0.0416 0.40704,0.23416 0.172321,0.379224 -0.07444,0.04601 -0.687572,0.131605 -1.362517,0.190221 -0.880979,0.07651 -1.343651,0.03908 -1.640057,-0.132675 z"
     id="path656" /></svg>
