<?xml version="1.0" encoding="UTF-8" standalone="no"?>
<svg
   width="700pt"
   height="700pt"
   version="1.1"
   viewBox="0 0 700 700"
   id="svg162"
   sodipodi:docname="noun-woman-1287646.svg"
   inkscape:version="1.1 (c4e8f9e, 2021-05-24)"
   xmlns:inkscape="http://www.inkscape.org/namespaces/inkscape"
   xmlns:sodipodi="http://sodipodi.sourceforge.net/DTD/sodipodi-0.dtd"
   xmlns="http://www.w3.org/2000/svg"
   xmlns:svg="http://www.w3.org/2000/svg">
  <sodipodi:namedview
     id="namedview164"
     pagecolor="#ffffff"
     bordercolor="#666666"
     borderopacity="1.0"
     inkscape:pageshadow="2"
     inkscape:pageopacity="0.0"
     inkscape:pagecheckerboard="0"
     inkscape:document-units="pt"
     showgrid="false"
     inkscape:zoom="0.76178571"
     inkscape:cx="466.66667"
     inkscape:cy="551.9925"
     inkscape:window-width="1312"
     inkscape:window-height="907"
     inkscape:window-x="0"
     inkscape:window-y="25"
     inkscape:window-maximized="0"
     inkscape:current-layer="svg162" />
  <defs
     id="defs78">
    <symbol
       id="w"
       overflow="visible">
      <path
         d="m18.766-1.125c-0.96875 0.5-1.9805 0.875-3.0312 1.125-1.043 0.25781-2.1367 0.39062-3.2812 0.39062-3.3984 0-6.0898-0.94531-8.0781-2.8438-1.9922-1.9062-2.9844-4.4844-2.9844-7.7344 0-3.2578 0.99219-5.8359 2.9844-7.7344 1.9883-1.9062 4.6797-2.8594 8.0781-2.8594 1.1445 0 2.2383 0.13281 3.2812 0.39062 1.0508 0.25 2.0625 0.625 3.0312 1.125v4.2188c-0.98047-0.65625-1.9453-1.1406-2.8906-1.4531-0.94922-0.3125-1.9492-0.46875-3-0.46875-1.875 0-3.3516 0.60547-4.4219 1.8125-1.0742 1.1992-1.6094 2.8555-1.6094 4.9688 0 2.1055 0.53516 3.7617 1.6094 4.9688 1.0703 1.1992 2.5469 1.7969 4.4219 1.7969 1.0508 0 2.0508-0.14844 3-0.45312 0.94531-0.3125 1.9102-0.80078 2.8906-1.4688z"
         id="path9" />
    </symbol>
    <symbol
       id="a"
       overflow="visible">
      <path
         d="m13.734-11.141c-0.4375-0.19531-0.87109-0.34375-1.2969-0.4375-0.41797-0.10156-0.83984-0.15625-1.2656-0.15625-1.2617 0-2.2305 0.40625-2.9062 1.2188-0.67969 0.80469-1.0156 1.9531-1.0156 3.4531v7.0625h-4.8906v-15.312h4.8906v2.5156c0.625-1 1.3438-1.7266 2.1562-2.1875 0.82031-0.46875 1.8008-0.70312 2.9375-0.70312 0.16406 0 0.34375 0.011719 0.53125 0.03125 0.19531 0.011719 0.47656 0.039062 0.84375 0.078125z"
         id="path12" />
    </symbol>
    <symbol
       id="b"
       overflow="visible">
      <path
         d="m17.641-7.7031v1.4062h-11.453c0.125 1.1484 0.53906 2.0078 1.25 2.5781 0.70703 0.57422 1.7031 0.85938 2.9844 0.85938 1.0312 0 2.082-0.14844 3.1562-0.45312 1.082-0.3125 2.1914-0.77344 3.3281-1.3906v3.7656c-1.1562 0.4375-2.3125 0.76562-3.4688 0.98438-1.1562 0.22656-2.3125 0.34375-3.4688 0.34375-2.7734 0-4.9297-0.70312-6.4688-2.1094-1.5312-1.4062-2.2969-3.3789-2.2969-5.9219 0-2.5 0.75391-4.4609 2.2656-5.8906 1.5078-1.4375 3.582-2.1562 6.2188-2.1562 2.4062 0 4.332 0.73047 5.7812 2.1875 1.4453 1.4492 2.1719 3.3828 2.1719 5.7969zm-5.0312-1.625c0-0.92578-0.27344-1.6719-0.8125-2.2344-0.54297-0.57031-1.25-0.85938-2.125-0.85938-0.94922 0-1.7188 0.26562-2.3125 0.79688s-0.96484 1.2969-1.1094 2.2969z"
         id="path15" />
    </symbol>
    <symbol
       id="e"
       overflow="visible">
      <path
         d="m9.2188-6.8906c-1.0234 0-1.793 0.17188-2.3125 0.51562-0.51172 0.34375-0.76562 0.85547-0.76562 1.5312 0 0.625 0.20703 1.1172 0.625 1.4688 0.41406 0.34375 0.98828 0.51562 1.7188 0.51562 0.92578 0 1.7031-0.32812 2.3281-0.98438 0.63281-0.66406 0.95312-1.4922 0.95312-2.4844v-0.5625zm7.4688-1.8438v8.7344h-4.9219v-2.2656c-0.65625 0.92969-1.3984 1.6055-2.2188 2.0312-0.82422 0.41406-1.8242 0.625-3 0.625-1.5859 0-2.8711-0.45703-3.8594-1.375-0.99219-0.92578-1.4844-2.1289-1.4844-3.6094 0-1.7891 0.61328-3.1016 1.8438-3.9375 1.2383-0.84375 3.1797-1.2656 5.8281-1.2656h2.8906v-0.39062c0-0.76953-0.30859-1.332-0.92188-1.6875-0.61719-0.36328-1.5703-0.54688-2.8594-0.54688-1.0547 0-2.0312 0.10547-2.9375 0.3125-0.89844 0.21094-1.7305 0.52344-2.5 0.9375v-3.7344c1.0391-0.25 2.0859-0.44141 3.1406-0.57812 1.0625-0.13281 2.125-0.20312 3.1875-0.20312 2.7578 0 4.75 0.54688 5.9688 1.6406 1.2266 1.0859 1.8438 2.8555 1.8438 5.3125z"
         id="path18" />
    </symbol>
    <symbol
       id="d"
       overflow="visible">
      <path
         d="m7.7031-19.656v4.3438h5.0469v3.5h-5.0469v6.5c0 0.71094 0.14062 1.1875 0.42188 1.4375s0.83594 0.375 1.6719 0.375h2.5156v3.5h-4.1875c-1.9375 0-3.3125-0.39844-4.125-1.2031-0.80469-0.8125-1.2031-2.1797-1.2031-4.1094v-6.5h-2.4219v-3.5h2.4219v-4.3438z"
         id="path21" />
    </symbol>
    <symbol
       id="j"
       overflow="visible">
      <path
         d="m12.766-13.078v-8.2031h4.9219v21.281h-4.9219v-2.2188c-0.66797 0.90625-1.4062 1.5703-2.2188 1.9844s-1.7578 0.625-2.8281 0.625c-1.8867 0-3.4336-0.75-4.6406-2.25-1.2109-1.5-1.8125-3.4258-1.8125-5.7812 0-2.3633 0.60156-4.2969 1.8125-5.7969 1.207-1.5 2.7539-2.25 4.6406-2.25 1.0625 0 2 0.21484 2.8125 0.64062 0.82031 0.42969 1.5664 1.0859 2.2344 1.9688zm-3.2188 9.9219c1.0391 0 1.8359-0.37891 2.3906-1.1406 0.55078-0.76953 0.82812-1.8828 0.82812-3.3438 0-1.457-0.27734-2.5664-0.82812-3.3281-0.55469-0.76953-1.3516-1.1562-2.3906-1.1562-1.043 0-1.8398 0.38672-2.3906 1.1562-0.55469 0.76172-0.82812 1.8711-0.82812 3.3281 0 1.4609 0.27344 2.5742 0.82812 3.3438 0.55078 0.76172 1.3477 1.1406 2.3906 1.1406z"
         id="path24" />
    </symbol>
    <symbol
       id="f"
       overflow="visible">
      <path
         d="m10.5-3.1562c1.0508 0 1.8516-0.37891 2.4062-1.1406 0.55078-0.76953 0.82812-1.8828 0.82812-3.3438 0-1.457-0.27734-2.5664-0.82812-3.3281-0.55469-0.76953-1.3555-1.1562-2.4062-1.1562-1.0547 0-1.8594 0.38672-2.4219 1.1562-0.55469 0.77344-0.82812 1.8828-0.82812 3.3281 0 1.4492 0.27344 2.5586 0.82812 3.3281 0.5625 0.77344 1.3672 1.1562 2.4219 1.1562zm-3.25-9.9219c0.67578-0.88281 1.4219-1.5391 2.2344-1.9688 0.82031-0.42578 1.7656-0.64062 2.8281-0.64062 1.8945 0 3.4453 0.75 4.6562 2.25 1.207 1.5 1.8125 3.4336 1.8125 5.7969 0 2.3555-0.60547 4.2812-1.8125 5.7812-1.2109 1.5-2.7617 2.25-4.6562 2.25-1.0625 0-2.0078-0.21094-2.8281-0.625-0.8125-0.42578-1.5586-1.0859-2.2344-1.9844v2.2188h-4.8906v-21.281h4.8906z"
         id="path27" />
    </symbol>
    <symbol
       id="i"
       overflow="visible">
      <path
         d="m0.34375-15.312h4.8906l4.125 10.391 3.5-10.391h4.8906l-6.4375 16.766c-0.64844 1.6953-1.4023 2.8828-2.2656 3.5625-0.86719 0.6875-2 1.0312-3.4062 1.0312h-2.8438v-3.2188h1.5312c0.83203 0 1.4375-0.13672 1.8125-0.40625 0.38281-0.26172 0.67969-0.73047 0.89062-1.4062l0.14062-0.42188z"
         id="path30" />
    </symbol>
    <symbol
       id="h"
       overflow="visible">
      <path
         d="m2.5781-20.406h5.25v16.422h9.25v3.9844h-14.5z"
         id="path33" />
    </symbol>
    <symbol
       id="v"
       overflow="visible">
      <path
         d="m2.3594-21.281h4.8906v21.281h-4.8906z"
         id="path36" />
    </symbol>
    <symbol
       id="g"
       overflow="visible">
      <path
         d="m2.1875-5.9688v-9.3438h4.9219v1.5312c0 0.83594-0.007813 1.875-0.015625 3.125-0.011719 1.25-0.015625 2.0859-0.015625 2.5 0 1.2422 0.03125 2.1328 0.09375 2.6719 0.070313 0.54297 0.17969 0.93359 0.32812 1.1719 0.20703 0.32422 0.47266 0.57422 0.79688 0.75 0.32031 0.16797 0.69141 0.25 1.1094 0.25 1.0195 0 1.8203-0.39062 2.4062-1.1719 0.58203-0.78125 0.875-1.8672 0.875-3.2656v-7.5625h4.8906v15.312h-4.8906v-2.2188c-0.74219 0.89844-1.5234 1.5586-2.3438 1.9844-0.82422 0.41406-1.7344 0.625-2.7344 0.625-1.7617 0-3.1055-0.53906-4.0312-1.625-0.92969-1.082-1.3906-2.6602-1.3906-4.7344z"
         id="path39" />
    </symbol>
    <symbol
       id="u"
       overflow="visible">
      <path
         d="m2.3594-15.312h4.8906v15.312h-4.8906zm0-5.9688h4.8906v4h-4.8906z"
         id="path42" />
    </symbol>
    <symbol
       id="t"
       overflow="visible">
      <path
         d="m14.312-14.828v3.7188c-1.043-0.4375-2.0547-0.76562-3.0312-0.98438-0.98047-0.21875-1.9023-0.32812-2.7656-0.32812-0.92969 0-1.6211 0.11719-2.0781 0.34375-0.44922 0.23047-0.67188 0.58984-0.67188 1.0781 0 0.38672 0.17188 0.68359 0.51562 0.89062 0.34375 0.21094 0.95703 0.36719 1.8438 0.46875l0.85938 0.125c2.5078 0.32422 4.1953 0.85156 5.0625 1.5781 0.86328 0.73047 1.2969 1.8711 1.2969 3.4219 0 1.6367-0.60547 2.8672-1.8125 3.6875-1.1992 0.8125-2.9922 1.2188-5.375 1.2188-1.0234 0-2.0742-0.078125-3.1562-0.23438-1.0742-0.15625-2.1797-0.39453-3.3125-0.71875v-3.7188c0.96875 0.48047 1.9609 0.83984 2.9844 1.0781 1.0312 0.23047 2.0781 0.34375 3.1406 0.34375 0.95703 0 1.6758-0.12891 2.1562-0.39062 0.47656-0.26953 0.71875-0.66406 0.71875-1.1875 0-0.4375-0.16797-0.75781-0.5-0.96875-0.33594-0.21875-0.99609-0.38281-1.9844-0.5l-0.85938-0.10938c-2.1797-0.26953-3.7031-0.77344-4.5781-1.5156-0.875-0.73828-1.3125-1.8594-1.3125-3.3594 0-1.625 0.55078-2.8281 1.6562-3.6094 1.1133-0.78906 2.8203-1.1875 5.125-1.1875 0.89453 0 1.8359 0.074219 2.8281 0.21875 1 0.13672 2.082 0.35156 3.25 0.64062z"
         id="path45" />
    </symbol>
    <symbol
       id="s"
       overflow="visible">
      <path
         d="m2.5781-20.406h5.25v20.406h-5.25z"
         id="path48" />
    </symbol>
    <symbol
       id="c"
       overflow="visible">
      <path
         d="m9.6406-12.188c-1.0859 0-1.9141 0.39062-2.4844 1.1719-0.57422 0.78125-0.85938 1.9062-0.85938 3.375s0.28516 2.5938 0.85938 3.375c0.57031 0.77344 1.3984 1.1562 2.4844 1.1562 1.0625 0 1.875-0.38281 2.4375-1.1562 0.57031-0.78125 0.85938-1.9062 0.85938-3.375s-0.28906-2.5938-0.85938-3.375c-0.5625-0.78125-1.375-1.1719-2.4375-1.1719zm0-3.5c2.6328 0 4.6914 0.71484 6.1719 2.1406 1.4766 1.418 2.2188 3.3867 2.2188 5.9062 0 2.5117-0.74219 4.4805-2.2188 5.9062-1.4805 1.418-3.5391 2.125-6.1719 2.125-2.6484 0-4.7148-0.70703-6.2031-2.125-1.4922-1.4258-2.2344-3.3945-2.2344-5.9062 0-2.5195 0.74219-4.4883 2.2344-5.9062 1.4883-1.4258 3.5547-2.1406 6.2031-2.1406z"
         id="path51" />
    </symbol>
    <symbol
       id="r"
       overflow="visible">
      <path
         d="m12.422-21.281v3.2188h-2.7031c-0.6875 0-1.1719 0.125-1.4531 0.375-0.27344 0.25-0.40625 0.6875-0.40625 1.3125v1.0625h4.1875v3.5h-4.1875v11.812h-4.8906v-11.812h-2.4375v-3.5h2.4375v-1.0625c0-1.6641 0.46094-2.8984 1.3906-3.7031 0.92578-0.80078 2.3672-1.2031 4.3281-1.2031z"
         id="path54" />
    </symbol>
    <symbol
       id="q"
       overflow="visible">
      <path
         d="m16.547-12.766c0.61328-0.94531 1.3477-1.6719 2.2031-2.1719 0.85156-0.5 1.7891-0.75 2.8125-0.75 1.7578 0 3.0977 0.54688 4.0156 1.6406 0.92578 1.0859 1.3906 2.6562 1.3906 4.7188v9.3281h-4.9219v-7.9844-0.35938c0.007813-0.13281 0.015625-0.32031 0.015625-0.5625 0-1.082-0.16406-1.8633-0.48438-2.3438-0.3125-0.48828-0.82422-0.73438-1.5312-0.73438-0.92969 0-1.6484 0.38672-2.1562 1.1562-0.51172 0.76172-0.77344 1.8672-0.78125 3.3125v7.5156h-4.9219v-7.9844c0-1.6953-0.14844-2.7852-0.4375-3.2656-0.29297-0.48828-0.8125-0.73438-1.5625-0.73438-0.9375 0-1.6641 0.38672-2.1719 1.1562-0.51172 0.76172-0.76562 1.8594-0.76562 3.2969v7.5312h-4.9219v-15.312h4.9219v2.2344c0.60156-0.86328 1.2891-1.5156 2.0625-1.9531 0.78125-0.4375 1.6406-0.65625 2.5781-0.65625 1.0625 0 2 0.25781 2.8125 0.76562 0.8125 0.51172 1.4258 1.2305 1.8438 2.1562z"
         id="path57" />
    </symbol>
    <symbol
       id="p"
       overflow="visible">
      <path
         d="m17.75-9.3281v9.3281h-4.9219v-7.1094c0-1.3438-0.03125-2.2656-0.09375-2.7656s-0.16797-0.86719-0.3125-1.1094c-0.1875-0.3125-0.44922-0.55469-0.78125-0.73438-0.32422-0.17578-0.69531-0.26562-1.1094-0.26562-1.0234 0-1.8242 0.39844-2.4062 1.1875-0.58594 0.78125-0.875 1.8711-0.875 3.2656v7.5312h-4.8906v-21.281h4.8906v8.2031c0.73828-0.88281 1.5195-1.5391 2.3438-1.9688 0.83203-0.42578 1.75-0.64062 2.75-0.64062 1.7695 0 3.1133 0.54688 4.0312 1.6406 0.91406 1.0859 1.375 2.6562 1.375 4.7188z"
         id="path60" />
    </symbol>
    <symbol
       id="o"
       overflow="visible">
      <path
         d="m2.5781-20.406h5.875l7.4219 14v-14h4.9844v20.406h-5.875l-7.4219-14v14h-4.9844z"
         id="path63" />
    </symbol>
    <symbol
       id="n"
       overflow="visible">
      <path
         d="m17.75-9.3281v9.3281h-4.9219v-7.1406c0-1.3203-0.03125-2.2344-0.09375-2.7344s-0.16797-0.86719-0.3125-1.1094c-0.1875-0.3125-0.44922-0.55469-0.78125-0.73438-0.32422-0.17578-0.69531-0.26562-1.1094-0.26562-1.0234 0-1.8242 0.39844-2.4062 1.1875-0.58594 0.78125-0.875 1.8711-0.875 3.2656v7.5312h-4.8906v-15.312h4.8906v2.2344c0.73828-0.88281 1.5195-1.5391 2.3438-1.9688 0.83203-0.42578 1.75-0.64062 2.75-0.64062 1.7695 0 3.1133 0.54688 4.0312 1.6406 0.91406 1.0859 1.375 2.6562 1.375 4.7188z"
         id="path66" />
    </symbol>
    <symbol
       id="m"
       overflow="visible">
      <path
         d="m2.5781-20.406h8.7344c2.5938 0 4.582 0.57812 5.9688 1.7344 1.3945 1.1484 2.0938 2.7891 2.0938 4.9219 0 2.1367-0.69922 3.7812-2.0938 4.9375-1.3867 1.1562-3.375 1.7344-5.9688 1.7344h-3.4844v7.0781h-5.25zm5.25 3.8125v5.7031h2.9219c1.0195 0 1.8047-0.25 2.3594-0.75 0.5625-0.5 0.84375-1.2031 0.84375-2.1094 0-0.91406-0.28125-1.6172-0.84375-2.1094-0.55469-0.48828-1.3398-0.73438-2.3594-0.73438z"
         id="path69" />
    </symbol>
    <symbol
       id="l"
       overflow="visible">
      <path
         d="m2.3594-15.312h4.8906v15.031c0 2.0508-0.49609 3.6172-1.4844 4.7031-0.98047 1.082-2.4062 1.625-4.2812 1.625h-2.4219v-3.2188h0.85938c0.92578 0 1.5625-0.21094 1.9062-0.625 0.35156-0.41797 0.53125-1.2461 0.53125-2.4844zm0-5.9688h4.8906v4h-4.8906z"
         id="path72" />
    </symbol>
    <symbol
       id="k"
       overflow="visible">
      <path
         d="m14.719-14.828v3.9844c-0.65625-0.45703-1.3242-0.79688-2-1.0156-0.66797-0.21875-1.3594-0.32812-2.0781-0.32812-1.3672 0-2.4336 0.40234-3.2031 1.2031-0.76172 0.79297-1.1406 1.9062-1.1406 3.3438 0 1.4297 0.37891 2.543 1.1406 3.3438 0.76953 0.79297 1.8359 1.1875 3.2031 1.1875 0.75781 0 1.4844-0.10938 2.1719-0.32812 0.6875-0.22656 1.3203-0.56641 1.9062-1.0156v4c-0.76172 0.28125-1.5391 0.48828-2.3281 0.625-0.78125 0.14453-1.5742 0.21875-2.375 0.21875-2.7617 0-4.9219-0.70703-6.4844-2.125-1.5547-1.4141-2.3281-3.3828-2.3281-5.9062 0-2.5312 0.77344-4.5039 2.3281-5.9219 1.5625-1.4141 3.7227-2.125 6.4844-2.125 0.80078 0 1.5938 0.074219 2.375 0.21875 0.78125 0.13672 1.5547 0.35156 2.3281 0.64062z"
         id="path75" />
    </symbol>
  </defs>
  <path
     d="m 288.86,260.81 1.2812,26.254 c 0,0.0352 0.0273,0.043 0.0273,0.0664 0.004,0.0234 -0.0156,0.0352 -0.0117,0.0547 l 2.67579,17.328 c 0.004,0.0234 0.0352,0.0352 0.0352,0.0664 0.0117,0.0234 -0.0117,0.043 -0.004,0.0781 l 22.65601,79.262 0.30077,3.9141 -0.32031,37.23 -7.0742,44.469 c -0.0156,0.11719 0.0625,0.19531 0.0742,0.30859 0.0234,0.15234 0.0234,0.28516 0.10156,0.40234 0.0742,0.12891 0.17969,0.19531 0.29688,0.28516 0.0899,0.0781 0.125,0.18359 0.23438,0.23047 l 7.6484,2.9531 1.9023,1.0195 -0.80469,4.7148 v 0.0117 l -1.418,7.6992 c -0.004,0.0352 0.0234,0.0664 0.0234,0.10156 -0.004,0.0352 -0.043,0.0664 -0.043,0.10156 v 25.672 c 0,0.0781 0.0664,0.12891 0.0859,0.19531 0.0273,0.15234 0.0781,0.26172 0.15625,0.37891 0.0859,0.12891 0.15625,0.20703 0.28516,0.29688 0.0625,0.043 0.0781,0.11719 0.14453,0.15234 l 6.1484,2.6836 c 0.0234,0.0117 0.0391,0.0117 0.0625,0.0117 0.004,0.0117 0.0117,0.0117 0.0156,0.0234 l 6.3008,2.1992 c 0.125,0.043 0.25391,0.0664 0.37109,0.0664 h 0.0508 l 10.277,-0.4375 1.1797,4.4648 2.6758,13.496 c 0.0273,0.12891 0.125,0.20703 0.19141,0.32031 0.0508,0.0898 0.0742,0.17188 0.14063,0.24219 0.15234,0.15234 0.33984,0.21875 0.54687,0.27344 0.0547,0.0117 0.0898,0.0664 0.14453,0.0664 l 0.0664,0.0117 h 0.004 0.004 l 7.6328,0.46875 h 0.0742 c 0.0898,0 0.17188,-0.0117 0.26172,-0.0352 l 6.4688,-1.5742 c 0.0781,-0.0117 0.10156,-0.0898 0.16406,-0.11719 0.16406,-0.0781 0.28516,-0.15234 0.39062,-0.28516 0.0781,-0.10156 0.11719,-0.17188 0.16406,-0.28516 0.0351,-0.0781 0.10156,-0.12891 0.11719,-0.20703 l 1.2617,-7.5703 c 0,-0.0351 -0.0352,-0.0664 -0.0234,-0.11328 0.0117,-0.14062 -0.0547,-0.26172 -0.10156,-0.40234 -0.043,-0.14062 -0.0664,-0.26172 -0.16406,-0.37109 -0.0234,-0.0352 -0.0234,-0.0781 -0.043,-0.11328 l -3.2266,-3.0859 0.52734,-5.5117 4.7617,-4.7617 c 0.0352,-0.0352 0.0234,-0.0664 0.043,-0.10156 0.0898,-0.11328 0.11328,-0.24219 0.15234,-0.37109 0.043,-0.14062 0.11328,-0.26172 0.10156,-0.41406 0,-0.0352 0.0234,-0.0664 0.0234,-0.10156 l -1.5742,-9.4531 c -0.0117,-0.0234 -0.0352,-0.0351 -0.0352,-0.0547 -0.0117,-0.0234 0.0117,-0.0352 0,-0.0547 l -3.1484,-11.34 c 0,-0.0117 -0.0117,-0.0117 -0.0117,-0.0234 -0.0117,-0.0117 0,-0.0234 0,-0.0351 l -0.0117,-0.0117 -1.25,-3.7539 v -0.0117 l -3.3086,-10.074 3.6055,-0.11328 9.6836,4.3125 c 0.15234,0.0664 0.30859,0.10156 0.46094,0.10156 0.0898,0 0.18359,-0.0117 0.28516,-0.0352 0.043,-0.0117 0.0664,-0.0664 0.10156,-0.0781 0.18359,-0.0781 0.33984,-0.19531 0.46875,-0.35938 0.043,-0.0547 0.0899,-0.0781 0.11719,-0.14062 0.0117,-0.0234 0.0352,-0.0352 0.043,-0.0547 0.0547,-0.11719 0,-0.24219 0.0117,-0.35938 0.0117,-0.12891 0.0898,-0.25391 0.0547,-0.37891 l -15.227,-57.125 1.7188,-16.492 c 0,-0.0234 -0.0234,-0.0352 -0.0234,-0.0547 0,-0.0234 0.0234,-0.0351 0.0234,-0.0547 l 0.008,-14.996 25.969,-112.04 c 0,-0.0234 -0.0234,-0.043 -0.0117,-0.0781 0,-0.0234 0.0352,-0.043 0.0352,-0.0664 l 1.4102,-14.965 c 0,-0.0234 -0.0234,-0.043 -0.0234,-0.0664 0,-0.0352 0.0234,-0.043 0.0234,-0.0781 l -0.46875,-16.219 -0.62109,-25.07 12.062,-23.102 2.6484,5.5312 c 0.043,0.0781 0.11328,0.11328 0.16406,0.17188 0.0234,0.0352 0.0117,0.0898 0.043,0.11719 l 7.3906,7.7109 5.0117,5.7852 c 0.0234,0.0352 0.0664,0.0234 0.10156,0.043 0.20703,0.20703 0.46094,0.34766 0.75781,0.34766 0.0898,0 0.18359,-0.0117 0.27344,-0.0352 l 11.832,-3.0391 12.258,7.2617 16.309,14.32 -1.3008,7.4258 c -0.0117,0.0234 0.0234,0.043 0.0117,0.0781 -0.0117,0.14062 0.0547,0.26172 0.10156,0.40234 0.043,0.14062 0.0547,0.28516 0.14062,0.39062 0.0234,0.0234 0.0117,0.0547 0.0352,0.0781 l 2.1914,2.3516 0.0117,0.0117 c 0.21875,0.24219 0.51562,0.35938 0.81641,0.35938 0.26172,0 0.53906,-0.10156 0.74609,-0.29688 h 0.0117 c 0,-0.0117 0.0117,0 0.0117,-0.0117 l 10.062,-9.1211 c 0.0781,-0.0547 0.0664,-0.15234 0.11328,-0.23047 0.0898,-0.12891 0.15234,-0.23047 0.18359,-0.37891 0.0351,-0.14062 0.0117,-0.26172 -0.0117,-0.40234 -0.0117,-0.0898 0.0352,-0.17188 -0.0117,-0.26172 l -1.793,-4.0391 3.6172,-5.7852 c 0.0664,-0.11719 0.0351,-0.24219 0.0547,-0.35938 0.0351,-0.11719 0.11719,-0.21875 0.11328,-0.34766 l -0.63281,-6.4531 c -0.0117,-0.043 -0.043,-0.0547 -0.0547,-0.10156 -0.0234,-0.11328 -0.0781,-0.18359 -0.12891,-0.28516 -0.0898,-0.16406 -0.17187,-0.32031 -0.33984,-0.41406 -0.0234,-0.0234 -0.0234,-0.0547 -0.0547,-0.0664 l -9,-4.9766 -24.641,-24.488 -7.7891,-15.27 c -0.0117,-0.0234 -0.0352,-0.0234 -0.043,-0.0352 -0.0117,-0.0234 0,-0.043 -0.0117,-0.0547 l -9.1562,-14.582 -3.4336,-32.039 c -0.0234,-0.18359 -0.14062,-0.30859 -0.21875,-0.44922 -0.0351,-0.0547 -0.0234,-0.12891 -0.0664,-0.18359 l -0.0547,-0.0664 c -0.0234,-0.0117 -0.043,-0.043 -0.0664,-0.0547 l -14.996,-16.57 c -0.0234,-0.0234 -0.043,-0.0117 -0.0547,-0.0352 -0.0117,-0.0117 -0.0117,-0.0352 -0.0234,-0.043 l -8.5508,-7.8008 -0.91797,-4.472705 4.082,-5.1055 c 0.043,-0.04297 0.0234,-0.11328 0.043,-0.16406 0.0547,-0.08984 0.12891,-0.14062 0.16406,-0.24219 l 1.7305,-6.3008 c 0.0352,-0.14062 -0.0352,-0.27344 -0.0547,-0.41406 -0.0234,-0.14063 0.0234,-0.27344 -0.043,-0.40234 l -8.2383,-15.551 -1.707,-17.109 c -0.0117,-0.11328 -0.11328,-0.16406 -0.14062,-0.26172 -0.0352,-0.08984 0,-0.18359 -0.0664,-0.27344 l -14.812,-20.945 c -0.0547,-0.07813 -0.15234,-0.07813 -0.21875,-0.12891 -0.0664,-0.06641 -0.0899,-0.16406 -0.17188,-0.20703 l -9.918,-5.207 c -0.0664,-0.04297 -0.14062,0 -0.21875,-0.02344 -0.10938,0.01172 -0.14844,-0.06641 -0.22656,-0.06641 l -9.1289,-0.94141 c -0.0352,-0.01172 -0.0625,0.02344 -0.0937,0.02344 -0.0391,0 -0.0625,-0.03516 -0.10156,-0.03516 l -14.023,0.94141 c -0.10547,0.01172 -0.16406,0.10156 -0.25781,0.12891 -0.0937,0.02344 -0.19141,-0.01172 -0.27344,0.04297 l -16.855,10.871 c -0.004,0.01172 -0.004,0.02344 -0.0156,0.02344 -0.004,0.01172 -0.0156,0 -0.0273,0.01172 l -4.8789,3.4648 c -0.10156,0.06641 -0.10547,0.18359 -0.17188,0.27344 -0.0781,0.10156 -0.19141,0.15234 -0.23438,0.28516 l -2.6602,7.9688 -3.8984,7.8008 c -0.0391,0.06641 0.004,0.14062 -0.0156,0.21875 -0.0234,0.07813 -0.0937,0.11719 -0.10156,0.19531 l -0.78906,10.555 c -0.004,0.05469 0.043,0.08984 0.0508,0.14062 0,0.05469 -0.043,0.10156 -0.0352,0.15234 l 2.3633,12.129 c 0.004,0.03516 0.0391,0.04297 0.0508,0.07813 0.004,0.03516 -0.0156,0.05469 -0.004,0.08984 l 3.4219,9.4805 1.1523,11.405995 -4.8164,1.6055 c -0.0234,0.0117 -0.0273,0.0352 -0.0508,0.043 -0.0156,0.0117 -0.0391,-0.0117 -0.0625,0 l -0.0664,0.0352 -4.0391,1.8477 c -0.0156,0.0117 -0.0156,0.0352 -0.0273,0.0352 -0.0234,0.0117 -0.0391,0 -0.0547,0.0117 l -6.7695,3.7852 -4.3906,2.3516 c -0.0156,0.0117 -0.0156,0.0352 -0.0391,0.043 -0.0156,0.0117 -0.0391,0 -0.0547,0.0117 l -1.8945,1.2695 c -0.0117,0 -0.0117,0.0234 -0.0273,0.0352 -0.0117,0.0117 -0.0273,0 -0.0391,0.0117 l -0.0156,0.0117 c -0.0391,0.0352 -0.0781,0.043 -0.11328,0.0898 l -10.742,8.4102 c -0.0859,0.0664 -0.0898,0.17188 -0.14453,0.25391 -0.0625,0.0898 -0.16797,0.11719 -0.20703,0.23047 l -7.3711,19.129 -25.949,46.715 c -0.0547,0.10156 -0.0156,0.20703 -0.0391,0.32031 -0.0234,0.10156 -0.10547,0.17187 -0.10156,0.28516 l 0.62109,10.523 v 0.0117 0.0352 c 0.0156,0.26172 0.14062,0.46875 0.30859,0.65625 0.0234,0.0234 0.0117,0.0664 0.0391,0.0898 h 0.004 c 0.19531,0.19531 0.46875,0.30859 0.76562,0.30859 h 0.0664 c 0.19531,-0.0117 0.33984,-0.14062 0.49219,-0.24219 0.0859,-0.043 0.18359,-0.0352 0.25391,-0.11328 l 0.0234,-0.0234 h 0.004 l 4.543,-4.7695 1.5508,10.336 c 0.0234,0.12891 0.125,0.23047 0.19141,0.33984 0.043,0.0781 0.0234,0.16406 0.0859,0.23047 l 6.4531,7.2539 c 0.22266,0.25391 0.53125,0.37109 0.83594,0.37109 0.21094,0 0.42188,-0.0547 0.60938,-0.17188 l 7.7227,-5.0508 h 0.0117 l 2.1289,-1.4219 -5.6406,18.648 -6.2734,6.5859 c -0.0664,0.0664 -0.0508,0.16406 -0.0937,0.24219 -0.043,0.0781 -0.13281,0.11328 -0.16406,0.19531 l -4.7266,14.801 c -0.0234,0.0781 0.0273,0.15234 0.0234,0.23047 -0.0117,0.0781 -0.0781,0.12891 -0.0742,0.21875 l 1.418,14.645 c 0.004,0.043 0.043,0.0664 0.0547,0.11328 0.0273,0.12891 0.10156,0.20703 0.16406,0.33203 0.0859,0.12891 0.15234,0.25391 0.28516,0.33984 0.0391,0.0352 0.043,0.0898 0.0898,0.11328 l 10.395,5.5117 c 0.11719,0.0547 0.23438,0.0664 0.35156,0.0899 0.0273,0 0.043,0.0351 0.0742,0.0351 l 12.441,1.1016 c 0.0352,0.0117 0.0664,0.0117 0.10156,0.0117 0.21094,0 0.42578,-0.0664 0.60938,-0.18359 l 4.0938,-2.6836 c 0.0508,-0.0351 0.0508,-0.0898 0.0899,-0.12891 0.043,-0.0351 0.10156,-0.0234 0.13281,-0.0547 z m -7.7852,5.3398 -3.6445,2.3867 -11.828,-1.0547 -9.6641,-5.1172 -1.332,-13.828 4.5742,-14.34 6.2773,-6.5859 c 0.043,-0.043 0.0352,-0.11719 0.0664,-0.17188 0.0664,-0.10156 0.16406,-0.16406 0.19531,-0.27344 l 6.5312,-21.609 17.109,-16 c 0.0234,-0.0234 0.0156,-0.0664 0.0391,-0.0898 0.0156,-0.0117 0.0508,-0.0117 0.0664,-0.0352 l 4.7617,-5.875 -2.3242,14.449 c -0.0156,0.0898 0.0508,0.15234 0.0625,0.24219 0.004,0.15234 0.0273,0.27344 0.0937,0.40234 0.0664,0.12891 0.14453,0.21875 0.25781,0.32031 0.0664,0.0547 0.0859,0.15234 0.16406,0.19531 l 2.043,1.1016 1.8594,1.082 h 0.0234 c 0.004,0.0117 0.004,0.0117 0.0117,0.0234 l 3.3086,1.7695 -9.2188,34.746 c -0.004,0.0234 0.0117,0.043 0.0117,0.0664 -0.004,0.0234 -0.0352,0.0352 -0.0391,0.0547 l -2.043,13.859 c -0.004,0.043 0.0273,0.0781 0.0273,0.11719 0,0.0352 -0.0391,0.0664 -0.0391,0.11328 l 0.29297,5.5234 z m -22.066,-54.465 -5.5898,-6.2773 -1.8438,-12.27 c -0.0234,-0.12891 -0.12891,-0.20703 -0.19531,-0.32031 -0.0547,-0.11328 -0.0508,-0.24219 -0.14062,-0.33203 -0.0234,-0.0234 -0.0508,-0.0117 -0.0742,-0.0234 -0.11328,-0.10156 -0.24609,-0.11328 -0.37891,-0.15234 -0.14062,-0.043 -0.26172,-0.11719 -0.41406,-0.10156 -0.0234,0 -0.043,-0.0234 -0.0664,-0.0234 -0.125,0.0234 -0.19531,0.12891 -0.30859,0.18359 -0.11719,0.0547 -0.24609,0.0547 -0.33984,0.15234 l -4.375,4.5938 -0.44922,-7.668 25.828,-46.484 c 0.0117,-0.0234 -0.004,-0.043 0.004,-0.0664 0.0156,-0.0352 0.0508,-0.043 0.0625,-0.0781 l 7.293,-18.922 10.309,-8.0703 5.6289,0.14062 7.0938,3.7734 8.2539,6.1836 -0.54688,6.2422 -3.2031,5.9414 c -0.043,0.0781 -0.004,0.16406 -0.0273,0.25391 -0.0234,0.0781 -0.10156,0.11719 -0.10547,0.19531 l -0.44141,6.4023 -7.75,8.9727 -16.777,15.523 -21.531,16.66 c -0.0352,0.0352 -0.0274,0.0781 -0.0625,0.11328 -0.11328,0.10156 -0.14453,0.21875 -0.20703,0.35938 -0.0625,0.12891 -0.125,0.25391 -0.125,0.39062 -0.004,0.043 -0.043,0.0664 -0.0391,0.11328 l 0.63281,8.3438 c 0.004,0.043 0.0508,0.0781 0.0547,0.11719 0.0117,0.043 -0.0234,0.0781 -0.0117,0.12891 l 2.043,6.6211 c 0.0234,0.0664 0.0899,0.11328 0.125,0.16406 0.0234,0.043 0,0.10156 0.0274,0.14062 l 3.6016,5.1875 z m 45.629,-104.82 12.008,22.309 h -0.18359 l -3.293,-5.3047 c -0.0234,-0.0352 -0.0742,-0.0352 -0.10156,-0.0664 -0.0234,-0.0352 -0.0117,-0.0781 -0.0391,-0.11328 l -2.2578,-2.4062 -5.293,-9.8008 c -0.0117,-0.0352 -0.0508,-0.0352 -0.0664,-0.0547 -0.0117,-0.0234 0,-0.0547 -0.0156,-0.0781 l -2.6602,-3.6172 z m 7.4648,20.289 -0.34766,-1.3008 1.3672,2.2109 z m -11.395,-18.398 2.832,3.8594 2.6094,4.832 -5.4023,-3.9688 c -0.0234,-0.0234 -0.0508,0 -0.0664,-0.0234 -0.0234,-0.0117 -0.0234,-0.043 -0.043,-0.0547 l -4.0938,-2.3203 z m -6.4688,3.5977 5.2344,2.9727 7,5.1406 2.5938,2.2852 0.63672,0.67578 -7.375,-5.5312 c -0.0273,-0.0117 -0.0625,0 -0.0937,-0.0234 -0.0234,-0.0117 -0.0273,-0.0547 -0.0547,-0.0664 l -7.4023,-3.9375 c -0.0859,-0.043 -0.17188,0 -0.26172,-0.0234 -0.0898,-0.0234 -0.14062,-0.11328 -0.23438,-0.11328 l -2.5078,-0.0664 z m -27.41,94.195 -3.5234,-5.0742 -1.9648,-6.3555 -0.58203,-7.5977 21.105,-16.34 c 0.0156,-0.0117 0.0117,-0.0234 0.0273,-0.043 0.0117,-0.0117 0.0352,0 0.0508,-0.0117 l 16.855,-15.586 c 0.0156,-0.0234 0.0117,-0.0547 0.0273,-0.0664 0.0156,-0.0234 0.043,-0.0117 0.0625,-0.0352 l 8.0312,-9.2852 c 0.0781,-0.0898 0.0547,-0.20703 0.10156,-0.30859 0.0547,-0.11719 0.15625,-0.20703 0.16797,-0.34766 l 0.45312,-6.5391 3.1992,-5.9297 c 0.0391,-0.0664 0,-0.14062 0.0234,-0.20703 0.0273,-0.0898 0.10547,-0.14062 0.11328,-0.23047 l 0.28516,-3.2031 1.7969,1.5859 c 0.11719,0.11328 0.28516,0.11719 0.42969,0.16406 0.0859,0.0352 0.12891,0.11328 0.21875,0.11328 l 2.043,0.16406 c 0.0273,0.0117 0.0625,0.0117 0.0898,0.0117 h 2.6562 l 7.1328,0.4375 0.55469,0.49219 -0.28125,4.1758 c 0,0.0234 0.0273,0.043 0.0273,0.0781 0,0.15234 0.0781,0.26172 0.12891,0.40234 0.0625,0.12891 0.0899,0.26172 0.19531,0.37109 0.0234,0.0234 0.0156,0.0547 0.0391,0.0781 l 2.6719,2.2383 0.3125,2.1914 -2.2383,1.4883 c -0.0273,0.0234 -0.0273,0.0547 -0.0547,0.0781 -0.0274,0.0234 -0.0664,0.0117 -0.0937,0.043 -0.0899,0.0781 -0.0899,0.20703 -0.14062,0.30859 -0.0742,0.12891 -0.15234,0.24219 -0.17188,0.37891 -0.0156,0.14063 0.043,0.26172 0.0859,0.40234 0.0274,0.11328 -0.004,0.24219 0.0664,0.33984 0.0156,0.0352 0.0547,0.0234 0.0781,0.043 0.0234,0.0352 0.0117,0.0781 0.0391,0.10156 l 2.1172,2.2617 0.35156,2.8242 -4.1484,3.6289 -3.5117,-0.94141 c -0.0625,-0.0234 -0.11719,0.0234 -0.16797,0.0234 -0.15234,-0.0234 -0.26953,0 -0.41406,0.043 -0.13281,0.043 -0.24219,0.0781 -0.35156,0.16406 -0.0547,0.043 -0.125,0.0351 -0.17188,0.0898 l -7.207,7.8164 -2.0703,0.6875 -2.4844,0.60937 c -0.12891,0.0352 -0.19141,0.15234 -0.29688,0.21875 -0.10156,0.0664 -0.22266,0.0664 -0.30078,0.16406 l -13.066,16.219 h -0.004 l -7.3477,9.0781 -17.191,16.09 z m 72.418,-56.363 4.2188,6.1719 -2.7383,13.242 c -0.0234,0.11719 0.0508,0.21875 0.0664,0.33203 0.0156,0.15234 0.0117,0.27344 0.0781,0.40234 0.0664,0.12891 0.17187,0.19531 0.29297,0.29688 0.0899,0.0664 0.11719,0.18359 0.23047,0.23047 l 16.223,6.9336 c 0.10156,0.043 0.20703,0.0547 0.32031,0.0664 0.0234,0 0.0352,0.0234 0.043,0.0234 h 0.0781 c 0.25391,0 0.48047,-0.11328 0.67578,-0.27344 0.0664,-0.0547 0.10156,-0.11328 0.15234,-0.17188 0.0664,-0.0781 0.15234,-0.12891 0.19531,-0.23047 0.0234,-0.0664 -0.0117,-0.12891 0,-0.18359 0.0234,-0.0781 0.0781,-0.11328 0.0898,-0.18359 l 0.44922,-6.9453 1.8828,-2.7773 4.3125,12.531 c 0.0117,0.0234 0.0352,0.0352 0.043,0.043 0.0234,0.0664 0.0781,0.10156 0.11328,0.15234 0.11328,0.17188 0.24219,0.32031 0.42578,0.40234 0.0352,0.0234 0.043,0.0664 0.0781,0.0781 l 4.0977,1.5742 c 0.12891,0.0547 0.27344,0.0781 0.40234,0.0781 0.27344,0 0.52734,-0.12891 0.72266,-0.32031 0.0352,-0.0234 0.0781,-0.0117 0.10156,-0.043 l 7.0898,-7.7109 c 0.043,-0.043 0.0352,-0.11328 0.0547,-0.15234 0.0899,-0.12891 0.11328,-0.24219 0.14062,-0.39062 0.0352,-0.14063 0.0547,-0.26172 0.0352,-0.41407 -0.0117,-0.0547 0.0234,-0.10156 0.0117,-0.15234 l -4.6797,-13.887 -0.55859,-8.2383 2.1328,-0.23047 1.2617,7.7656 c 0.0234,0.12891 0.11719,0.21875 0.18359,0.33203 0.0351,0.0781 0.0234,0.17188 0.0781,0.24219 l 6.1367,6.8867 -1.0547,13.562 -7.6758,23.66 c -0.0351,0.11328 0.0352,0.21875 0.0352,0.33203 -0.0117,0.11719 -0.0781,0.23047 -0.0352,0.34766 l 4.9883,16.066 v 3.4336 0.0234 0.0117 l 0.59766,24.348 -11.352,1.4453 -22.27,0.46875 -28.195,-2.6602 -18.969,-4.8203 -6.8672,-4.1992 9.2344,-34.793 c 0.0273,-0.11328 -0.0391,-0.20703 -0.043,-0.32031 0,-0.14062 0.004,-0.26172 -0.0547,-0.40234 -0.0547,-0.12891 -0.15234,-0.21875 -0.26172,-0.32031 -0.0781,-0.0781 -0.0937,-0.18359 -0.19141,-0.24219 l -3.1758,-1.707 16.504,-37.297 6.832,-7.4141 3.4336,0.92969 c 0.0937,0.0352 0.19141,0.043 0.29297,0.043 0.26172,0 0.50391,-0.11328 0.69922,-0.26172 0.0117,-0.0117 0.0273,-0.0117 0.0391,-0.0234 l 5.0391,-4.418 c 0.0273,-0.0234 0.0234,-0.0664 0.0508,-0.10156 0.10156,-0.10156 0.12891,-0.23047 0.17969,-0.35938 0.0547,-0.14062 0.11719,-0.26172 0.11719,-0.41406 0,-0.0351 0.0352,-0.0664 0.0273,-0.10156 l -0.26953,-2.1797 z m -42.207,29.871 12.461,-15.457 -14.984,33.117 -0.29297,-0.15234 z m 61.988,319.79 c -0.0898,-0.0117 -0.15234,-0.0664 -0.24219,-0.0664 -0.0117,0.0117 -0.0234,-0.0117 -0.043,-0.0117 l -12.602,0.94141 c -0.11328,0.0117 -0.16797,0.10156 -0.26953,0.14062 -0.10156,0.0351 -0.20703,0 -0.29688,0.0664 l -3.9414,2.7773 -0.86328,-4.4062 1.9766,-4.4961 4.0586,-3.4766 4.0977,-1.6523 6.1953,3.0391 1.9883,7.1641 c -0.0156,-0.008 -0.0391,-0.0195 -0.0586,-0.0195 z m -28.859,16.918 -6.0156,-2.1016 -5.4727,-2.3867 v -17.879 l 1.9219,5.7383 c 0.0156,0.0547 0.0664,0.0781 0.0937,0.12891 0.0156,0.0352 -0.004,0.0781 0.0156,0.11328 l 3.3047,5.3477 c 0.0117,0.0234 0.043,0.0117 0.0625,0.0352 0.17969,0.26172 0.44141,0.46094 0.78516,0.49219 0.0391,0.0117 0.0781,0.0117 0.11328,0.0117 0.20312,0 0.40234,-0.0547 0.58984,-0.17188 0.0352,-0.0117 0.0352,-0.0547 0.0625,-0.0781 0.12891,-0.10156 0.19531,-0.24219 0.27344,-0.37891 0.0625,-0.11328 0.13281,-0.18359 0.15234,-0.30859 0.004,-0.0352 0.0391,-0.043 0.0391,-0.0781 l 0.28125,-2.918 2.9062,-3.0312 6.4023,-0.42578 2.9688,1.1133 1.0977,5.6211 -1.2227,6.082 c -0.0156,0.10156 0.0508,0.17188 0.0508,0.26172 0.004,0.10156 -0.0547,0.17187 -0.0273,0.26172 l 1.1875,4.1445 z m 6.4141,-35.621 4.1172,-1.2617 v 14.004 l -1.1523,2.6367 -2.1797,-4.3516 1.1328,0.33984 c 0.10547,0.0352 0.21094,0.0547 0.32422,0.0547 0.0937,0 0.19141,-0.0117 0.28516,-0.043 0.0547,-0.0117 0.0781,-0.0781 0.125,-0.10156 0.16797,-0.0664 0.29688,-0.16406 0.41406,-0.30859 0.0625,-0.0781 0.11719,-0.14062 0.15625,-0.23047 0.0234,-0.043 0.0742,-0.0781 0.0898,-0.11719 0.0352,-0.11328 -0.0351,-0.20703 -0.0351,-0.30859 0.004,-0.11328 0.0742,-0.19531 0.043,-0.30859 l -0.62109,-2.3633 c -0.0117,-0.0352 -0.043,-0.043 -0.0547,-0.0781 -0.0547,-0.14062 -0.15625,-0.21875 -0.26172,-0.33984 -0.10156,-0.11328 -0.16797,-0.21875 -0.30859,-0.28516 -0.0273,-0.0117 -0.0352,-0.043 -0.0625,-0.0547 l -3.832,-1.4766 -2.5547,-2.9961 z m 11.215,6.6484 2.2891,-0.20703 -3.7539,1.5 z m -11.562,8.8906 c -0.0664,-0.0234 -0.12891,0.0234 -0.19531,0.0117 -0.0742,-0.0117 -0.11719,-0.0781 -0.19531,-0.0781 h -0.0781 l -7.0273,0.46875 c -0.0117,0 -0.0156,0.0117 -0.0274,0.0117 h -0.0351 c -0.10156,0 -0.15625,0.0899 -0.25391,0.11719 -0.16797,0.0547 -0.34766,0.0781 -0.48047,0.21875 l -3.3828,3.5234 c -0.0117,0.0117 -0.0156,0.0234 -0.0274,0.0234 l -0.0625,0.0664 c -0.0664,0.0781 -0.0547,0.17187 -0.10156,0.25391 -0.0781,0.14062 -0.19141,0.25391 -0.20703,0.41406 l -1.4883,-2.4062 -1.8359,-5.5117 0.6875,-1.082 3.8086,-2.5469 4.2266,-0.27344 4.8555,1.3906 2.9102,5.8203 z m -13.199,-8.9219 5.0195,-1.1367 5.6836,1.9375 h 0.0117 l 2.0273,0.78906 -0.21875,-0.0664 h -0.004 l -0.0273,-0.0117 h -0.004 c -0.004,0 -0.004,-0.0117 -0.0117,-0.0117 l -5.5117,-1.5742 c -0.0547,-0.0117 -0.10156,0.0234 -0.15234,0.0234 -0.0547,-0.0117 -0.0937,-0.0664 -0.15234,-0.0664 -0.0234,0 -0.0508,0 -0.0742,0.0117 l -4.7266,0.30859 c -0.10156,0.0117 -0.15625,0.10156 -0.24609,0.11719 -0.10547,0.0352 -0.21094,0 -0.30859,0.0664 l -4.2578,2.8438 c -0.0742,0.043 -0.0742,0.12891 -0.125,0.18359 -0.004,0.0117 -0.0117,0.0117 -0.0156,0.0117 l -0.40234,-1.1719 z m 7.5664,-2.6484 -1.2148,-0.40234 0.69922,-0.18359 z m -8.8945,-8.6172 c 0.17969,0.11328 0.37891,0.16406 0.58203,0.16406 0.0391,0 0.0781,-0.0117 0.11719,-0.0117 l 3.7109,-0.37109 1.5352,7.6562 c 0.004,0.0234 0.0156,0.0234 0.0234,0.0352 0,0.0234 -0.0117,0.0352 -0.004,0.043 0.043,0.15234 0.15234,0.24219 0.24609,0.35938 -0.0156,0 -0.0351,-0.0117 -0.0508,-0.0117 l -5.5117,1.2617 c -0.0742,0.0234 -0.10156,0.0898 -0.16406,0.11719 -0.0664,0.0234 -0.12891,0 -0.19141,0.0352 l -3.1406,2.0234 -0.14453,-0.51563 1.3711,-7.4492 v -0.0117 c 0,0 0.004,0 0.004,-0.0117 l 0.66797,-3.8906 z m 29.77,10.961 0.72266,-0.0664 3.6797,1.5742 0.26172,0.76562 z m 1.3398,-2.2461 c -0.0859,-0.0352 -0.16406,0.0117 -0.25391,0 -0.10547,-0.0234 -0.17188,-0.10156 -0.29688,-0.0898 l -5.0391,0.46875 c -0.125,0.0117 -0.20312,0.11719 -0.3125,0.16406 -0.11328,0.0547 -0.23438,0.0352 -0.33203,0.11719 l -3.6445,3.2266 v -9.9023 l 4.5547,-1.3008 4.6992,-0.12891 2.7422,8.3555 z m -9.1289,37.324 c -0.004,-0.0117 0.0117,-0.0234 0.004,-0.0352 l -1.4219,-5.3594 c 0,-0.0117 -0.004,-0.0117 -0.004,-0.0117 v -0.0117 l -1.5,-5.2539 1.1211,-5.6016 4.7383,-3.3477 11.77,-0.875 1.7461,1.7461 1.4219,8.5195 -4.5469,4.5469 c -0.0117,0.0117 -0.0234,0.0234 -0.0234,0.0234 l -0.0664,0.0664 c -0.0781,0.0781 -0.0664,0.18359 -0.11328,0.28516 -0.0781,0.12891 -0.19531,0.24219 -0.20703,0.39062 l -0.62109,6.4609 c 0,0.0234 0.0234,0.043 0.0234,0.0664 -0.0117,0.15234 0.0664,0.26172 0.11719,0.40234 0.0547,0.12891 0.0664,0.27344 0.16406,0.37891 0.0234,0.0117 0.0117,0.043 0.0352,0.0664 l 3.1914,3.0508 -1.043,6.2422 -5.5898,1.3672 -6.6758,-0.41406 -2.5078,-12.699 c 0.004,0.0117 -0.008,0 -0.0117,-0.004 z m 82.113,-326.38 4.3633,-2.5586 24.27,24.121 c 0.043,0.043 0.10156,0.0352 0.14062,0.0664 0.0391,0.0351 0.0547,0.10156 0.10156,0.11719 l 8.6172,4.7617 0.53906,5.4883 -3.7305,5.9688 c -0.0234,0.0352 0,0.0781 -0.0234,0.11328 -0.0664,0.12891 -0.0547,0.26172 -0.0664,0.40234 -0.0117,0.15234 -0.0352,0.28516 0.0117,0.42578 0.0117,0.0351 -0.0117,0.0781 0,0.11328 l 1.7188,3.832 -8.6641,7.8516 -1.0586,-1.1484 1.3086,-7.4922 c 0.0117,-0.043 -0.0352,-0.0898 -0.0352,-0.12891 0.0117,-0.15234 -0.043,-0.26172 -0.0898,-0.40234 -0.0547,-0.14062 -0.0898,-0.26172 -0.18359,-0.37109 -0.0352,-0.043 -0.0234,-0.10156 -0.0664,-0.12891 l -16.844,-14.801 c -0.0352,-0.0234 -0.0781,-0.0117 -0.11328,-0.0352 -0.0352,-0.0234 -0.0352,-0.0664 -0.0664,-0.0898 l -12.395,-7.3398 -1.8477,-5.5312 0.58984,-7.3789 z m -13.613,-33.832 c 0.0234,0.0781 -0.0117,0.15234 0.0352,0.21875 l 9.2734,14.766 7.3711,14.449 -4.4531,2.6133 c -0.0899,0.0547 -0.10156,0.15234 -0.16406,0.21875 -0.0781,0.0664 -0.17188,0.0781 -0.23047,0.17188 l -3.7852,6.3008 c -0.043,0.0781 -0.0117,0.16406 -0.0352,0.24219 -0.0352,0.0898 -0.11328,0.14062 -0.11719,0.24219 l -0.62109,7.875 c -0.0117,0.0898 0.0547,0.14062 0.0664,0.21875 0.0117,0.0781 -0.043,0.15234 -0.0117,0.23047 l 1.6641,5 -10.445,2.6836 -4.5938,-5.3047 c 0,0 -0.0117,0 -0.0234,-0.0117 -0.0117,-0.0117 0,-0.0234 -0.0117,-0.0352 l -7.2852,-7.582 -3.543,-7.4023 c -0.0547,-0.11719 -0.17188,-0.15234 -0.26172,-0.24219 -0.0898,-0.0899 -0.11328,-0.20703 -0.23047,-0.26172 -0.0234,-0.0234 -0.0547,0 -0.0781,-0.0117 -0.14062,-0.0547 -0.27344,-0.0352 -0.41406,-0.0352 -0.15234,-0.0117 -0.29687,-0.0351 -0.42578,0.0234 -0.0352,0.0117 -0.0547,-0.0117 -0.0781,0 -0.11328,0.0547 -0.14062,0.17188 -0.23047,0.25391 -0.0898,0.0898 -0.21875,0.11719 -0.28516,0.24219 l -11.266,21.59 -4.832,-15.551 7.5977,-23.441 c 0.0234,-0.043 -0.0117,-0.0898 -0.0117,-0.12891 0.0117,-0.0547 0.0547,-0.0781 0.0664,-0.12891 l 1.1016,-14.172 c 0,0 -0.0117,0 -0.0117,-0.0117 0.0117,-0.14062 -0.0781,-0.27344 -0.12891,-0.41406 -0.043,-0.12891 -0.043,-0.28516 -0.12891,-0.39062 -0.0117,0 0,0 -0.0117,-0.0117 l -6.2344,-7 -1.3555,-8.4336 v -0.0117 l -0.0117,-0.0547 c -0.0117,-0.0547 -0.0664,-0.0899 -0.0898,-0.14062 -0.0664,-0.23047 -0.17188,-0.44922 -0.35938,-0.58203 -0.0352,-0.0234 -0.0781,-0.0117 -0.11328,-0.0352 -0.19531,-0.11328 -0.39062,-0.21875 -0.67578,-0.17188 l -3.0391,0.33203 -0.0781,-2.1992 h 4.0391 c 0.20703,0 0.42578,-0.0664 0.60938,-0.18359 l 11.027,-7.2422 v -0.0117 h 0.0117 l 12.602,-8.5117 c 0.51563,-0.33984 0.64453,-1.043 0.30859,-1.5508 -0.34766,-0.51562 -1.043,-0.64453 -1.5625,-0.29688 l -12.602,8.5117 -10.719,7.043 h -3.8594 l -0.20703,-1.9805 c -0.0352,-0.32031 -0.18359,-0.58203 -0.41406,-0.76562 l -0.8125,-0.66797 3.3047,-3.6836 c 0.043,-0.043 0.0234,-0.10156 0.0547,-0.15234 0.0234,-0.0234 0.0664,-0.0117 0.0898,-0.043 l 4.6797,-8.2891 7.8164,-10.008 c 0.37891,-0.48047 0.29687,-1.1797 -0.18359,-1.5625 -0.48047,-0.37891 -1.2031,-0.30859 -1.5742,0.18359 l -7.875,10.074 c -0.0117,0.0352 0,0.0664 -0.0234,0.0898 -0.0117,0.0234 -0.0547,0.0234 -0.0664,0.0547 l -4.6602,8.25 -3.2812,3.6523 -3.1094,-2.7344 c -0.46094,-0.41406 -1.1719,-0.37109 -1.5742,0.10156 -0.40234,0.46094 -0.35938,1.1719 0.10156,1.5742 l 3.9258,3.457 v 0.0117 h 0.0117 v 0.0117 h 0.0234 c 0,0.0117 0,0.0234 0.0117,0.0234 l 1.3672,1.125 0.26172,2.4922 0.15234,4.5312 c 0,0.0117 0.0117,0.0117 0.0117,0.0234 v 0.0547 0.0117 l 0.63281,9.3984 c 0,0.0547 0.0547,0.0898 0.0664,0.14062 0.0117,0.043 -0.0352,0.0898 -0.0117,0.14062 l 4.5078,13.402 -6.125,6.6602 -2.8906,-1.1133 -4.8672,-14.152 c -0.043,-0.11719 -0.16406,-0.17188 -0.25391,-0.27344 -0.0664,-0.10156 -0.0781,-0.21875 -0.18359,-0.28516 -0.0234,-0.0234 -0.0547,-0.0117 -0.0781,-0.0234 -0.12891,-0.0781 -0.26172,-0.0664 -0.41406,-0.0898 -0.15234,-0.0234 -0.27344,-0.0547 -0.41406,-0.0234 -0.0352,0.0117 -0.0547,-0.0117 -0.0899,0 -0.11719,0.0352 -0.17188,0.15234 -0.26172,0.23047 -0.10156,0.0781 -0.21875,0.0898 -0.29688,0.19531 l -3.3164,4.8789 c -0.0547,0.0899 -0.0234,0.19531 -0.0547,0.28516 -0.0351,0.10156 -0.12891,0.16406 -0.12891,0.27344 l -0.37109,5.668 -13.922,-5.9414 2.6484,-12.82 -0.004,-0.0117 c 0.0273,-0.11719 -0.0508,-0.24219 -0.0664,-0.35938 -0.0273,-0.16406 -0.0117,-0.33984 -0.10156,-0.46875 -0.004,-0.0117 0,-0.0117 -0.004,-0.0117 l -4.7266,-6.9219 c -0.0937,-0.14062 -0.25781,-0.18359 -0.39062,-0.26172 -0.10156,-0.0664 -0.15625,-0.17188 -0.27344,-0.19531 l -0.043,-0.0117 h -0.0156 l -9.5273,-2.2734 -1.2305,-1.3086 1.7305,-1.1484 c 0.0625,-0.043 0.0625,-0.11719 0.10547,-0.16406 0.11719,-0.10156 0.17188,-0.20703 0.24219,-0.34766 0.0625,-0.12891 0.10156,-0.24219 0.10156,-0.39063 0.004,-0.0664 0.0625,-0.11719 0.0508,-0.18359 l -0.46875,-3.3164 c -0.0234,-0.14062 -0.14062,-0.23047 -0.21094,-0.34766 -0.0664,-0.11719 -0.0742,-0.25391 -0.17188,-0.33984 l -2.5859,-2.2109 0.28125,-4.1562 c 0,-0.0234 -0.0234,-0.043 -0.0234,-0.0664 0,-0.15234 -0.0781,-0.26172 -0.13281,-0.40234 -0.0547,-0.12891 -0.0859,-0.27344 -0.18359,-0.37109 -0.0156,-0.0234 -0.0117,-0.0547 -0.0352,-0.0781 l -1.2617,-1.1016 c -0.10156,-0.0781 -0.22266,-0.0664 -0.33594,-0.11328 -0.11719,-0.0547 -0.19531,-0.15234 -0.33594,-0.16406 l -6.9336,-0.42969 -12.465,-23.168 4.3789,-1.4688 h 0.004 l 4.9453,-1.5391 12.27,-1.2812 0.54297,7.6875 -0.92969,6.668 c -0.0156,0.12891 0.0664,0.23047 0.10156,0.35938 0.0234,0.12891 -0.0156,0.26172 0.0625,0.37891 l 1.9727,3.168 1.6875,5.9922 c 0.0156,0.0664 0.0859,0.10156 0.11719,0.16406 0.043,0.0898 0.0937,0.15234 0.15625,0.23047 0.125,0.14062 0.26172,0.23047 0.42969,0.29688 0.0625,0.0234 0.0898,0.0898 0.14453,0.10156 l 4.8945,1.0078 5.7305,8.9023 c 0.0234,0.0351 0.0742,0.0234 0.10156,0.0547 0.21094,0.26172 0.50391,0.46094 0.83984,0.46094 0.14062,0 0.29297,-0.0352 0.42969,-0.0898 l 3.4844,-1.457 5.4727,0.88672 4.7266,0.94141 c 0.0781,0.0117 0.14062,0.0234 0.21875,0.0234 0.0664,0 0.14062,-0.0117 0.21875,-0.0234 l 5.3594,-1.0938 c 0.043,-0.0117 0.0664,-0.0547 0.10156,-0.0664 0.19531,-0.0664 0.37109,-0.17188 0.50391,-0.34766 0.043,-0.043 0.0898,-0.0664 0.11719,-0.11719 0.0117,-0.0234 0.043,-0.0352 0.0547,-0.0547 l 3.8203,-7.4805 3.8711,-2.8438 c 0.0117,-0.0117 0.0117,-0.0234 0.0234,-0.0352 0.0117,-0.0117 0.0352,-0.0117 0.043,-0.0234 l 1.1016,-0.94141 c 0.0352,-0.0234 0.0234,-0.0547 0.043,-0.0898 0.0234,-0.0234 0.0664,-0.0117 0.0781,-0.0352 l 5.5547,-6.4727 4.8984,-3.0625 c 0.0234,-0.0117 0.0234,-0.0352 0.0352,-0.043 0.21875,-0.15234 0.39062,-0.35938 0.46094,-0.63281 l 1.4219,-5.6797 c 0.0117,-0.0117 -0.0117,-0.0352 0,-0.043 0.0234,-0.14063 -0.043,-0.26172 -0.0664,-0.40234 -0.0234,-0.15234 -0.0117,-0.29688 -0.10156,-0.42578 -0.0117,-0.0117 0,-0.0352 -0.0117,-0.043 l -0.34766,-0.49219 0.29688,-0.44922 7.8008,7.1133 14.828,16.387 3.4336,31.926 c 0.004,0.10547 0.082,0.17578 0.12891,0.25781 z m -87.938,-76.645 -1.4844,-4.7266 -0.62109,-8.2266 v -0.01172 l -0.46094,-6.8984 1.0625,-4.5586 c 0.0156,-0.08984 -0.0391,-0.15234 -0.0391,-0.23047 0.004,-0.08984 0.0664,-0.15234 0.0508,-0.24219 l -0.89062,-4.5938 3.1484,-9.1328 3.6914,-4.4297 4.8281,-3.2148 5.3203,-0.42578 7.3594,4.5586 8.418,12.555 1.3477,5.543 0.62109,5.6094 c 0.0117,0.11719 0.11328,0.19531 0.16406,0.30859 0.0352,0.08984 0.0117,0.17188 0.0664,0.25391 0.0234,0.02344 0.0547,0.01172 0.0781,0.04297 0.20703,0.23047 0.48047,0.39062 0.8125,0.39062 0.0351,0 0.0781,0 0.11719,-0.01172 0.0664,-0.01172 0.10156,-0.06641 0.15234,-0.08984 0.14062,-0.03516 0.28516,-0.04297 0.40234,-0.12891 l 0.16406,-0.12891 1.7422,5.3242 -2.5703,5.9062 -1.3906,-0.46094 c -0.10156,-0.03516 -0.17188,0.02344 -0.27344,0.02344 -0.14062,-0.01172 -0.27344,-0.02344 -0.41406,0.03516 -0.14453,0.04297 -0.24609,0.11719 -0.36328,0.23047 -0.0664,0.05469 -0.16406,0.06641 -0.21875,0.14062 l -4.2773,6.1133 -10.695,6.7266 -6.2148,1.7422 -5.8203,-2.6992 z m 9.0664,10.191 c 0.15234,0.07813 0.3125,0.11328 0.46875,0.11328 0.10156,0 0.20312,-0.01172 0.30078,-0.04297 l 6.7773,-1.8945 c 0.0391,-0.01172 0.0508,-0.05469 0.0898,-0.06641 0.0742,-0.03516 0.14062,-0.02344 0.20703,-0.06641 l 11.027,-6.9336 c 0.0859,-0.05469 0.0937,-0.15234 0.15625,-0.21875 0.043,-0.04297 0.125,-0.03516 0.16406,-0.08984 l 3.9297,-5.6094 0.73438,0.24219 -0.875,9.832 c 0,0.04297 0.0352,0.06641 0.0352,0.10156 0,0.03515 -0.0352,0.05469 -0.0352,0.08984 l 0.95312,13.539 c 0.0117,0.12891 0.11328,0.21875 0.15234,0.33203 0.043,0.10156 0.0234,0.21875 0.10156,0.30859 l 3.7734,4.5703 c 0.0547,0.0664 0.15234,0.043 0.21875,0.10156 0.0781,0.0664 0.11328,0.17188 0.20703,0.21875 l 4.418,1.8828 c 0.12891,0.0547 0.26172,0.0781 0.39062,0.0781 0.0117,0 0.0117,0.0117 0.0117,0.0117 h 0.0234 0.0117 l 5.8086,0.12891 -1.5117,11.52 -3.707,2.7109 c -0.0781,0.0547 -0.0781,0.15234 -0.12891,0.21875 -0.0664,0.0781 -0.15234,0.0898 -0.19531,0.17188 l -3.6953,7.2422 -4.6133,0.92578 -4.5117,-0.89844 h -0.0234 c -0.004,0 -0.0117,-0.0117 -0.0156,-0.0117 l -5.8242,-0.94141 c -0.10547,-0.0117 -0.18359,0.0547 -0.29297,0.0781 -0.11328,0.0117 -0.21094,-0.0547 -0.32422,0 l -2.918,1.2148 -5.4766,-8.5117 h -0.004 c -0.0859,-0.12891 -0.23438,-0.16406 -0.35938,-0.25391 -0.11719,-0.0898 -0.21094,-0.20703 -0.35156,-0.24219 l -4.6875,-0.96484 -1.5391,-5.4805 c -0.0156,-0.0664 -0.0781,-0.0781 -0.10156,-0.12891 -0.0234,-0.0508 0.004,-0.11328 -0.0273,-0.16406 l -1.8359,-2.9609 0.89062,-6.3672 c 0.004,-0.0547 -0.0352,-0.0898 -0.0352,-0.12891 0.004,-0.0352 0.0391,-0.0664 0.0391,-0.11328 l -0.62109,-8.8359 0.76562,-4.593799 v -0.01172 c 0,-0.01172 -0.0117,-0.02344 -0.0117,-0.03516 0.0391,-0.29687 -0.0274,-0.58203 -0.18359,-0.80078 l -0.33984,-0.46875 z m 45.398,14.664 2.918,0.97266 c 0.11328,0.0352 0.23047,0.0547 0.34766,0.0547 0.32031,0 0.58984,-0.17187 0.80078,-0.41406 0.0352,-0.0352 0.0898,-0.0234 0.11328,-0.0547 l 0.57031,-0.78906 -0.73438,2.9023 -4.6484,2.9102 c -0.0547,0.0352 -0.0547,0.10156 -0.10156,0.14062 -0.0547,0.043 -0.11719,0.0352 -0.15234,0.0781 l -4.3867,5.1055 1.2148,-9.25 z"
     id="path80" />
</svg>
