<?xml version="1.0" encoding="UTF-8" standalone="no"?>
<svg
   width="223.57294pt"
   height="511.46582pt"
   version="1.1"
   viewBox="0 0 223.57294 511.46582"
   id="svg162"
   sodipodi:docname="noun-woman.svg"
   inkscape:version="1.1 (c4e8f9e, 2021-05-24)"
   xmlns:inkscape="http://www.inkscape.org/namespaces/inkscape"
   xmlns:sodipodi="http://sodipodi.sourceforge.net/DTD/sodipodi-0.dtd"
   xmlns="http://www.w3.org/2000/svg"
   xmlns:svg="http://www.w3.org/2000/svg">
  <sodipodi:namedview
     id="namedview164"
     pagecolor="#ffffff"
     bordercolor="#666666"
     borderopacity="1.0"
     inkscape:pageshadow="2"
     inkscape:pageopacity="0.0"
     inkscape:pagecheckerboard="true"
     inkscape:document-units="pt"
     showgrid="false"
     inkscape:zoom="0.76178571"
     inkscape:cx="143.74121"
     inkscape:cy="229.06704"
     inkscape:window-width="1312"
     inkscape:window-height="907"
     inkscape:window-x="0"
     inkscape:window-y="112"
     inkscape:window-maximized="0"
     inkscape:current-layer="svg162"
     fit-margin-top="0"
     fit-margin-left="0"
     fit-margin-right="0"
     fit-margin-bottom="0" />
  <defs
     id="defs78">
    <symbol
       id="w"
       overflow="visible">
      <path
         d="m 18.766,-1.125 c -0.96875,0.5 -1.9805,0.875 -3.0312,1.125 -1.043,0.25781 -2.1367,0.39062 -3.2812,0.39062 -3.3984,0 -6.0898,-0.94531 -8.0781,-2.8438 -1.9922,-1.9062 -2.9844,-4.4844 -2.9844,-7.7344 0,-3.2578 0.99219,-5.8359 2.9844,-7.7344 1.9883,-1.9062 4.6797,-2.8594 8.0781,-2.8594 1.1445,0 2.2383,0.13281 3.2812,0.39062 1.0508,0.25 2.0625,0.625 3.0312,1.125 v 4.2188 c -0.98047,-0.65625 -1.9453,-1.1406 -2.8906,-1.4531 -0.94922,-0.3125 -1.9492,-0.46875 -3,-0.46875 -1.875,0 -3.3516,0.60547 -4.4219,1.8125 -1.0742,1.1992 -1.6094,2.8555 -1.6094,4.9688 0,2.1055 0.53516,3.7617 1.6094,4.9688 1.0703,1.1992 2.5469,1.7969 4.4219,1.7969 1.0508,0 2.0508,-0.14844 3,-0.45312 0.94531,-0.3125 1.9102,-0.80078 2.8906,-1.4688 z"
         id="path9" />
    </symbol>
    <symbol
       id="a"
       overflow="visible">
      <path
         d="m 13.734,-11.141 c -0.4375,-0.19531 -0.87109,-0.34375 -1.2969,-0.4375 -0.41797,-0.10156 -0.83984,-0.15625 -1.2656,-0.15625 -1.2617,0 -2.2305,0.40625 -2.9062,1.2188 -0.67969,0.80469 -1.0156,1.9531 -1.0156,3.4531 v 7.0625 H 2.3591 v -15.312 h 4.8906 v 2.5156 c 0.625,-1 1.3438,-1.7266 2.1562,-2.1875 0.82031,-0.46875 1.8008,-0.70312 2.9375,-0.70312 0.16406,0 0.34375,0.01172 0.53125,0.03125 0.19531,0.01172 0.47656,0.03906 0.84375,0.07813 z"
         id="path12" />
    </symbol>
    <symbol
       id="b"
       overflow="visible">
      <path
         d="m 17.641,-7.7031 v 1.4062 H 6.188 c 0.125,1.1484 0.53906,2.0078 1.25,2.5781 0.70703,0.57422 1.7031,0.85938 2.9844,0.85938 1.0312,0 2.082,-0.14844 3.1562,-0.45312 1.082,-0.3125 2.1914,-0.77344 3.3281,-1.3906 v 3.7656 c -1.1562,0.4375 -2.3125,0.76562 -3.4688,0.98438 -1.1562,0.22656 -2.3125,0.34375 -3.4688,0.34375 -2.7734,0 -4.9297,-0.70312 -6.4688,-2.1094 -1.5312,-1.4062 -2.2969,-3.3789 -2.2969,-5.9219 0,-2.5 0.75391,-4.4609 2.2656,-5.8906 1.5078,-1.4375 3.582,-2.1562 6.2188,-2.1562 2.4062,0 4.332,0.73047 5.7812,2.1875 1.4453,1.4492 2.1719,3.3828 2.1719,5.7969 z m -5.0312,-1.625 c 0,-0.92578 -0.27344,-1.6719 -0.8125,-2.2344 -0.54297,-0.57031 -1.25,-0.85938 -2.125,-0.85938 -0.94922,0 -1.7188,0.26562 -2.3125,0.79688 -0.5937,0.53126 -0.96484,1.2969 -1.1094,2.2969 z"
         id="path15" />
    </symbol>
    <symbol
       id="e"
       overflow="visible">
      <path
         d="m 9.2188,-6.8906 c -1.0234,0 -1.793,0.17188 -2.3125,0.51562 -0.51172,0.34375 -0.76562,0.85547 -0.76562,1.5312 0,0.625 0.20703,1.1172 0.625,1.4688 0.41406,0.34375 0.98828,0.51562 1.7188,0.51562 0.92578,0 1.7031,-0.32812 2.3281,-0.98438 0.63281,-0.66406 0.95312,-1.4922 0.95312,-2.4844 v -0.5625 z m 7.4688,-1.8438 V 0 h -4.9219 v -2.2656 c -0.65625,0.92969 -1.3984,1.6055 -2.2188,2.0312 -0.82422,0.41406 -1.8242,0.625 -3,0.625 -1.5859,0 -2.8711,-0.45703 -3.8594,-1.375 -0.99219,-0.92578 -1.4844,-2.1289 -1.4844,-3.6094 0,-1.7891 0.61328,-3.1016 1.8438,-3.9375 1.2383,-0.84375 3.1797,-1.2656 5.8281,-1.2656 h 2.8906 v -0.39062 c 0,-0.76953 -0.30859,-1.332 -0.92188,-1.6875 -0.61719,-0.36328 -1.5703,-0.54688 -2.8594,-0.54688 -1.0547,0 -2.0312,0.10547 -2.9375,0.3125 -0.89844,0.21094 -1.7305,0.52344 -2.5,0.9375 v -3.7344 c 1.0391,-0.25 2.0859,-0.44141 3.1406,-0.57812 1.0625,-0.13281 2.125,-0.20312 3.1875,-0.20312 2.7578,0 4.75,0.54688 5.9688,1.6406 1.2266,1.0859 1.8438,2.8555 1.8438,5.3125 z"
         id="path18" />
    </symbol>
    <symbol
       id="d"
       overflow="visible">
      <path
         d="m 7.7031,-19.656 v 4.3438 H 12.75 v 3.5 H 7.7031 v 6.5 c 0,0.71094 0.14062,1.1875 0.42188,1.4375 0.28126,0.25 0.83594,0.375 1.6719,0.375 h 2.5156 v 3.5 h -4.1875 c -1.9375,0 -3.3125,-0.39844 -4.125,-1.2031 -0.80469,-0.8125 -1.2031,-2.1797 -1.2031,-4.1094 v -6.5 h -2.4219 v -3.5 h 2.4219 v -4.3438 z"
         id="path21" />
    </symbol>
    <symbol
       id="j"
       overflow="visible">
      <path
         d="m 12.766,-13.078 v -8.2031 h 4.9219 V -10e-5 H 12.766 v -2.2188 c -0.66797,0.90625 -1.4062,1.5703 -2.2188,1.9844 -0.8126,0.4141 -1.7578,0.625 -2.8281,0.625 -1.8867,0 -3.4336,-0.75 -4.6406,-2.25 -1.2109,-1.5 -1.8125,-3.4258 -1.8125,-5.7812 0,-2.3633 0.60156,-4.2969 1.8125,-5.7969 1.207,-1.5 2.7539,-2.25 4.6406,-2.25 1.0625,0 2,0.21484 2.8125,0.64062 0.82031,0.42969 1.5664,1.0859 2.2344,1.9688 z m -3.2188,9.9219 c 1.0391,0 1.8359,-0.37891 2.3906,-1.1406 0.55078,-0.76953 0.82812,-1.8828 0.82812,-3.3438 0,-1.457 -0.27734,-2.5664 -0.82812,-3.3281 -0.55469,-0.76953 -1.3516,-1.1562 -2.3906,-1.1562 -1.043,0 -1.8398,0.38672 -2.3906,1.1562 -0.55469,0.76172 -0.82812,1.8711 -0.82812,3.3281 0,1.4609 0.27344,2.5742 0.82812,3.3438 0.55078,0.76172 1.3477,1.1406 2.3906,1.1406 z"
         id="path24" />
    </symbol>
    <symbol
       id="f"
       overflow="visible">
      <path
         d="m 10.5,-3.1562 c 1.0508,0 1.8516,-0.37891 2.4062,-1.1406 0.55078,-0.76953 0.82812,-1.8828 0.82812,-3.3438 0,-1.457 -0.27734,-2.5664 -0.82812,-3.3281 -0.55469,-0.76953 -1.3555,-1.1562 -2.4062,-1.1562 -1.0547,0 -1.8594,0.38672 -2.4219,1.1562 -0.55469,0.77344 -0.82812,1.8828 -0.82812,3.3281 0,1.4492 0.27344,2.5586 0.82812,3.3281 0.5625,0.77344 1.3672,1.1562 2.4219,1.1562 z m -3.25,-9.9219 c 0.67578,-0.88281 1.4219,-1.5391 2.2344,-1.9688 0.82031,-0.42578 1.7656,-0.64062 2.8281,-0.64062 1.8945,0 3.4453,0.75 4.6562,2.25 1.207,1.5 1.8125,3.4336 1.8125,5.7969 0,2.3555 -0.60547,4.2812 -1.8125,5.7812 -1.2109,1.5 -2.7617,2.25 -4.6562,2.25 -1.0625,0 -2.0078,-0.21094 -2.8281,-0.625 C 8.6719,-0.6602 7.9258,-1.32032 7.25,-2.21882 V -2e-5 H 2.3594 v -21.281 H 7.25 Z"
         id="path27" />
    </symbol>
    <symbol
       id="i"
       overflow="visible">
      <path
         d="m 0.34375,-15.312 h 4.8906 l 4.125,10.391 3.5,-10.391 h 4.8906 l -6.4375,16.766 c -0.64844,1.6953 -1.4023,2.8828 -2.2656,3.5625 -0.86719,0.6875 -2,1.0312 -3.4062,1.0312 H 2.79685 V 2.8289 h 1.5312 c 0.83203,0 1.4375,-0.13672 1.8125,-0.40625 C 6.52336,2.16093 6.82024,1.69218 7.03117,1.01645 L 7.17179,0.59457 Z"
         id="path30" />
    </symbol>
    <symbol
       id="h"
       overflow="visible">
      <path
         d="m 2.5781,-20.406 h 5.25 v 16.422 h 9.25 V 4e-4 h -14.5 z"
         id="path33" />
    </symbol>
    <symbol
       id="v"
       overflow="visible">
      <path
         d="M 2.3594,-21.281 H 7.25 V 0 H 2.3594 Z"
         id="path36" />
    </symbol>
    <symbol
       id="g"
       overflow="visible">
      <path
         d="m 2.1875,-5.9688 v -9.3438 h 4.9219 v 1.5312 c 0,0.83594 -0.00781,1.875 -0.015625,3.125 -0.011719,1.25 -0.015625,2.0859 -0.015625,2.5 0,1.2422 0.03125,2.1328 0.09375,2.6719 0.070313,0.54297 0.17969,0.93359 0.32812,1.1719 0.20703,0.32422 0.47266,0.57422 0.79688,0.75 0.32031,0.16797 0.69141,0.25 1.1094,0.25 1.0195,0 1.8203,-0.39062 2.4062,-1.1719 0.58203,-0.78125 0.875,-1.8672 0.875,-3.2656 v -7.5625 h 4.8906 V -6e-4 H 12.6875 V -2.2194 C 11.94531,-1.32096 11.1641,-0.6608 10.3437,-0.235 9.51948,0.17906 8.6093,0.39 7.6093,0.39 5.8476,0.39 4.5038,-0.14906 3.5781,-1.235 2.64841,-2.317 2.1875,-3.8952 2.1875,-5.9694 Z"
         id="path39" />
    </symbol>
    <symbol
       id="u"
       overflow="visible">
      <path
         d="M 2.3594,-15.312 H 7.25 V 0 H 2.3594 Z m 0,-5.9688 H 7.25 v 4 H 2.3594 Z"
         id="path42" />
    </symbol>
    <symbol
       id="t"
       overflow="visible">
      <path
         d="m 14.312,-14.828 v 3.7188 c -1.043,-0.4375 -2.0547,-0.76562 -3.0312,-0.98438 -0.98047,-0.21875 -1.9023,-0.32812 -2.7656,-0.32812 -0.92969,0 -1.6211,0.11719 -2.0781,0.34375 -0.44922,0.23047 -0.67188,0.58984 -0.67188,1.0781 0,0.38672 0.17188,0.68359 0.51562,0.89062 0.34375,0.21094 0.95703,0.36719 1.8438,0.46875 l 0.85938,0.125 c 2.5078,0.32422 4.1953,0.85156 5.0625,1.5781 0.86328,0.73047 1.2969,1.8711 1.2969,3.4219 0,1.6367 -0.60547,2.8672 -1.8125,3.6875 -1.1992,0.8125 -2.9922,1.2188 -5.375,1.2188 -1.0234,0 -2.0742,-0.078125 -3.1562,-0.23438 -1.0742,-0.15625 -2.1797,-0.39453 -3.3125,-0.71875 v -3.7188 c 0.96875,0.48047 1.9609,0.83984 2.9844,1.0781 1.0312,0.23047 2.0781,0.34375 3.1406,0.34375 0.95703,0 1.6758,-0.12891 2.1562,-0.39062 0.47656,-0.26953 0.71875,-0.66406 0.71875,-1.1875 0,-0.4375 -0.16797,-0.75781 -0.5,-0.96875 -0.33594,-0.21875 -0.99609,-0.38281 -1.9844,-0.5 L 7.34339,-6.01551 c -2.1797,-0.26953 -3.7031,-0.77344 -4.5781,-1.5156 -0.875,-0.73828 -1.3125,-1.8594 -1.3125,-3.3594 0,-1.625 0.55078,-2.8281 1.6562,-3.6094 1.1133,-0.78906 2.8203,-1.1875 5.125,-1.1875 0.89453,0 1.8359,0.07422 2.8281,0.21875 1,0.13672 2.082,0.35156 3.25,0.64062 z"
         id="path45" />
    </symbol>
    <symbol
       id="s"
       overflow="visible">
      <path
         d="m 2.5781,-20.406 h 5.25 V 0 h -5.25 z"
         id="path48" />
    </symbol>
    <symbol
       id="c"
       overflow="visible">
      <path
         d="m 9.6406,-12.188 c -1.0859,0 -1.9141,0.39062 -2.4844,1.1719 -0.57422,0.78125 -0.85938,1.9062 -0.85938,3.375 0,1.4688 0.28516,2.5938 0.85938,3.375 0.57031,0.77344 1.3984,1.1562 2.4844,1.1562 1.0625,0 1.875,-0.38281 2.4375,-1.1562 0.57031,-0.78125 0.85938,-1.9062 0.85938,-3.375 0,-1.4688 -0.28906,-2.5938 -0.85938,-3.375 -0.5625,-0.78125 -1.375,-1.1719 -2.4375,-1.1719 z m 0,-3.5 c 2.6328,0 4.6914,0.71484 6.1719,2.1406 1.4766,1.418 2.2188,3.3867 2.2188,5.9062 0,2.5117 -0.74219,4.4805 -2.2188,5.9062 C 14.332,-0.317 12.2734,0.39 9.6406,0.39 6.9922,0.39 4.9258,-0.31703 3.4375,-1.735 1.9453,-3.1608 1.2031,-5.1295 1.2031,-7.6412 c 0,-2.5195 0.74219,-4.4883 2.2344,-5.9062 1.4883,-1.4258 3.5547,-2.1406 6.2031,-2.1406 z"
         id="path51" />
    </symbol>
    <symbol
       id="r"
       overflow="visible">
      <path
         d="m 12.422,-21.281 v 3.2188 H 9.7189 c -0.6875,0 -1.1719,0.125 -1.4531,0.375 -0.27344,0.25 -0.40625,0.6875 -0.40625,1.3125 v 1.0625 h 4.1875 v 3.5 H 7.85955 V -2e-4 h -4.8906 v -11.812 h -2.4375 v -3.5 h 2.4375 v -1.0625 c 0,-1.6641 0.46094,-2.8984 1.3906,-3.7031 0.92578,-0.80078 2.3672,-1.2031 4.3281,-1.2031 z"
         id="path54" />
    </symbol>
    <symbol
       id="q"
       overflow="visible">
      <path
         d="m 16.547,-12.766 c 0.61328,-0.94531 1.3477,-1.6719 2.2031,-2.1719 0.85156,-0.5 1.7891,-0.75 2.8125,-0.75 1.7578,0 3.0977,0.54688 4.0156,1.6406 0.92578,1.0859 1.3906,2.6562 1.3906,4.7188 V -4e-4 h -4.9219 v -7.9844 -0.35938 c 0.0078,-0.13281 0.01563,-0.32031 0.01563,-0.5625 0,-1.082 -0.16406,-1.8633 -0.48438,-2.3438 -0.3125,-0.48828 -0.82422,-0.73438 -1.5312,-0.73438 -0.92969,0 -1.6484,0.38672 -2.1562,1.1562 -0.51172,0.76172 -0.77344,1.8672 -0.78125,3.3125 v 7.5156 h -4.9219 v -7.9844 c 0,-1.6953 -0.14844,-2.7852 -0.4375,-3.2656 -0.29297,-0.48828 -0.8125,-0.73438 -1.5625,-0.73438 -0.9375,0 -1.6641,0.38672 -2.1719,1.1562 -0.51172,0.76172 -0.76562,1.8594 -0.76562,3.2969 v 7.5312 h -4.9219 v -15.312 h 4.9219 v 2.2344 c 0.60156,-0.86328 1.2891,-1.5156 2.0625,-1.9531 0.78125,-0.4375 1.6406,-0.65625 2.5781,-0.65625 1.0625,0 2,0.25781 2.8125,0.76562 0.8125,0.51172 1.4258,1.2305 1.8438,2.1562 z"
         id="path57" />
    </symbol>
    <symbol
       id="p"
       overflow="visible">
      <path
         d="M 17.75,-9.3281 V 0 h -4.9219 v -7.1094 c 0,-1.3438 -0.03125,-2.2656 -0.09375,-2.7656 -0.0625,-0.5 -0.16797,-0.86719 -0.3125,-1.1094 -0.1875,-0.3125 -0.44922,-0.55469 -0.78125,-0.73438 -0.32422,-0.17578 -0.69531,-0.26562 -1.1094,-0.26562 -1.0234,0 -1.8242,0.39844 -2.4062,1.1875 -0.58594,0.78125 -0.875,1.8711 -0.875,3.2656 V -1e-4 H 2.3594 v -21.281 H 7.25 v 8.2031 c 0.73828,-0.88281 1.5195,-1.5391 2.3438,-1.9688 0.83203,-0.42578 1.75,-0.64062 2.75,-0.64062 1.7695,0 3.1133,0.54688 4.0312,1.6406 0.91406,1.0859 1.375,2.6562 1.375,4.7188 z"
         id="path60" />
    </symbol>
    <symbol
       id="o"
       overflow="visible">
      <path
         d="m 2.5781,-20.406 h 5.875 l 7.4219,14 v -14 h 4.9844 V 0 h -5.875 L 7.5625,-14 V 0 H 2.5781 Z"
         id="path63" />
    </symbol>
    <symbol
       id="n"
       overflow="visible">
      <path
         d="M 17.75,-9.3281 V 0 h -4.9219 v -7.1406 c 0,-1.3203 -0.03125,-2.2344 -0.09375,-2.7344 -0.0625,-0.5 -0.16797,-0.86719 -0.3125,-1.1094 -0.1875,-0.3125 -0.44922,-0.55469 -0.78125,-0.73438 -0.32422,-0.17578 -0.69531,-0.26562 -1.1094,-0.26562 -1.0234,0 -1.8242,0.39844 -2.4062,1.1875 -0.58594,0.78125 -0.875,1.8711 -0.875,3.2656 V -1e-4 H 2.3594 v -15.312 H 7.25 v 2.2344 c 0.73828,-0.88281 1.5195,-1.5391 2.3438,-1.9688 0.83203,-0.42578 1.75,-0.64062 2.75,-0.64062 1.7695,0 3.1133,0.54688 4.0312,1.6406 0.91406,1.0859 1.375,2.6562 1.375,4.7188 z"
         id="path66" />
    </symbol>
    <symbol
       id="m"
       overflow="visible">
      <path
         d="m 2.5781,-20.406 h 8.7344 c 2.5938,0 4.582,0.57812 5.9688,1.7344 1.3945,1.1484 2.0938,2.7891 2.0938,4.9219 0,2.1367 -0.69922,3.7812 -2.0938,4.9375 -1.3867,1.1562 -3.375,1.7344 -5.9688,1.7344 H 7.8281 V 3e-4 h -5.25 z m 5.25,3.8125 v 5.7031 H 10.75 c 1.0195,0 1.8047,-0.25 2.3594,-0.75 0.5625,-0.5 0.84375,-1.2031 0.84375,-2.1094 0,-0.91406 -0.28125,-1.6172 -0.84375,-2.1094 -0.55469,-0.48828 -1.3398,-0.73438 -2.3594,-0.73438 z"
         id="path69" />
    </symbol>
    <symbol
       id="l"
       overflow="visible">
      <path
         d="M 2.3594,-15.312 H 7.25 v 15.031 c 0,2.0508 -0.49609,3.6172 -1.4844,4.7031 -0.98047,1.082 -2.4062,1.625 -4.2812,1.625 H -0.9375 V 2.8283 h 0.85938 c 0.92578,0 1.5625,-0.21094 1.9062,-0.625 0.35156,-0.41797 0.53125,-1.2461 0.53125,-2.4844 z m 0,-5.9688 H 7.25 v 4 H 2.3594 Z"
         id="path72" />
    </symbol>
    <symbol
       id="k"
       overflow="visible">
      <path
         d="m 14.719,-14.828 v 3.9844 c -0.65625,-0.45703 -1.3242,-0.79688 -2,-1.0156 -0.66797,-0.21875 -1.3594,-0.32812 -2.0781,-0.32812 -1.3672,0 -2.4336,0.40234 -3.2031,1.2031 -0.76172,0.79297 -1.1406,1.9062 -1.1406,3.3438 0,1.4297 0.37891,2.543 1.1406,3.3438 0.76953,0.79297 1.8359,1.1875 3.2031,1.1875 0.75781,0 1.4844,-0.10938 2.1719,-0.32812 0.6875,-0.22656 1.3203,-0.56641 1.9062,-1.0156 v 4 c -0.76172,0.28125 -1.5391,0.48828 -2.3281,0.625 -0.78125,0.14453 -1.5742,0.21875 -2.375,0.21875 -2.7617,0 -4.9219,-0.70703 -6.4844,-2.125 -1.5547,-1.4141 -2.3281,-3.3828 -2.3281,-5.9062 0,-2.5312 0.77344,-4.5039 2.3281,-5.9219 1.5625,-1.4141 3.7227,-2.125 6.4844,-2.125 0.80078,0 1.5938,0.07422 2.375,0.21875 0.78125,0.13672 1.5547,0.35156 2.3281,0.64062 z"
         id="path75" />
    </symbol>
  </defs>
  <path
     d="m 46.292615,234.32931 1.2812,26.254 c 0,0.0352 0.0273,0.043 0.0273,0.0664 0.004,0.0234 -0.0156,0.0352 -0.0117,0.0547 l 2.67579,17.328 c 0.004,0.0234 0.0352,0.0352 0.0352,0.0664 0.0117,0.0234 -0.0117,0.043 -0.004,0.0781 l 22.65601,79.262 0.30077,3.9141 -0.32031,37.23 -7.0742,44.469 c -0.0156,0.11719 0.0625,0.19531 0.0742,0.30859 0.0234,0.15234 0.0234,0.28516 0.10156,0.40234 0.0742,0.12891 0.17969,0.19531 0.29688,0.28516 0.0899,0.0781 0.125,0.18359 0.23438,0.23047 l 7.6484,2.9531 1.9023,1.0195 -0.80469,4.7148 v 0.0117 l -1.418,7.6992 c -0.004,0.0352 0.0234,0.0664 0.0234,0.10156 -0.004,0.0352 -0.043,0.0664 -0.043,0.10156 v 25.672 c 0,0.0781 0.0664,0.12891 0.0859,0.19531 0.0273,0.15234 0.0781,0.26172 0.15625,0.37891 0.0859,0.12891 0.15625,0.20703 0.28516,0.29688 0.0625,0.043 0.0781,0.11719 0.14453,0.15234 l 6.1484,2.6836 c 0.0234,0.0117 0.0391,0.0117 0.0625,0.0117 0.004,0.0117 0.0117,0.0117 0.0156,0.0234 l 6.3008,2.1992 c 0.125,0.043 0.25391,0.0664 0.37109,0.0664 h 0.0508 l 10.277,-0.4375 1.1797,4.4648 2.675805,13.496 c 0.0273,0.12891 0.125,0.20703 0.19141,0.32031 0.0508,0.0898 0.0742,0.17188 0.14063,0.24219 0.15234,0.15234 0.33984,0.21875 0.54687,0.27344 0.0547,0.0117 0.0898,0.0664 0.14453,0.0664 l 0.0664,0.0117 h 0.004 0.004 l 7.6328,0.46875 h 0.0742 c 0.0898,0 0.17188,-0.0117 0.26172,-0.0352 l 6.4688,-1.5742 c 0.0781,-0.0117 0.10156,-0.0898 0.16406,-0.11719 0.16406,-0.0781 0.28516,-0.15234 0.39062,-0.28516 0.0781,-0.10156 0.11719,-0.17188 0.16406,-0.28516 0.0351,-0.0781 0.10156,-0.12891 0.11719,-0.20703 l 1.2617,-7.5703 c 0,-0.0351 -0.0352,-0.0664 -0.0234,-0.11328 0.0117,-0.14062 -0.0547,-0.26172 -0.10156,-0.40234 -0.043,-0.14062 -0.0664,-0.26172 -0.16406,-0.37109 -0.0234,-0.0352 -0.0234,-0.0781 -0.043,-0.11328 l -3.2266,-3.0859 0.52734,-5.5117 4.7617,-4.7617 c 0.0352,-0.0352 0.0234,-0.0664 0.043,-0.10156 0.0898,-0.11328 0.11328,-0.24219 0.15234,-0.37109 0.043,-0.14062 0.11328,-0.26172 0.10156,-0.41406 0,-0.0352 0.0234,-0.0664 0.0234,-0.10156 l -1.5742,-9.4531 c -0.0117,-0.0234 -0.0352,-0.0351 -0.0352,-0.0547 -0.0117,-0.0234 0.0117,-0.0352 0,-0.0547 l -3.1484,-11.34 c 0,-0.0117 -0.0117,-0.0117 -0.0117,-0.0234 -0.0117,-0.0117 0,-0.0234 0,-0.0351 l -0.0117,-0.0117 -1.25,-3.7539 v -0.0117 l -3.3086,-10.074 3.6055,-0.11328 9.6836,4.3125 c 0.15234,0.0664 0.30859,0.10156 0.46094,0.10156 0.0898,0 0.18359,-0.0117 0.28516,-0.0352 0.043,-0.0117 0.0664,-0.0664 0.10156,-0.0781 0.18359,-0.0781 0.33984,-0.19531 0.46875,-0.35938 0.043,-0.0547 0.0899,-0.0781 0.11719,-0.14062 0.0117,-0.0234 0.0352,-0.0352 0.043,-0.0547 0.0547,-0.11719 0,-0.24219 0.0117,-0.35938 0.0117,-0.12891 0.0898,-0.25391 0.0547,-0.37891 l -15.227,-57.125 1.7188,-16.492 c 0,-0.0234 -0.0234,-0.0352 -0.0234,-0.0547 0,-0.0234 0.0234,-0.0351 0.0234,-0.0547 l 0.008,-14.996 25.969,-112.04 c 0,-0.0234 -0.0234,-0.043 -0.0117,-0.0781 0,-0.0234 0.0352,-0.043 0.0352,-0.0664 l 1.4102,-14.965 c 0,-0.0234 -0.0234,-0.043 -0.0234,-0.0664 0,-0.0352 0.0234,-0.043 0.0234,-0.0781 l -0.46875,-16.219 -0.62109,-25.07 12.062,-23.102 2.6484,5.5312 c 0.043,0.0781 0.11328,0.11328 0.16406,0.17188 0.0234,0.0352 0.0117,0.0898 0.043,0.11719 l 7.3906,7.7109 5.0117,5.7852 c 0.0234,0.0352 0.0664,0.0234 0.10156,0.043 0.20703,0.20703 0.46094,0.34766 0.75781,0.34766 0.0898,0 0.18359,-0.0117 0.27344,-0.0352 l 11.832,-3.0391 12.258,7.2617 16.309,14.32 -1.3008,7.4258 c -0.0117,0.0234 0.0234,0.043 0.0117,0.0781 -0.0117,0.14062 0.0547,0.26172 0.10156,0.40234 0.043,0.14062 0.0547,0.28516 0.14062,0.39062 0.0234,0.0234 0.0117,0.0547 0.0352,0.0781 l 2.1914,2.3516 0.0117,0.0117 c 0.21875,0.24219 0.51562,0.35938 0.81641,0.35938 0.26172,0 0.53906,-0.10156 0.74609,-0.29688 h 0.0117 c 0,-0.0117 0.0117,0 0.0117,-0.0117 l 10.062,-9.1211 c 0.0781,-0.0547 0.0664,-0.15234 0.11328,-0.23047 0.0898,-0.12891 0.15234,-0.23047 0.18359,-0.37891 0.0351,-0.14062 0.0117,-0.26172 -0.0117,-0.40234 -0.0117,-0.0898 0.0352,-0.17188 -0.0117,-0.26172 l -1.793,-4.0391 3.6172,-5.7852 c 0.0664,-0.11719 0.0351,-0.24219 0.0547,-0.35938 0.0351,-0.11719 0.11719,-0.21875 0.11328,-0.34766 l -0.63281,-6.4531 c -0.0117,-0.043 -0.043,-0.0547 -0.0547,-0.10156 -0.0234,-0.11328 -0.0781,-0.18359 -0.12891,-0.28516 -0.0898,-0.16406 -0.17187,-0.32031 -0.33984,-0.41406 -0.0234,-0.0234 -0.0234,-0.0547 -0.0547,-0.0664 l -9,-4.9766 -24.641,-24.488 -7.7891,-15.27 c -0.0117,-0.0234 -0.0352,-0.0234 -0.043,-0.0352 -0.0117,-0.0234 0,-0.043 -0.0117,-0.0547 l -9.1562,-14.582 -3.4336,-32.039 c -0.0234,-0.18359 -0.14062,-0.30859 -0.21875,-0.44922 -0.0351,-0.0547 -0.0234,-0.12891 -0.0664,-0.18359 l -0.0547,-0.0664 c -0.0234,-0.0117 -0.043,-0.043 -0.0664,-0.0547 L 152.885,85.706735 c -0.0234,-0.0234 -0.043,-0.0117 -0.0547,-0.0352 -0.0117,-0.0117 -0.0117,-0.0352 -0.0234,-0.043 l -8.5508,-7.8008 -0.91797,-4.472705 4.082,-5.1055 c 0.043,-0.04297 0.0234,-0.11328 0.043,-0.16406 0.0547,-0.08984 0.12891,-0.14062 0.16406,-0.24219 l 1.7305,-6.3008 c 0.0352,-0.14062 -0.0352,-0.27344 -0.0547,-0.41406 -0.0234,-0.14063 0.0234,-0.27344 -0.043,-0.40234 l -8.2383,-15.551 -1.707,-17.109 c -0.0117,-0.11328 -0.11328,-0.16406 -0.14062,-0.26172 -0.0352,-0.08984 0,-0.18359 -0.0664,-0.27344 l -14.812,-20.945 c -0.0547,-0.07813 -0.15234,-0.07813 -0.21875,-0.12891 -0.0664,-0.06641 -0.0899,-0.16406 -0.17188,-0.20703 l -9.918,-5.207 c -0.0664,-0.04297 -0.14062,0 -0.21875,-0.02344 -0.10938,0.01172 -0.14844,-0.06641 -0.22656,-0.06641 l -9.1289,-0.94141 C 104.37763,0 104.35033,0.03516 104.31913,0.03516 104.28003,0.03516 104.25663,0 104.21757,0 L 90.194565,0.94141 c -0.10547,0.01172 -0.16406,0.10156 -0.25781,0.12891 -0.0937,0.02344 -0.19141,-0.01172 -0.27344,0.04297 l -16.855,10.871 c -0.004,0.01172 -0.004,0.02344 -0.0156,0.02344 -0.004,0.01172 -0.0156,0 -0.0273,0.01172 l -4.8789,3.4648 c -0.10156,0.06641 -0.10547,0.18359 -0.17188,0.27344 -0.0781,0.10156 -0.19141,0.15234 -0.23438,0.28516 l -2.6602,7.9688 -3.8984,7.8008 c -0.0391,0.06641 0.004,0.14062 -0.0156,0.21875 -0.0234,0.07813 -0.0937,0.11719 -0.10156,0.19531 l -0.78906,10.555 c -0.004,0.05469 0.043,0.08984 0.0508,0.14062 0,0.05469 -0.043,0.10156 -0.0352,0.15234 l 2.3633,12.129 c 0.004,0.03516 0.0391,0.04297 0.0508,0.07813 0.004,0.03516 -0.0156,0.05469 -0.004,0.08984 l 3.4219,9.4805 1.1523,11.405995 -4.8164,1.6055 c -0.0234,0.0117 -0.0273,0.0352 -0.0508,0.043 -0.0156,0.0117 -0.0391,-0.0117 -0.0625,0 l -0.0664,0.0352 -4.0391,1.8477 c -0.0156,0.0117 -0.0156,0.0352 -0.0273,0.0352 -0.0234,0.0117 -0.0391,0 -0.0547,0.0117 l -6.7695,3.7852 -4.3906,2.3516 c -0.0156,0.0117 -0.0156,0.0352 -0.0391,0.043 -0.0156,0.0117 -0.0391,0 -0.0547,0.0117 l -1.8945,1.2695 c -0.0117,0 -0.0117,0.0234 -0.0273,0.0352 -0.0117,0.0117 -0.0273,0 -0.0391,0.0117 l -0.0156,0.0117 c -0.0391,0.0352 -0.0781,0.043 -0.11328,0.0898 l -10.742,8.4102 c -0.0859,0.0664 -0.0898,0.17188 -0.14453,0.25391 -0.0625,0.0898 -0.16797,0.11719 -0.20703,0.23047 l -7.3711,19.129005 -25.94899989,46.715 c -0.0547,0.10156 -0.0156,0.20703 -0.0391,0.32031 -0.0234,0.10156 -0.10547,0.17187 -0.10156000133,0.28516 l 0.62109000133,10.523 v 0.0117 0.0352 c 0.0156,0.26172 0.14062,0.46875 0.30859,0.65625 0.0234,0.0234 0.0117,0.0664 0.0391,0.0898 h 0.004 c 0.19530999,0.19532 0.46874999,0.3086 0.76561999,0.3086 h 0.0664 c 0.19531,-0.0117 0.33984,-0.14063 0.49219,-0.24219 0.0859,-0.043 0.18359,-0.0352 0.25391,-0.11328 l 0.0234,-0.0234 h 0.004 l 4.543,-4.76949 1.5508,10.336 c 0.0234,0.12891 0.125,0.23047 0.19141,0.33984 0.043,0.0781 0.0234,0.16406 0.0859,0.23047 l 6.4530999,7.2539 c 0.22266,0.25391 0.53125,0.37109 0.83594,0.37109 0.21094,0 0.42188,-0.0547 0.60938,-0.17188 l 7.7227,-5.0508 h 0.0117 l 2.1289,-1.4219 -5.6406,18.648 -6.2734,6.5859 c -0.0664,0.0664 -0.0508,0.16406 -0.0937,0.24219 -0.043,0.0781 -0.13281,0.11328 -0.16406,0.19531 l -4.7265999,14.801 c -0.0234,0.0781 0.0273,0.15234 0.0234,0.23047 -0.0117,0.0781 -0.0781,0.12891 -0.0742,0.21875 l 1.4179999,14.645 c 0.004,0.043 0.043,0.0664 0.0547,0.11327 0.0273,0.12891 0.10156,0.20703 0.16406,0.33203 0.0859,0.12891 0.15234,0.25391 0.28516,0.33984 0.0391,0.0352 0.043,0.0898 0.0898,0.11328 l 10.395,5.5117 c 0.11719,0.0547 0.23438,0.0664 0.35156,0.0899 0.0273,0 0.043,0.0351 0.0742,0.0351 l 12.441,1.1016 c 0.0352,0.0117 0.0664,0.0117 0.10156,0.0117 0.21094,0 0.42578,-0.0664 0.60938,-0.18359 l 4.0938,-2.6836 c 0.0508,-0.0351 0.0508,-0.0898 0.0899,-0.12891 0.043,-0.0351 0.10156,-0.0234 0.13281,-0.0547 z m -7.7852,5.3398 -3.6445,2.3867 -11.828,-1.0547 -9.6641,-5.1172 -1.332,-13.828 4.5742,-14.34 6.2773,-6.5859 c 0.043,-0.043 0.0352,-0.11719 0.0664,-0.17188 0.0664,-0.10156 0.16406,-0.16406 0.19531,-0.27344 l 6.5312,-21.609 17.109,-16 c 0.0234,-0.0234 0.0156,-0.0664 0.0391,-0.0898 0.0156,-0.0117 0.0508,-0.0117 0.0664,-0.0352 l 4.7617,-5.875 -2.3242,14.449 c -0.0156,0.0898 0.0508,0.15234 0.0625,0.24219 0.004,0.15234 0.0273,0.27344 0.0937,0.40234 0.0664,0.12891 0.14453,0.21875 0.25781,0.32031 0.0664,0.0547 0.0859,0.15234 0.16406,0.19531 l 2.043,1.1016 1.8594,1.082 h 0.0234 c 0.004,0.0117 0.004,0.0117 0.0117,0.0234 l 3.3086,1.7695 -9.2188,34.746 c -0.004,0.0234 0.0117,0.043 0.0117,0.0664 -0.004,0.0234 -0.0352,0.0352 -0.0391,0.0547 l -2.043,13.859 c -0.004,0.043 0.0273,0.0781 0.0273,0.11719 0,0.0352 -0.0391,0.0664 -0.0391,0.11328 l 0.29297,5.5234 z m -22.066,-54.465 -5.5898,-6.2773 -1.8437999,-12.27 c -0.0234,-0.12891 -0.12891,-0.20703 -0.19531,-0.32031 -0.0547,-0.11328 -0.0508,-0.24219 -0.14062,-0.33203 -0.0234,-0.0234 -0.0508,-0.0117 -0.0742,-0.0234 -0.11328,-0.10156 -0.24609,-0.11328 -0.37891,-0.15234 -0.14062,-0.043 -0.26172,-0.11719 -0.41406,-0.10156 -0.0234,0 -0.043,-0.0234 -0.0664,-0.0234 -0.125,0.0234 -0.19531,0.12891 -0.30859,0.18359 -0.11719,0.0547 -0.24609,0.0547 -0.33984,0.15234 l -4.375,4.5938 -0.44922,-7.668 25.8279999,-46.484 c 0.0117,-0.0234 -0.004,-0.043 0.004,-0.0664 0.0156,-0.0352 0.0508,-0.043 0.0625,-0.0781 l 7.293,-18.921995 10.309,-8.0703 5.6289,0.14062 7.0938,3.7734 8.2539,6.1836 -0.54688,6.242195 -3.2031,5.9414 c -0.043,0.0781 -0.004,0.16406 -0.0273,0.25391 -0.0234,0.0781 -0.10156,0.11719 -0.10547,0.19531 l -0.44141,6.4023 -7.75,8.9727 -16.777,15.523 -21.531,16.66 c -0.0352,0.0352 -0.0274,0.0781 -0.0625,0.11328 -0.11328,0.10156 -0.14453,0.21875 -0.20703,0.35938 -0.0625,0.12891 -0.125,0.25391 -0.125,0.39062 -0.004,0.043 -0.043,0.0664 -0.0391,0.11328 l 0.63281,8.3438 c 0.004,0.043 0.0508,0.0781 0.0547,0.11719 0.0117,0.043 -0.0234,0.0781 -0.0117,0.12891 l 2.043,6.6211 c 0.0234,0.0664 0.0899,0.11328 0.125,0.16406 0.0234,0.043 0,0.10156 0.0274,0.14062 l 3.6016,5.1875 z m 45.629,-104.819995 12.008,22.308995 h -0.18359 l -3.293,-5.304695 c -0.0234,-0.0352 -0.0742,-0.0352 -0.10156,-0.0664 -0.0234,-0.0352 -0.0117,-0.0781 -0.0391,-0.11328 l -2.2578,-2.4062 -5.293,-9.8008 c -0.0117,-0.0352 -0.0508,-0.0352 -0.0664,-0.0547 -0.0117,-0.0234 0,-0.0547 -0.0156,-0.0781 l -2.6602,-3.6172 z m 7.4648,20.288995 -0.34766,-1.300795 1.3672,2.210895 z m -11.395,-18.397995 2.832,3.8594 2.6094,4.832 -5.4023,-3.9688 c -0.0234,-0.0234 -0.0508,0 -0.0664,-0.0234 -0.0234,-0.0117 -0.0234,-0.043 -0.043,-0.0547 l -4.0938,-2.3203 z m -6.4688,3.5977 5.2344,2.9727 7,5.1406 2.5938,2.2852 0.63672,0.67578 -7.375,-5.5312 c -0.0273,-0.0117 -0.0625,0 -0.0937,-0.0234 -0.0234,-0.0117 -0.0273,-0.0547 -0.0547,-0.0664 l -7.4023,-3.9375 c -0.0859,-0.043 -0.17188,0 -0.26172,-0.0234 -0.0898,-0.0234 -0.14062,-0.11328 -0.23438,-0.11328 l -2.5078,-0.0664 z m -27.41,94.194995 -3.5234,-5.0742 -1.9648,-6.3555 -0.58203,-7.5977 21.105,-16.34 c 0.0156,-0.0117 0.0117,-0.0234 0.0273,-0.043 0.0117,-0.0117 0.0352,0 0.0508,-0.0117 l 16.855,-15.586 c 0.0156,-0.0234 0.0117,-0.0547 0.0273,-0.0664 0.0156,-0.0234 0.043,-0.0117 0.0625,-0.0352 l 8.0312,-9.2852 c 0.0781,-0.0898 0.0547,-0.20703 0.10156,-0.30859 0.0547,-0.11719 0.15625,-0.20703 0.16797,-0.34766 l 0.45312,-6.5391 3.1992,-5.9297 c 0.0391,-0.0664 0,-0.14062 0.0234,-0.20703 0.0273,-0.0898 0.10547,-0.14062 0.11328,-0.23047 l 0.28516,-3.2031 1.7969,1.5859 c 0.11719,0.11328 0.28516,0.11719 0.42969,0.16406 0.0859,0.0352 0.12891,0.11328 0.21875,0.11328 l 2.043,0.16406 c 0.0273,0.0117 0.0625,0.0117 0.0898,0.0117 h 2.6562 l 7.1328,0.4375 0.55469,0.49219 -0.28125,4.1758 c 0,0.0234 0.0273,0.043 0.0273,0.0781 0,0.15234 0.0781,0.26172 0.12891,0.40234 0.0625,0.12891 0.0899,0.26172 0.19531,0.37109 0.0234,0.0234 0.0156,0.0547 0.0391,0.0781 l 2.6719,2.2383 0.3125,2.1914 -2.2383,1.4883 c -0.0273,0.0234 -0.0273,0.0547 -0.0547,0.0781 -0.0274,0.0234 -0.0664,0.0117 -0.0937,0.043 -0.0899,0.0781 -0.0899,0.20703 -0.14062,0.30859 -0.0742,0.12891 -0.15234,0.24219 -0.17188,0.37891 -0.0156,0.14063 0.043,0.26172 0.0859,0.40234 0.0274,0.11328 -0.004,0.24219 0.0664,0.33984 0.0156,0.0352 0.0547,0.0234 0.0781,0.043 0.0234,0.0352 0.0117,0.0781 0.0391,0.10156 l 2.1172,2.2617 0.35156,2.8242 -4.1484,3.6289 -3.5117,-0.94141 c -0.0625,-0.0234 -0.11719,0.0234 -0.16797,0.0234 -0.15234,-0.0234 -0.26953,0 -0.41406,0.043 -0.13281,0.043 -0.24219,0.0781 -0.35156,0.16406 -0.0547,0.043 -0.125,0.0351 -0.17188,0.0898 l -7.207,7.8164 -2.0703,0.6875 -2.4844,0.60937 c -0.12891,0.0352 -0.19141,0.15234 -0.29688,0.21875 -0.10156,0.0664 -0.22266,0.0664 -0.30078,0.16406 l -13.066,16.219 h -0.004 l -7.3477,9.0781 -17.191,16.09 z m 72.418,-56.363 4.218805,6.1719 -2.738305,13.242 c -0.0234,0.11719 0.0508,0.21875 0.0664,0.33203 0.0156,0.15234 0.0117,0.27344 0.0781,0.40234 0.0664,0.12891 0.17187,0.19531 0.29297,0.29688 0.0899,0.0664 0.11719,0.18359 0.23047,0.23047 l 16.223005,6.9336 c 0.10156,0.043 0.20703,0.0547 0.32031,0.0664 0.0234,0 0.0352,0.0234 0.043,0.0234 h 0.0781 c 0.25391,0 0.48047,-0.11328 0.67578,-0.27344 0.0664,-0.0547 0.10156,-0.11328 0.15234,-0.17188 0.0664,-0.0781 0.15234,-0.12891 0.19531,-0.23047 0.0234,-0.0664 -0.0117,-0.12891 0,-0.18359 0.0234,-0.0781 0.0781,-0.11328 0.0898,-0.18359 l 0.44922,-6.9453 1.8828,-2.7773 4.3125,12.531 c 0.0117,0.0234 0.0352,0.0352 0.043,0.043 0.0234,0.0664 0.0781,0.10156 0.11328,0.15234 0.11328,0.17188 0.24219,0.32031 0.42578,0.40234 0.0352,0.0234 0.043,0.0664 0.0781,0.0781 l 4.0977,1.5742 c 0.12891,0.0547 0.27344,0.0781 0.40234,0.0781 0.27344,0 0.52734,-0.12891 0.72266,-0.32031 0.0352,-0.0234 0.0781,-0.0117 0.10156,-0.043 l 7.0898,-7.7109 c 0.043,-0.043 0.0352,-0.11328 0.0547,-0.15234 0.0899,-0.12891 0.11328,-0.24219 0.14062,-0.39062 0.0352,-0.14063 0.0547,-0.26172 0.0352,-0.41407 -0.0117,-0.0547 0.0234,-0.10156 0.0117,-0.15234 l -4.6797,-13.887 -0.55859,-8.2383 2.1328,-0.23047 1.2617,7.7656 c 0.0234,0.12891 0.11719,0.21875 0.18359,0.33203 0.0351,0.0781 0.0234,0.17188 0.0781,0.24219 l 6.1367,6.8867 -1.0547,13.562 -7.6758,23.66 c -0.0351,0.11328 0.0352,0.21875 0.0352,0.33203 -0.0117,0.11719 -0.0781,0.23047 -0.0352,0.34766 l 4.9883,16.066 v 3.4336 0.0234 0.0117 l 0.59766,24.348 -11.352,1.4453 -22.27,0.46875 -28.195005,-2.6602 -18.969,-4.8203 -6.8672,-4.1992 9.2344,-34.793 c 0.0273,-0.11328 -0.0391,-0.20703 -0.043,-0.32031 0,-0.14062 0.004,-0.26172 -0.0547,-0.40234 -0.0547,-0.12891 -0.15234,-0.21875 -0.26172,-0.32031 -0.0781,-0.0781 -0.0937,-0.18359 -0.19141,-0.24219 l -3.1758,-1.707 16.504,-37.297 6.832,-7.4141 3.4336,0.92969 c 0.0937,0.0352 0.19141,0.043 0.29297,0.043 0.26172,0 0.50391,-0.11328 0.69922,-0.26172 0.0117,-0.0117 0.0273,-0.0117 0.0391,-0.0234 l 5.0391,-4.418 c 0.0273,-0.0234 0.0234,-0.0664 0.0508,-0.10156 0.10156,-0.10156 0.12891,-0.23047 0.17969,-0.35938 0.0547,-0.14062 0.11719,-0.26172 0.11719,-0.41406 0,-0.0351 0.0352,-0.0664 0.0273,-0.10156 l -0.26953,-2.1797 z m -42.207,29.871 12.461,-15.457 -14.984,33.117 -0.29297,-0.15234 z m 61.988005,319.79 c -0.0898,-0.0117 -0.15234,-0.0664 -0.24219,-0.0664 -0.0117,0.0117 -0.0234,-0.0117 -0.043,-0.0117 l -12.602,0.94141 c -0.11328,0.0117 -0.16797,0.10156 -0.26953,0.14062 -0.10156,0.0351 -0.20703,0 -0.29688,0.0664 l -3.941405,2.7773 -0.86328,-4.4062 1.976605,-4.4961 4.0586,-3.4766 4.0977,-1.6523 6.1953,3.0391 1.9883,7.1641 c -0.0156,-0.008 -0.0391,-0.0195 -0.0586,-0.0195 z m -28.859005,16.918 -6.0156,-2.1016 -5.4727,-2.3867 v -17.879 l 1.9219,5.7383 c 0.0156,0.0547 0.0664,0.0781 0.0937,0.12891 0.0156,0.0352 -0.004,0.0781 0.0156,0.11328 l 3.3047,5.3477 c 0.0117,0.0234 0.043,0.0117 0.0625,0.0352 0.17969,0.26172 0.44141,0.46094 0.78516,0.49219 0.0391,0.0117 0.0781,0.0117 0.11328,0.0117 0.20312,0 0.40234,-0.0547 0.58984,-0.17188 0.0352,-0.0117 0.0352,-0.0547 0.0625,-0.0781 0.12891,-0.10156 0.19531,-0.24219 0.27344,-0.37891 0.0625,-0.11328 0.13281,-0.18359 0.15234,-0.30859 0.004,-0.0352 0.0391,-0.043 0.0391,-0.0781 l 0.28125,-2.918 2.9062,-3.0312 6.4023,-0.42578 2.9688,1.1133 1.0977,5.6211 -1.2227,6.082 c -0.0156,0.10156 0.0508,0.17188 0.0508,0.26172 0.004,0.10156 -0.0547,0.17187 -0.0273,0.26172 l 1.1875,4.1445 z m 6.4141,-35.621 4.1172,-1.2617 v 14.004 l -1.1523,2.6367 -2.1797,-4.3516 1.1328,0.33984 c 0.10547,0.0352 0.21094,0.0547 0.32422,0.0547 0.0937,0 0.19141,-0.0117 0.28516,-0.043 0.0547,-0.0117 0.0781,-0.0781 0.125,-0.10156 0.16797,-0.0664 0.29688,-0.16406 0.41406,-0.30859 0.0625,-0.0781 0.11719,-0.14062 0.15625,-0.23047 0.0234,-0.043 0.0742,-0.0781 0.0898,-0.11719 0.0352,-0.11328 -0.0351,-0.20703 -0.0351,-0.30859 0.004,-0.11328 0.0742,-0.19531 0.043,-0.30859 l -0.62109,-2.3633 c -0.0117,-0.0352 -0.043,-0.043 -0.0547,-0.0781 -0.0547,-0.14062 -0.15625,-0.21875 -0.26172,-0.33984 -0.10156,-0.11328 -0.16797,-0.21875 -0.30859,-0.28516 -0.0273,-0.0117 -0.0352,-0.043 -0.0625,-0.0547 l -3.832,-1.4766 -2.5547,-2.9961 z m 11.215005,6.6484 2.2891,-0.20703 -3.7539,1.5 z m -11.562005,8.8906 c -0.0664,-0.0234 -0.12891,0.0234 -0.19531,0.0117 -0.0742,-0.0117 -0.11719,-0.0781 -0.19531,-0.0781 h -0.0781 l -7.0273,0.46875 c -0.0117,0 -0.0156,0.0117 -0.0274,0.0117 h -0.0351 c -0.10156,0 -0.15625,0.0899 -0.25391,0.11719 -0.16797,0.0547 -0.34766,0.0781 -0.48047,0.21875 l -3.3828,3.5234 c -0.0117,0.0117 -0.0156,0.0234 -0.0274,0.0234 l -0.0625,0.0664 c -0.0664,0.0781 -0.0547,0.17187 -0.10156,0.25391 -0.0781,0.14062 -0.19141,0.25391 -0.20703,0.41406 l -1.4883,-2.4062 -1.8359,-5.5117 0.6875,-1.082 3.8086,-2.5469 4.2266,-0.27344 4.8555,1.3906 2.9102,5.8203 z m -13.199,-8.9219 5.0195,-1.1367 5.6836,1.9375 h 0.0117 l 2.0273,0.78906 -0.21875,-0.0664 h -0.004 l -0.0273,-0.0117 h -0.004 c -0.004,0 -0.004,-0.0117 -0.0117,-0.0117 l -5.5117,-1.5742 c -0.0547,-0.0117 -0.10156,0.0234 -0.15234,0.0234 -0.0547,-0.0117 -0.0937,-0.0664 -0.15234,-0.0664 -0.0234,0 -0.0508,0 -0.0742,0.0117 l -4.7266,0.30859 c -0.10156,0.0117 -0.15625,0.10156 -0.24609,0.11719 -0.10547,0.0352 -0.21094,0 -0.30859,0.0664 l -4.2578,2.8438 c -0.0742,0.043 -0.0742,0.12891 -0.125,0.18359 -0.004,0.0117 -0.0117,0.0117 -0.0156,0.0117 l -0.40234,-1.1719 z m 7.5664,-2.6484 -1.2148,-0.40234 0.69922,-0.18359 z m -8.8945,-8.6172 c 0.17969,0.11328 0.37891,0.16406 0.58203,0.16406 0.0391,0 0.0781,-0.0117 0.11719,-0.0117 l 3.7109,-0.37109 1.5352,7.6562 c 0.004,0.0234 0.0156,0.0234 0.0234,0.0352 0,0.0234 -0.0117,0.0352 -0.004,0.043 0.043,0.15234 0.15234,0.24219 0.24609,0.35938 -0.0156,0 -0.0351,-0.0117 -0.0508,-0.0117 l -5.5117,1.2617 c -0.0742,0.0234 -0.10156,0.0898 -0.16406,0.11719 -0.0664,0.0234 -0.12891,0 -0.19141,0.0352 l -3.1406,2.0234 -0.14453,-0.51563 1.3711,-7.4492 v -0.0117 c 0,0 0.004,0 0.004,-0.0117 l 0.66797,-3.8906 z m 29.770005,10.961 0.72266,-0.0664 3.6797,1.5742 0.26172,0.76562 z m 1.3398,-2.2461 c -0.0859,-0.0352 -0.16406,0.0117 -0.25391,0 -0.10547,-0.0234 -0.17188,-0.10156 -0.29688,-0.0898 l -5.0391,0.46875 c -0.125,0.0117 -0.20312,0.11719 -0.3125,0.16406 -0.11328,0.0547 -0.23438,0.0352 -0.33203,0.11719 l -3.6445,3.2266 v -9.9023 l 4.5547,-1.3008 4.6992,-0.12891 2.7422,8.3555 z m -9.1289,37.324 c -0.004,-0.0117 0.0117,-0.0234 0.004,-0.0352 l -1.421905,-5.3594 c 0,-0.0117 -0.004,-0.0117 -0.004,-0.0117 v -0.0117 l -1.5,-5.2539 1.1211,-5.6016 4.738305,-3.3477 11.77,-0.875 1.7461,1.7461 1.4219,8.5195 -4.5469,4.5469 c -0.0117,0.0117 -0.0234,0.0234 -0.0234,0.0234 l -0.0664,0.0664 c -0.0781,0.0781 -0.0664,0.18359 -0.11328,0.28516 -0.0781,0.12891 -0.19531,0.24219 -0.20703,0.39062 l -0.62109,6.4609 c 0,0.0234 0.0234,0.043 0.0234,0.0664 -0.0117,0.15234 0.0664,0.26172 0.11719,0.40234 0.0547,0.12891 0.0664,0.27345 0.16406,0.37891 0.0234,0.0117 0.0117,0.043 0.0352,0.0664 l 3.1914,3.0508 -1.043,6.2422 -5.5898,1.3672 -6.6758,-0.41406 -2.5078,-12.699 c 0.004,0.0117 -0.008,0 -0.0117,-0.004 z m 82.113,-326.38 4.3633,-2.5586 24.27,24.121 c 0.043,0.043 0.10156,0.0352 0.14062,0.0664 0.0391,0.0351 0.0547,0.10156 0.10156,0.11719 l 8.6172,4.7617 0.53906,5.4883 -3.7305,5.9688 c -0.0234,0.0352 0,0.0781 -0.0234,0.11328 -0.0664,0.12891 -0.0547,0.26172 -0.0664,0.40234 -0.0117,0.15234 -0.0352,0.28516 0.0117,0.42578 0.0117,0.0351 -0.0117,0.0781 0,0.11328 l 1.7188,3.832 -8.6641,7.8516 -1.0586,-1.1484 1.3086,-7.4922 c 0.0117,-0.043 -0.0352,-0.0898 -0.0352,-0.12891 0.0117,-0.15234 -0.043,-0.26172 -0.0898,-0.40234 -0.0547,-0.14062 -0.0898,-0.26172 -0.18359,-0.37109 -0.0352,-0.043 -0.0234,-0.10156 -0.0664,-0.12891 l -16.844,-14.801 c -0.0352,-0.0234 -0.0781,-0.0117 -0.11328,-0.0352 -0.0352,-0.0234 -0.0352,-0.0664 -0.0664,-0.0898 l -12.395,-7.3398 -1.8477,-5.5312 0.58984,-7.3789 z m -13.613,-33.832 c 0.0234,0.0781 -0.0117,0.15234 0.0352,0.21875 l 9.2734,14.766 7.3711,14.449 -4.4531,2.6133 c -0.0899,0.0547 -0.10156,0.15234 -0.16406,0.21875 -0.0781,0.0664 -0.17188,0.0781 -0.23047,0.17188 l -3.7852,6.3008 c -0.043,0.0781 -0.0117,0.16406 -0.0352,0.24219 -0.0352,0.0898 -0.11328,0.14062 -0.11719,0.24219 l -0.62109,7.875 c -0.0117,0.0898 0.0547,0.14062 0.0664,0.21875 0.0117,0.0781 -0.043,0.15234 -0.0117,0.23047 l 1.6641,5 -10.445,2.6836 -4.5938,-5.3047 c 0,0 -0.0117,0 -0.0234,-0.0117 -0.0117,-0.0117 0,-0.0234 -0.0117,-0.0352 l -7.2852,-7.582 -3.543,-7.4023 c -0.0547,-0.11719 -0.17188,-0.15234 -0.26172,-0.24219 -0.0898,-0.0899 -0.11328,-0.20703 -0.23047,-0.26172 -0.0234,-0.0234 -0.0547,0 -0.0781,-0.0117 -0.14062,-0.0547 -0.27344,-0.0352 -0.41406,-0.0352 -0.15234,-0.0117 -0.29687,-0.0351 -0.42578,0.0234 -0.0352,0.0117 -0.0547,-0.0117 -0.0781,0 -0.11328,0.0547 -0.14062,0.17188 -0.23047,0.25391 -0.0898,0.0898 -0.21875,0.11719 -0.28516,0.24219 l -11.266,21.59 -4.832,-15.551 7.5977,-23.441 c 0.0234,-0.043 -0.0117,-0.0898 -0.0117,-0.12891 0.0117,-0.0547 0.0547,-0.0781 0.0664,-0.1289 l 1.1016,-14.172 c 0,0 -0.0117,0 -0.0117,-0.0117 0.0117,-0.14062 -0.0781,-0.27344 -0.12891,-0.41406 -0.043,-0.12891 -0.043,-0.28516 -0.12891,-0.39063 -0.0117,0 0,0 -0.0117,-0.0117 l -6.2344,-7 -1.3555,-8.4336 v -0.0117 l -0.0117,-0.0547 c -0.0117,-0.0547 -0.0664,-0.0899 -0.0898,-0.14062 -0.0664,-0.23047 -0.17188,-0.44922 -0.35938,-0.58203 -0.0352,-0.0234 -0.0781,-0.0117 -0.11328,-0.0352 -0.19531,-0.11328 -0.39062,-0.21875 -0.67578,-0.17188 l -3.0391,0.33203 -0.0781,-2.1992 h 4.0391 c 0.20703,0 0.42578,-0.0664 0.60938,-0.18359 l 11.027,-7.2422 v -0.0117 h 0.0117 l 12.602,-8.5117 c 0.51563,-0.33984 0.64453,-1.043 0.30859,-1.5508 -0.34766,-0.51562 -1.043,-0.64453 -1.5625,-0.29688 l -12.602,8.5117 -10.719,7.043 h -3.8594 l -0.20703,-1.9805 c -0.0352,-0.32031 -0.18359,-0.58203 -0.41406,-0.76562 l -0.8125,-0.66797 3.3047,-3.6836 c 0.043,-0.043 0.0234,-0.10156 0.0547,-0.15234 0.0234,-0.0234 0.0664,-0.0117 0.0898,-0.043 l 4.6797,-8.2891 7.8164,-10.008005 c 0.37891,-0.48047 0.29687,-1.1797 -0.18359,-1.5625 -0.48047,-0.37891 -1.2031,-0.30859 -1.5742,0.18359 l -7.875,10.074005 c -0.0117,0.0352 0,0.0664 -0.0234,0.0898 -0.0117,0.0234 -0.0547,0.0234 -0.0664,0.0547 l -4.6602,8.24999 -3.2812,3.6523 -3.1094,-2.7344 c -0.46094,-0.41406 -1.1719,-0.37109 -1.5742,0.10157 -0.40234,0.46093 -0.35938,1.17189 0.10156,1.57419 l 3.9258,3.457 v 0.0117 h 0.0117 v 0.0117 h 0.0234 c 0,0.0117 0,0.0234 0.0117,0.0234 l 1.3672,1.125 0.26172,2.4922 0.15234,4.5312 c 0,0.0117 0.0117,0.0117 0.0117,0.0234 v 0.0547 0.0117 l 0.63281,9.3984 c 0,0.0547 0.0547,0.0898 0.0664,0.14062 0.0117,0.043 -0.0352,0.0898 -0.0117,0.14062 l 4.5078,13.402 -6.125,6.6602 -2.8906,-1.1133 -4.8672,-14.152 c -0.043,-0.11719 -0.16406,-0.17188 -0.25391,-0.27344 -0.0664,-0.10156 -0.0781,-0.21875 -0.18359,-0.28515 -0.0234,-0.0234 -0.0547,-0.0117 -0.0781,-0.0234 -0.12891,-0.0781 -0.26172,-0.0664 -0.41406,-0.0898 -0.15234,-0.0234 -0.27344,-0.0547 -0.41406,-0.0234 -0.0352,0.0117 -0.0547,-0.0117 -0.0899,0 -0.11719,0.0352 -0.17188,0.15234 -0.26172,0.23047 -0.10156,0.0781 -0.21875,0.0898 -0.29688,0.19531 l -3.3164,4.8789 c -0.0547,0.0899 -0.0234,0.19531 -0.0547,0.28516 -0.0351,0.10156 -0.12891,0.16406 -0.12891,0.27344 l -0.37109,5.668 -13.922,-5.9414 2.6484,-12.82 -0.004,-0.0117 c 0.0273,-0.11718 -0.0508,-0.24218 -0.0664,-0.35937 -0.0273,-0.16406 -0.0117,-0.33985 -0.10156,-0.46875 -0.004,-0.0117 0,-0.0117 -0.004,-0.0117 l -4.726605,-6.9219 c -0.0937,-0.14062 -0.25781,-0.18359 -0.39062,-0.26172 -0.10156,-0.0664 -0.15625,-0.17188 -0.27344,-0.19531 l -0.043,-0.0117 h -0.0156 l -9.5273,-2.2734 -1.2305,-1.3086 1.7305,-1.1484 c 0.0625,-0.043 0.0625,-0.11719 0.10547,-0.16406 0.11719,-0.10156 0.17188,-0.20703 0.24219,-0.34766 0.0625,-0.12891 0.10156,-0.24219 0.10156,-0.39063 0.004,-0.0664 0.0625,-0.11719 0.0508,-0.18359 l -0.46875,-3.3164 c -0.0234,-0.14062 -0.14062,-0.23047 -0.21094,-0.34766 -0.0664,-0.11719 -0.0742,-0.25391 -0.17188,-0.33984 l -2.5859,-2.2109 0.28125,-4.1562 c 0,-0.0234 -0.0234,-0.043 -0.0234,-0.0664 0,-0.15234 -0.0781,-0.26172 -0.13281,-0.40234 -0.0547,-0.12891 -0.0859,-0.27344 -0.18359,-0.37109 -0.0156,-0.0234 -0.0117,-0.0547 -0.0352,-0.0781 l -1.2617,-1.1016 c -0.10156,-0.0781 -0.22266,-0.0664 -0.33594,-0.11328 -0.11719,-0.0547 -0.19531,-0.15234 -0.33594,-0.16406 l -6.9336,-0.42969 -12.465,-23.168005 4.3789,-1.4688 h 0.004 l 4.9453,-1.5391 12.27,-1.2812 0.54297,7.6875 -0.92969,6.668 c -0.0156,0.12891 0.0664,0.23047 0.10156,0.35938 0.0234,0.12891 -0.0156,0.26172 0.0625,0.37891 l 1.9727,3.168 1.6875,5.9922 c 0.0156,0.0664 0.0859,0.10156 0.11719,0.16406 0.043,0.0898 0.0937,0.15234 0.15625,0.23047 0.125,0.140625 0.26172,0.230475 0.42969,0.296885 0.0625,0.0234 0.0898,0.0898 0.14453,0.10156 l 4.8945,1.0078 5.730505,8.9023 c 0.0234,0.0351 0.0742,0.0234 0.10156,0.0547 0.21094,0.26172 0.50391,0.46094 0.83984,0.46094 0.14062,0 0.29297,-0.0352 0.42969,-0.0898 l 3.4844,-1.457 5.4727,0.88672 4.7266,0.94141 c 0.0781,0.0117 0.14062,0.0234 0.21875,0.0234 0.0664,0 0.14062,-0.0117 0.21875,-0.0234 l 5.3594,-1.0938 c 0.043,-0.0117 0.0664,-0.0547 0.10156,-0.0664 0.19531,-0.0664 0.37109,-0.17188 0.50391,-0.34766 0.043,-0.043 0.0898,-0.0664 0.11719,-0.11719 0.0117,-0.0234 0.043,-0.0352 0.0547,-0.0547 l 3.8203,-7.4805 3.8711,-2.843805 c 0.0117,-0.0117 0.0117,-0.0234 0.0234,-0.0352 0.0117,-0.0117 0.0352,-0.0117 0.043,-0.0234 l 1.1016,-0.94141 c 0.0352,-0.0234 0.0234,-0.0547 0.043,-0.0898 0.0234,-0.0234 0.0664,-0.0117 0.0781,-0.0352 l 5.5547,-6.4727 4.8984,-3.0625 c 0.0234,-0.0117 0.0234,-0.0352 0.0352,-0.043 0.21875,-0.15234 0.39062,-0.35938 0.46094,-0.63281 l 1.4219,-5.6797 c 0.0117,-0.0117 -0.0117,-0.0352 0,-0.043 0.0234,-0.14063 -0.043,-0.26172 -0.0664,-0.40234 -0.0234,-0.15234 -0.0117,-0.29688 -0.10156,-0.42578 -0.0117,-0.0117 0,-0.0352 -0.0117,-0.043 l -0.34766,-0.49219 0.29688,-0.44922 7.8008,7.1133 14.828,16.387005 3.4336,31.92599 c 0.004,0.10547 0.082,0.17578 0.12891,0.25781 z m -87.938005,-76.644995 -1.4844,-4.7266 -0.62109,-8.2266 v -0.01172 l -0.46094,-6.8984 1.0625,-4.5586 c 0.0156,-0.08984 -0.0391,-0.15234 -0.0391,-0.23047 0.004,-0.08984 0.0664,-0.15234 0.0508,-0.24219 l -0.89062,-4.5938 3.1484,-9.1328 3.6914,-4.4297 4.8281,-3.2148 5.3203,-0.42578 7.359405,4.5586 8.418,12.555 1.3477,5.543 0.62109,5.6094 c 0.0117,0.11719 0.11328,0.19531 0.16406,0.30859 0.0352,0.08984 0.0117,0.17188 0.0664,0.25391 0.0234,0.02344 0.0547,0.01172 0.0781,0.04297 0.20703,0.23047 0.48047,0.39062 0.8125,0.39062 0.0351,0 0.0781,0 0.11719,-0.01172 0.0664,-0.01172 0.10156,-0.06641 0.15234,-0.08984 0.14062,-0.03516 0.28516,-0.04297 0.40234,-0.12891 l 0.16406,-0.12891 1.7422,5.3242 -2.5703,5.9062 -1.3906,-0.46094 c -0.10156,-0.03516 -0.17188,0.02344 -0.27344,0.02344 -0.14062,-0.01172 -0.27344,-0.02344 -0.41406,0.03516 -0.14453,0.04297 -0.24609,0.11719 -0.36328,0.23047 -0.0664,0.05469 -0.16406,0.06641 -0.21875,0.14062 l -4.2773,6.1133 -10.695005,6.7266 -6.2148,1.7422 -5.8203,-2.6992 z m 9.0664,10.191 c 0.15234,0.07813 0.3125,0.11328 0.46875,0.11328 0.10156,0 0.20312,-0.01172 0.30078,-0.04297 l 6.7773,-1.8945 c 0.0391,-0.01172 0.0508,-0.05469 0.0898,-0.06641 0.0742,-0.03516 0.14062,-0.02344 0.20703,-0.06641 l 11.027005,-6.9336 c 0.0859,-0.05469 0.0937,-0.15234 0.15625,-0.21875 0.043,-0.04297 0.125,-0.03516 0.16406,-0.08984 l 3.9297,-5.6094 0.73438,0.24219 -0.875,9.832 c 0,0.04297 0.0352,0.06641 0.0352,0.10156 0,0.03515 -0.0352,0.05469 -0.0352,0.08984 l 0.95312,13.539 c 0.0117,0.12891 0.11328,0.21875 0.15234,0.33203 0.043,0.10156 0.0234,0.21875 0.10156,0.30859 l 3.7734,4.5703 c 0.0547,0.0664 0.15234,0.043 0.21875,0.10156 0.0781,0.0664 0.11328,0.17188 0.20703,0.21875 l 4.418,1.8828 c 0.12891,0.0547 0.26172,0.0781 0.39062,0.0781 0.0117,0 0.0117,0.0117 0.0117,0.0117 h 0.0234 0.0117 l 5.8086,0.12891 -1.5117,11.52 -3.707,2.710905 c -0.0781,0.0547 -0.0781,0.15234 -0.12891,0.21875 -0.0664,0.0781 -0.15234,0.0898 -0.19531,0.17188 l -3.6953,7.2422 -4.6133,0.92578 -4.5117,-0.89844 h -0.0234 c -0.004,0 -0.0117,-0.0117 -0.0156,-0.0117 l -5.8242,-0.94141 c -0.10547,-0.0117 -0.18359,0.0547 -0.29297,0.0781 -0.11328,0.0117 -0.21094,-0.0547 -0.32422,0 l -2.918,1.2148 -5.476605,-8.511705 h -0.004 c -0.0859,-0.12891 -0.23438,-0.16406 -0.35938,-0.25391 -0.11719,-0.0898 -0.21094,-0.20703 -0.35156,-0.24219 l -4.6875,-0.96484 -1.5391,-5.4805 c -0.0156,-0.0664 -0.0781,-0.0781 -0.10156,-0.12891 -0.0234,-0.0508 0.004,-0.11328 -0.0273,-0.16406 l -1.8359,-2.9609 0.89062,-6.3672 c 0.004,-0.0547 -0.0352,-0.0898 -0.0352,-0.12891 0.004,-0.0352 0.0391,-0.0664 0.0391,-0.11328 l -0.62109,-8.8359 0.76562,-4.593799 v -0.01172 c 0,-0.01172 -0.0117,-0.02344 -0.0117,-0.03516 0.0391,-0.29687 -0.0274,-0.58203 -0.18359,-0.80078 l -0.33984,-0.46875 z m 45.398005,14.664 2.918,0.97266 c 0.11328,0.0352 0.23047,0.0547 0.34766,0.0547 0.32031,0 0.58984,-0.17187 0.80078,-0.41406 0.0352,-0.0352 0.0898,-0.0234 0.11328,-0.0547 l 0.57031,-0.78906 -0.73438,2.9023 -4.6484,2.9102 c -0.0547,0.0352 -0.0547,0.10156 -0.10156,0.14062 -0.0547,0.043 -0.11719,0.0352 -0.15234,0.0781 l -4.3867,5.1055 1.2148,-9.25 z"
     id="path80" />
  <path
     style="fill:#ffffff;stroke:#000000;stroke-width:0"
     d="m 113.54899,294.08094 c -16.839467,-1.89611 -34.948296,-6.3512 -41.022032,-10.09213 -2.346461,-1.44523 -4.266292,-2.96639 -4.266292,-3.38037 0,-0.41397 2.76223,-11.07826 6.138289,-23.69842 5.869944,-21.94263 6.033112,-23.02265 3.732403,-24.70497 -2.272934,-1.66201 -1.832325,-3.07365 7.973292,-25.54522 11.125869,-25.4972 17.22019,-34.78767 21.99993,-33.53774 3.21022,0.83949 11.35159,-4.84683 11.35159,-7.9285 0,-1.32335 0.73121,-1.7621 2.07642,-1.2459 1.14203,0.43824 2.88412,0.7968 3.87131,0.7968 0.98719,0 3.31157,1.98848 5.1653,4.41884 l 3.3704,4.41883 -2.06359,8.89806 c -1.13498,4.89393 -1.58785,9.36673 -1.00637,9.93955 2.04693,2.01648 22.97489,10.38864 24.15122,9.66163 0.65508,-0.40486 1.19105,-3.02925 1.19105,-5.83198 0,-7.61525 2.12105,-7.4699 4.64025,0.31799 2.57332,7.95517 3.94479,9.70264 8.48687,10.81358 2.74866,0.67228 4.1162,-0.19546 8.41744,-5.34113 l 5.1356,-6.14383 -3.49479,-10.73129 c -3.46514,-10.64024 -4.8484,-21.92066 -2.18209,-17.79484 0.69988,1.08298 1.28155,3.38501 1.2926,5.11562 0.011,1.73062 2.05413,5.62883 4.54017,8.66271 4.29744,5.24446 4.48432,5.89766 3.79439,13.26225 -0.39912,4.26036 -3.07886,15.32466 -5.95498,24.58733 l -5.22931,16.84123 3.27322,10.72558 c 2.6136,8.56416 3.39454,14.46144 3.87526,29.26397 l 0.60204,18.53839 -7.88373,0.82401 c -12.3142,1.2871 -46.05367,0.68278 -61.97586,-1.11005 z"
     id="path263"
     transform="scale(0.75)" />
  <path
     style="fill:#ffffff;stroke:#000000;stroke-width:0"
     d="m 18.100156,241.20957 c -2.573354,-2.73683 -3.616483,-5.59487 -4.312875,-11.81671 -0.505207,-4.51372 -1.494881,-8.56295 -2.199275,-8.99829 -0.704395,-0.43534 -2.7137819,0.55477 -4.4653044,2.20024 l -3.1845862,2.99176 v -4.12488 c 0,-2.83924 5.3094974,-13.67178 17.0350926,-34.75531 9.369301,-16.84673 19.225918,-36.37218 21.903593,-43.38989 4.420661,-11.58578 5.491155,-13.23986 11.637499,-17.98173 9.647209,-7.44276 13.689116,-6.96361 27.924364,3.31034 6.363892,4.59299 7.018157,8.31141 2.887169,16.40882 -1.443976,2.83042 -2.625411,7.00438 -2.625411,9.27545 0,3.52719 -2.171144,6.26443 -14.891149,18.77384 -8.190133,8.05453 -22.071989,20.19554 -30.84857,26.98001 l -15.957421,12.3354 v 5.87468 c 0,7.05785 2.260277,15.45069 5.39526,20.03364 2.199775,3.2158 2.190773,3.41685 -0.22039,4.92265 -3.537664,2.20931 -4.252134,2.02887 -8.077996,-2.04002 z"
     id="path302"
     transform="scale(0.75)" />
  <path
     style="fill:#ffffff;stroke:#000000;stroke-width:0"
     d="m 29.815521,235.21679 c -1.095243,-1.67155 -2.636681,-5.36353 -3.425416,-8.2044 -2.917901,-10.50971 -2.730213,-10.82975 13.832573,-23.58713 8.404703,-6.47367 22.28656,-18.67568 30.84857,-27.11558 13.236714,-13.04793 15.56729,-15.9548 15.56729,-19.41669 0,-2.23928 1.329114,-7.0133 2.953586,-10.60893 2.391278,-5.2929 3.453416,-6.41059 5.578997,-5.87081 1.443976,0.36668 5.431319,0.67477 8.860759,0.68463 5.51865,0.0159 6.23535,0.34553 6.23535,2.86814 0,1.56763 0.98282,3.93623 2.18405,5.26358 1.84302,2.03651 1.92432,2.89867 0.52066,5.52144 -1.39708,2.61045 -1.31172,3.64483 0.53311,6.46039 2.12452,3.24244 2.08806,3.42336 -1.11273,5.5206 -1.85898,1.21805 -4.42311,1.81477 -5.85087,1.36162 -1.90031,-0.60314 -3.84407,0.67298 -7.703433,5.05745 -2.838996,3.22527 -6.633585,6.23352 -8.432417,6.685 -2.128603,0.53424 -8.20157,6.95769 -17.392515,18.39625 -12.513334,15.57344 -36.990533,40.02363 -40.067845,40.02363 -0.626103,0 -2.034477,-1.36763 -3.129719,-3.03919 z"
     id="path341"
     transform="scale(0.75)" />
  <path
     style="fill:#ffffff;stroke:#000000;stroke-width:0"
     d="m 142.14667,142.77504 c -6.40178,-0.44939 -7.03203,-0.81265 -9.726,-5.60593 -1.95225,-3.47356 -4.08291,-5.38947 -6.6111,-5.94475 -2.63146,-0.57796 -3.97679,-1.85203 -4.56659,-4.32471 -0.45987,-1.92795 -1.36673,-4.18233 -2.01525,-5.00973 -1.60576,-2.04866 -0.78635,-28.671688 0.88479,-28.747074 8.54651,-0.385538 25.26907,-9.321712 29.79869,-15.923777 l 2.54374,-3.707582 -0.87625,5.661506 c -0.48194,3.113828 -0.45538,10.416147 0.059,16.227378 1.19575,13.508199 4.56988,18.026749 14.27818,19.121019 l 6.33708,0.71428 -0.8825,6.70472 c -0.56428,4.28699 -1.98237,7.88812 -3.93258,9.98647 -1.67753,1.80497 -4.01874,5.2016 -5.20269,7.54806 -2.33896,4.63558 -1.95722,4.57287 -20.08856,3.30012 z"
     id="path380"
     transform="scale(0.75)" />
  <path
     style="fill:#ffffff;stroke:#000000;stroke-width:0"
     d="m 167.36066,201.17206 c -0.32076,-0.90249 -1.9267,-5.43538 -3.56874,-10.0731 -1.64205,-4.63772 -3.65876,-8.65256 -4.48159,-8.92187 -2.06108,-0.67459 -7.03654,7.71813 -7.03654,11.8694 v 3.39436 l -8.2044,-3.68376 c -8.97793,-4.03107 -8.86784,-3.77587 -6.90383,-16.00383 1.32516,-8.25041 -2.86755,-15.04782 -10.48952,-17.00609 -6.35574,-1.63295 -11.11367,-3.66808 -8.86076,-3.79006 2.24815,-0.12173 2.06824,-5.58556 -0.28642,-8.69871 -1.06002,-1.40147 -1.9461,-3.7591 -1.96906,-5.23918 -0.057,-3.67057 -2.51607,-5.84154 -6.61692,-5.84154 -5.22722,0 -7.08977,-2.13568 -15.024114,-17.22727 l -7.331794,-13.94552 8.499971,-2.13512 c 4.674985,-1.17432 10.974387,-2.13512 13.998657,-2.13512 h 5.49869 l -0.74352,9.83104 c -0.40893,5.40708 -0.21489,10.15776 0.43121,10.55707 0.6461,0.39931 1.81575,3.10662 2.59923,6.01624 1.10033,4.08629 2.31098,5.59924 5.31977,6.64811 2.18479,0.76163 5.61002,3.85023 7.80033,7.03373 3.6956,5.37138 4.23954,5.67255 10.14019,5.61452 16.16883,-0.15902 22.04606,0.81857 26.2641,4.36865 3.80342,3.20111 4.18044,4.26308 4.8934,13.7834 0.42487,5.67329 2.01036,14.5158 3.52332,19.65002 l 2.75084,9.33494 -3.04626,4.12029 c -3.16249,4.27749 -6.14936,5.31234 -7.15624,2.4794 z"
     id="path419"
     transform="scale(0.75)" />
  <path
     style="fill:#ffffff;stroke:#000000;stroke-width:0"
     d="m 35.443038,321.05235 c -3.248945,-0.47628 -8.385969,-2.31205 -11.41561,-4.07949 -5.34898,-3.12051 -5.534668,-3.45847 -6.414591,-11.67507 -0.737642,-6.888 -0.358504,-10.18568 2.038772,-17.73292 1.61971,-5.09926 4.282126,-10.74818 5.916482,-12.55315 5.043238,-5.56971 6.846618,-9.39657 10.516251,-22.31598 l 3.542178,-12.4707 13.732602,-13.15081 13.732604,-13.1508 -0.876533,8.18493 -0.876531,8.18494 4.742764,2.7983 c 2.608521,1.53906 4.742766,3.29282 4.742766,3.89724 0,0.60442 -2.389225,9.99045 -5.309388,20.85783 -5.657186,21.05321 -9.124783,38.54118 -9.129933,46.04456 -0.0026,3.72817 -1.249656,5.89393 -6.61402,11.48617 -6.906699,7.20011 -7.233572,7.30132 -18.327813,5.67495 z"
     id="path458"
     transform="scale(0.75)" />
  <path
     style="fill:#ffffff;stroke:#000000;stroke-width:0"
     d="m 216.12645,244.56463 c -4.78285,-5.27473 -9.34848,-11.54268 -10.14586,-13.92877 -0.94281,-2.82133 -2.17304,-4.1984 -3.51814,-3.93812 -1.13761,0.22014 -5.06844,6.14812 -8.73518,13.17331 -3.66673,7.02518 -6.98939,12.78467 -7.38367,12.79888 -0.39429,0.0142 -1.97174,-3.83381 -3.50545,-8.55112 l -2.78856,-8.57692 5.05589,-15.04929 c 3.17398,-9.44759 5.39404,-18.92566 5.96434,-25.46339 l 0.90843,-10.4141 -4.75612,-5.80421 c -2.61586,-3.19232 -4.76419,-6.92482 -4.77404,-8.29443 -0.0384,-5.32821 -1.62626,-8.39841 -4.40147,-8.51022 -2.43213,-0.098 -2.35429,-0.24806 0.5918,-1.14097 4.36338,-1.32246 35.33251,-22.03958 35.33251,-23.63604 0,-3.48309 -3.92145,-1.802 -18.15956,7.78483 -14.99016,10.09321 -21.22159,12.65484 -21.22159,8.72385 0,-2.22376 6.60315,-12.88726 14.11158,-22.78893 5.68245,-7.49369 6.89193,-10.83647 3.92083,-10.83647 -1.74478,0 -11.1896,11.46672 -14.05612,17.06516 -0.92417,1.80497 -3.11542,5.20471 -4.86944,7.55497 -3.13036,4.19447 -3.24573,4.23075 -6.26123,1.96906 -2.49163,-1.86878 -2.81848,-2.80021 -1.72979,-4.92956 1.69499,-3.3152 21.61481,-22.97234 23.27932,-22.97234 0.68109,0 1.63104,-2.09321 2.11099,-4.65159 0.47995,-2.55837 1.50546,-4.44065 2.2789,-4.18283 0.77345,0.25781 7.23972,6.73349 14.3695,14.39039 l 12.96324,13.92164 2.34384,21.57912 2.34384,21.57911 7.88299,12.98588 c 8.67083,14.2837 13.51033,23.35203 13.51033,25.31582 0,0.7021 -1.07627,1.61814 -2.39172,2.03564 -5.62145,1.78418 -11.03259,18.67328 -8.28836,25.86942 1.25363,3.2874 1.07282,3.52691 -3.27871,4.34327 -2.53304,0.4752 -5.3709,1.1577 -6.30638,1.51667 -0.95892,0.36798 -5.49418,-3.53075 -10.39694,-8.93772 z"
     id="path497"
     transform="scale(0.75)" />
  <path
     style="fill:#ffffff;stroke:#000000;stroke-width:0"
     d="m 280.9019,286.91902 c 0.51875,-2.83683 0.58711,-5.65453 0.15191,-6.26156 -2.9313,-4.08865 -24.75112,-21.76337 -31.33723,-25.3841 -4.65062,-2.55669 -8.31005,-5.5323 -8.731,-7.09949 -2.43578,-9.06829 0.77264,-20.21506 6.58022,-22.86117 2.44276,-1.113 4.65314,0.62216 18.39293,14.43852 8.58909,8.63694 18.42242,17.24415 21.85187,19.12712 7.17883,3.94162 7.96494,7.11778 3.5355,14.28477 -2.12512,3.43851 -2.39931,4.93 -1.28806,7.00639 1.20136,2.24477 0.6744,3.32345 -3.5355,7.23715 -2.72101,2.52956 -5.31101,4.61519 -5.75556,4.63472 -0.44455,0.0195 -0.38383,-2.28552 0.13492,-5.12235 z"
     id="path536"
     transform="scale(0.75)" />
  <path
     style="fill:#ffffff;stroke:#000000;stroke-width:0"
     d="m 138.69568,677.02766 c -0.3333,-0.54149 -1.04553,-3.93811 -1.58272,-7.54805 -0.5372,-3.60994 -2.00571,-10.17121 -3.26336,-14.58061 -4.03249,-14.13816 -0.85594,-18.68418 13.44008,-19.23432 l 8.19634,-0.3154 1.19181,5.51265 c 1.07138,4.9556 0.84276,5.92748 -2.26246,9.61783 -4.01029,4.76595 -4.83727,14.24884 -1.48522,17.03079 2.55215,2.1181 2.51086,5.83419 -0.0938,8.43882 -2.11616,2.11616 -12.99142,2.94545 -14.1407,1.07829 z"
     id="path575"
     transform="scale(0.75)" />
  <path
     style="fill:#ffffff;stroke:#000000;stroke-width:0"
     d="m 109.2827,650.28525 -6.8917,-2.64876 0.0301,-8.76901 0.0302,-8.76902 2.85327,4.92264 c 3.48097,6.00557 5.02988,6.13375 7.58806,0.62794 1.65313,-3.55793 2.78663,-4.3049 7.06469,-4.65561 2.8026,-0.22975 5.75618,0.24344 6.56352,1.05154 0.81918,0.81995 1.4679,5.79052 1.4679,11.2472 v 9.77792 l -5.90717,-0.0681 c -3.24895,-0.0374 -9.00844,-1.25999 -12.79888,-2.7168 z"
     id="path614"
     transform="scale(0.75)" />
  <path
     style="fill:#ffffff;stroke:#000000;stroke-width:0"
     d="m 132.08946,632.67422 c -1.24126,-3.23467 2.44145,-9.01724 7.46604,-11.72316 6.11603,-3.2937 11.72219,-1.19552 13.65792,5.11164 l 1.33228,4.34096 -9.12525,0.76503 c -5.01889,0.42077 -9.89146,1.40093 -10.82794,2.17814 -1.25964,1.04541 -1.91095,0.87039 -2.50305,-0.67261 z"
     id="path653"
     transform="scale(0.75)" />
  <path
     style="fill:#ffffff;stroke:#000000;stroke-width:0"
     d="m 133.89592,609.90343 c 0,-5.92924 0.19271,-6.14009 6.73337,-7.36712 4.47279,-0.8391 4.82907,-0.64689 6.22535,3.35848 0.81457,2.33668 1.48104,4.45572 1.48104,4.70898 0,0.25325 -1.93607,0.46046 -4.30238,0.46046 -2.36632,0 -5.61526,0.91957 -7.21988,2.0435 -2.86911,2.00959 -2.9175,1.95645 -2.9175,-3.2043 z"
     id="path692"
     transform="scale(0.75)" />
  <path
     style="fill:#ffffff;stroke:#000000;stroke-width:0"
     d="m 103.00706,609.75153 c 1.61646,-8.31994 2.11112,-9.18894 5.23058,-9.18894 2.42634,0 3.17606,0.86603 3.69335,4.26629 0.80356,5.282 0.27642,6.23535 -3.44775,6.23535 -1.61796,0 -3.71284,0.7384 -4.65529,1.64088 -1.40144,1.34202 -1.55096,0.80406 -0.82089,-2.95358 z"
     id="path731"
     transform="scale(0.75)" />
  <path
     style="fill:#ffffff;stroke:#000000;stroke-width:0"
     d="m 106.53327,626.83808 c -1.18341,-3.39474 -0.98665,-4.18201 1.47638,-5.90717 4.03012,-2.82282 10.92528,-2.51169 14.07193,0.63496 3.96802,3.96803 3.20554,5.25082 -3.12103,5.25082 -3.50651,0 -6.38343,0.76753 -7.38062,1.96906 -2.38832,2.87776 -3.51625,2.44246 -5.04666,-1.94767 z"
     id="path770"
     transform="scale(0.75)" />
  <path
     style="fill:#ffffff;stroke:#000000;stroke-width:0"
     d="m 118.14346,87.195558 c -8.1274,-3.053032 -12.27984,-16.806942 -11.36097,-37.630394 0.69047,-15.64755 2.77723,-21.84453 9.21008,-27.350806 9.16197,-7.842303 17.85413,-4.888705 27.02149,9.181908 5.64913,8.670616 7.94703,14.677768 7.94703,20.775096 0,2.216114 0.70801,3.618605 1.82675,3.618605 1.00471,0 2.1889,1.442944 2.63154,3.206541 0.95264,3.795644 -1.51729,9.920511 -4.00058,9.920511 -0.96045,0 -3.03365,1.963904 -4.6071,4.364231 -3.19936,4.880674 -15.94021,13.381103 -21.6586,14.450161 -2.05033,0.383311 -5.20467,0.142177 -7.00964,-0.535853 z"
     id="path809"
     transform="scale(0.75)" />
</svg>
